<svg xmlns="http://www.w3.org/2000/svg" width="163" height="24" viewBox="0 0 163 24" fill="none">
    <path d="M20.5181 7.54655C20.5181 7.50408 20.4757 7.46162 20.4332 7.41916C20.4332 7.41916 20.4332 7.37669 20.4332 7.24929C20.4332 7.1219 20.3907 6.99452 20.2633 6.95205C20.1784 6.90959 20.051 6.90959 19.9661 6.95205L19.5415 7.20684H19.0319L18.9045 7.41916H13.1294L12.6198 6.99452H9.51993C9.51993 6.82466 9.39254 6.69727 9.26515 6.69727C9.13776 6.69727 9.01036 6.82466 9.01036 6.99452V7.33423V7.37669L8.84051 7.63148C8.75558 7.75887 8.67065 7.80134 8.58572 7.8438C8.58572 7.8438 8.50079 7.8438 8.45832 7.8438C8.28847 7.8438 8.11861 7.7164 8.07615 7.7164C7.99122 7.63147 7.90629 7.50408 7.60904 7.54655C7.56658 7.54655 7.52412 7.54655 7.43919 7.58901C7.3118 7.63148 7.22687 7.71641 7.22687 7.8438C7.22687 7.92873 7.3118 8.01366 7.35427 8.05612C7.4392 8.09859 7.48166 8.14104 7.56659 8.14104C7.60905 8.14104 7.69398 8.14104 7.73644 8.14104C7.9063 8.18351 7.99122 8.26843 8.03368 8.3109C8.03368 8.3109 8.03368 8.3109 8.03368 8.35336C8.03368 8.35336 8.03369 8.39583 7.99123 8.39583C7.77891 8.48076 7.65151 8.60815 7.52412 8.69308C7.48166 8.73555 7.43919 8.77801 7.39672 8.82047H6.92963C6.71731 8.82047 6.5899 8.94786 6.54744 9.16018C6.42005 9.75467 5.91049 10.2642 5.86802 10.2642C4.76396 11.4957 4.33931 14.171 4.21191 15.275C4.21191 15.4024 4.21192 15.5723 4.33931 15.6572C4.42424 15.7421 4.55163 15.827 4.67902 15.827H6.50499C6.63238 15.827 6.7173 15.7846 6.80223 15.6997C6.84469 15.6572 6.92963 15.5723 6.92963 15.4873C7.01455 15.1476 7.18441 14.9353 7.26933 14.8504C7.39673 14.6805 7.48165 14.4682 7.43919 14.2559C7.35426 13.8312 7.48165 13.5764 7.60904 13.4491C7.69397 13.3641 7.73644 13.1943 7.73644 13.0669V12.5998C7.73644 12.345 7.9063 12.1751 8.11862 12.1751H8.45832C8.58572 12.1751 8.71312 12.0902 8.79804 12.0053C8.88297 12.1751 8.9679 12.345 8.9679 12.3875C9.22268 12.897 10.1144 13.1093 11.0062 12.6847C11.8979 12.2601 11.8979 11.7505 11.8555 11.1985C11.8555 11.1985 11.8555 11.1135 11.8555 11.0711C11.8555 10.7313 12.365 10.604 12.5773 10.5615C12.7047 10.5615 12.8321 10.3916 12.8321 10.2218C12.8321 10.0519 12.8321 9.88208 12.9171 9.75469C12.9171 9.58483 13.002 9.49989 13.0445 9.41496C13.0445 9.41496 13.0445 9.37251 13.0869 9.33004H20.2209C20.3483 9.33004 20.4757 9.24512 20.5181 9.11772C20.7729 8.39583 20.6031 7.75887 20.5181 7.54655ZM11.176 12.1751C10.7514 12.4299 9.94457 12.6847 9.43501 12.3875C8.92544 12.1327 8.92543 11.3683 9.39254 11.0286L9.60486 11.156C9.73225 11.2409 9.85965 11.3683 9.85965 11.5382C9.90211 11.8354 10.072 12.2601 10.624 12.2176C10.624 12.2176 10.6665 12.2176 10.7089 12.1751C10.7089 12.1327 10.7089 12.0902 10.624 12.0477C10.4117 12.0477 9.98704 11.8779 10.2418 10.8163C10.2418 10.8163 10.7939 10.6889 11.261 10.9437C11.7281 11.1985 11.5582 11.9203 11.176 12.2176V12.1751Z" fill="black"/>
    <path d="M12.4076 0.03125C5.91056 0.03125 0.602539 5.33927 0.602539 11.8363C0.602539 18.3333 5.91056 23.6413 12.4076 23.6413C18.9046 23.6413 24.2126 18.3333 24.2126 11.8363C24.2126 5.33927 18.9046 0.03125 12.4076 0.03125ZM2.55589 11.8363C2.55589 9.798 3.19285 7.84465 4.29692 6.27348L19.2443 18.8853C17.4608 20.5839 15.0828 21.6455 12.4076 21.6455C6.97216 21.6455 2.59836 17.2292 2.59836 11.8363H2.55589ZM20.5182 17.3991L5.57084 4.78723C7.35433 3.08867 9.73233 2.02707 12.4076 2.02707C17.843 2.02707 22.2168 6.44333 22.2168 11.8363C22.2168 17.2292 21.5798 15.8279 20.4757 17.3991H20.5182Z" fill="#C7CDDB"/>
    <path d="M46.7182 15.4883H46.6332L47.4401 13.1104L45.4018 13.7898L44.8073 15.5308L44.595 16.0404C44.51 16.2952 44.3826 16.5499 44.2553 16.8047C44.1279 17.0595 44.0429 17.3568 44.0005 17.654C43.9155 18.3759 44.1703 19.1402 44.6799 19.6498C45.1045 20.1169 45.699 20.3717 46.336 20.3717C46.4209 20.3717 46.4634 20.3717 46.5483 20.3717C47.2277 20.3717 47.9072 19.9895 48.3318 19.4375C49.0537 18.5458 49.0537 17.2294 48.3318 16.3376C47.9072 15.8281 47.3551 15.5308 46.7182 15.4459V15.4883ZM47.3976 18.8855C47.1428 19.1403 46.8031 19.2676 46.4634 19.2676C46.1237 19.2676 45.784 19.1403 45.5292 18.8855C45.0196 18.3759 45.0196 17.5266 45.5292 16.9746C45.784 16.7198 46.1237 16.5924 46.4634 16.5924H46.5059C46.8456 16.5924 47.1853 16.7623 47.3976 16.9746C47.6524 17.2294 47.7798 17.5691 47.7798 17.9088C47.7798 18.2485 47.6524 18.5882 47.3976 18.843V18.8855Z" fill="black"/>
    <path d="M50.4979 4.27729C50.4979 4.23482 50.4979 4.14989 50.4555 4.10742C50.4555 4.10742 50.413 4.10742 50.3705 4.10742C50.3281 4.10742 50.3281 4.10742 50.2856 4.10742L49.3939 4.82932C48.587 5.46628 47.9501 6.35802 47.6104 7.3347L46.3789 10.9017L48.4172 10.2223L50.4555 4.27729H50.4979Z" fill="black"/>
    <path d="M54.8291 8.60888C54.8291 8.56642 54.7442 8.52395 54.6593 8.56642L43.4063 12.3033V12.2183C43.3214 11.5814 43.0241 10.9869 42.5146 10.6047C42.0475 10.2225 41.4954 10.0102 40.9434 10.0102C40.3914 10.0102 39.8818 10.1801 39.4147 10.5198C38.8626 10.9444 38.5229 11.6238 38.4805 12.3033C38.4805 12.9827 38.6928 13.7046 39.2024 14.1717C39.627 14.6388 40.2215 14.8936 40.8585 14.8936C40.9434 14.8936 41.0708 14.8936 41.1557 14.8936C41.453 14.8936 41.7502 14.7662 42.005 14.6388C42.2598 14.5114 42.5146 14.384 42.7693 14.2991L43.2789 14.1292L51.5169 11.4115C52.4936 11.0718 53.3854 10.4773 54.0223 9.67049L54.7442 8.77874C54.7442 8.73627 54.7442 8.65135 54.7442 8.60888H54.8291ZM41.9201 13.4073C41.6653 13.6621 41.3256 13.7895 40.9858 13.7895C40.6461 13.7895 40.3064 13.6621 40.0516 13.4073C39.7969 13.1525 39.6695 12.8128 39.6695 12.4731C39.6695 12.1334 39.7969 11.7937 40.0516 11.5389C40.3064 11.2841 40.6461 11.1567 40.9858 11.1567H41.0283C41.368 11.1567 41.7077 11.3266 41.9201 11.5389C42.1748 11.7937 42.3022 12.1334 42.3022 12.4731C42.3022 12.8128 42.1748 13.1525 41.9201 13.4073Z" fill="black"/>
    <path d="M47.0579 0.03125C40.5609 0.03125 35.2529 5.33926 35.2529 11.8363C35.2529 18.3333 40.5609 23.6413 47.0579 23.6413C53.555 23.6413 58.863 18.3333 58.863 11.8363C58.863 5.33926 53.555 0.03125 47.0579 0.03125ZM37.2063 11.8787C37.2063 9.84045 37.8432 7.8871 38.9473 6.31593L53.8947 18.9278C52.1112 20.6263 49.7332 21.6879 47.0579 21.6879C41.6225 21.6879 37.2487 17.2717 37.2487 11.8787H37.2063ZM55.1261 17.3991L40.1788 4.78722C41.9623 3.08866 44.3402 2.02705 47.0155 2.02705C52.4509 2.02705 56.8247 6.44332 56.8247 11.8363C56.8247 17.2292 56.1877 15.8279 55.0837 17.3991H55.1261Z" fill="#C7CDDB"/>
    <path d="M82.5125 13.8315C83.7439 13.5767 84.6357 12.9397 85.1028 11.9206C86.3767 9.28781 84.3384 5.12633 84.2535 4.91401C84.211 4.82908 84.1261 4.74414 83.9987 4.74414H79.8372C79.7098 4.74414 79.6249 4.78662 79.5824 4.91401C79.4975 5.08386 77.4592 9.28781 78.7332 11.9206C79.2003 12.8973 80.092 13.5342 81.3235 13.8315C81.3235 13.8315 81.3235 13.8315 81.3659 13.8315C81.4084 14.2136 81.4933 15.2328 81.4933 17.908C81.4933 20.5832 81.3659 19.2244 79.7948 19.4792C79.6674 19.4792 79.4975 19.4792 79.3276 19.5217C79.1578 19.5217 78.9879 19.6915 78.9879 19.8614V20.0312H84.8055V19.8614C84.8055 19.6915 84.6781 19.5217 84.5083 19.5217C84.3384 19.5217 84.211 19.5216 84.0412 19.4792C82.4275 19.2244 82.3426 18.2053 82.3426 17.908C82.3426 15.1903 82.4275 14.2136 82.47 13.8315H82.5125ZM82.4275 13.2794C81.8755 13.3644 81.5358 13.2794 81.4933 13.2794C80.4317 13.0671 79.6674 12.5151 79.2852 11.7083C78.9879 11.0713 78.903 10.2645 78.9455 9.50012C79.0729 7.7591 79.7948 5.93314 80.0495 5.3811H83.8713C84.1261 5.93314 84.8904 7.7591 84.9754 9.50012C85.0178 10.2645 84.9754 11.0713 84.6357 11.7083C84.2535 12.5151 83.4891 13.0671 82.4275 13.2794Z" fill="black"/>
    <path d="M84.167 7.33394V7.24902H79.7082V7.33394C79.6233 7.46134 78.774 10.3064 79.8781 11.9201C80.3027 12.557 81.0246 12.8967 81.9588 12.9817C82.893 12.9392 83.5725 12.557 83.9971 11.9201C85.1012 10.3064 84.2094 7.46134 84.167 7.33394Z" fill="black"/>
    <path d="M81.7064 0.03125C75.2094 0.03125 69.9014 5.33926 69.9014 11.8363C69.9014 18.3333 75.2094 23.6413 81.7064 23.6413C88.2034 23.6413 93.5114 18.3333 93.5114 11.8363C93.5114 5.33926 88.2034 0.03125 81.7064 0.03125ZM71.8972 11.8363C71.8972 9.79799 72.5341 7.84463 73.6382 6.27346L88.5856 18.8853C86.8021 20.5839 84.4241 21.6455 81.7489 21.6455C76.3134 21.6455 71.9396 17.2292 71.9396 11.8363H71.8972ZM89.817 17.3991L74.8697 4.78722C76.6532 3.08866 79.0311 2.02705 81.7064 2.02705C87.1418 2.02705 91.5156 6.44332 91.5156 11.8363C91.5156 17.2292 90.8786 15.8279 89.7746 17.3991H89.817Z" fill="#C7CDDB"/>
    <path d="M121.795 8.77669H118.822L118.61 7.84248C118.483 7.41784 118.1 7.07812 117.633 7.07812H114.958C114.491 7.07812 114.109 7.37537 113.981 7.84248L113.769 8.77669H111.051C110.499 8.77669 110.032 9.24379 110.032 9.79582V15.4435C110.032 15.9956 110.499 16.4627 111.051 16.4627H121.795C122.347 16.4627 122.814 15.9956 122.814 15.4435V9.79582C122.814 9.24379 122.347 8.77669 121.795 8.77669ZM116.402 15.5285C114.788 15.5285 113.472 14.2121 113.472 12.5985C113.472 10.9848 114.788 9.66843 116.402 9.66843C118.015 9.66843 119.332 10.9848 119.332 12.5985C119.332 14.2121 118.015 15.5285 116.402 15.5285ZM121.625 10.5177H119.969V9.66843H121.625V10.5177Z" fill="black"/>
    <path d="M116.402 10.3916C115.171 10.3916 114.194 11.3683 114.194 12.5997C114.194 13.8312 115.171 14.8079 116.402 14.8079C117.634 14.8079 118.611 13.8312 118.611 12.5997C118.611 11.3683 117.634 10.3916 116.402 10.3916ZM115.723 11.7929C115.511 11.7929 115.341 11.6231 115.341 11.4107C115.341 11.1984 115.511 11.0286 115.723 11.0286C115.935 11.0286 116.105 11.1984 116.105 11.4107C116.105 11.6231 115.935 11.7929 115.723 11.7929Z" fill="black"/>
    <path d="M125.403 9.28719L123.365 8.5653L124.257 6.39963L122.388 7.58863L121.539 4.44629L121.072 7.58863L119.076 6.52703L120.223 8.35298L120.562 8.14066L120.265 7.6311L121.412 8.26806L121.666 6.56949L122.134 8.26806L123.365 7.5037L122.813 8.82009L124.044 9.24473L122.983 9.54198L123.577 10.9008L123.195 10.6885L122.983 11.0282L124.469 11.92L123.577 9.83923L125.403 9.28719Z" fill="black"/>
    <path d="M116.359 0.03125C109.862 0.03125 104.554 5.33926 104.554 11.8363C104.554 18.3333 109.862 23.6413 116.359 23.6413C122.856 23.6413 128.164 18.3333 128.164 11.8363C128.164 5.33926 122.856 0.03125 116.359 0.03125ZM106.55 11.8363C106.55 9.79799 107.186 7.84464 108.291 6.27347L123.238 18.8853C121.454 20.5839 119.076 21.6455 116.401 21.6455C110.966 21.6455 106.592 17.2292 106.592 11.8363H106.55ZM124.469 17.3991L109.522 4.78723C111.305 3.08866 113.683 2.02706 116.359 2.02706C121.794 2.02706 126.168 6.44333 126.168 11.8363C126.168 17.2292 125.531 15.8279 124.427 17.3991H124.469Z" fill="#C7CDDB"/>
    <path d="M151.816 5.4656C151.816 5.4656 151.816 5.42313 151.816 5.38067V3.85197C151.816 3.72458 151.731 3.63965 151.603 3.63965H150.414C150.287 3.63965 150.202 3.72458 150.202 3.85197V5.38067C150.202 5.38067 150.202 5.42314 150.202 5.4656H151.731H151.816Z" fill="black"/>
    <path d="M152.326 8.77768L151.944 8.35303C151.731 8.14071 151.646 7.84347 151.646 7.54622V6.44215V5.84766H150.373V6.3997V7.54622C150.373 7.84347 150.288 8.09825 150.075 8.35303L149.693 8.77768C149.226 9.28724 149.014 9.96668 149.014 10.6461V19.3512C149.014 19.5211 149.099 19.6909 149.184 19.8183C149.311 19.9882 149.481 20.0731 149.736 20.0731H152.326C152.538 20.0731 152.708 19.9882 152.878 19.8183C152.963 19.6909 153.048 19.5211 153.048 19.3512V10.6461C153.048 9.96668 152.793 9.28724 152.368 8.77768H152.326Z" fill="black"/>
    <path d="M151.009 0.03125C144.512 0.03125 139.204 5.33926 139.204 11.8363C139.204 18.3333 144.512 23.6413 151.009 23.6413C157.506 23.6413 162.814 18.3333 162.814 11.8363C162.814 5.33926 157.506 0.03125 151.009 0.03125ZM141.2 11.8363C141.2 9.79799 141.837 7.84463 142.941 6.27346L157.888 18.8853C156.105 20.5839 153.727 21.6455 151.052 21.6455C145.616 21.6455 141.242 17.2292 141.242 11.8363H141.2ZM159.12 17.3991L144.172 4.78722C145.956 3.08866 148.334 2.02705 151.009 2.02705C156.445 2.02705 160.818 6.44332 160.818 11.8363C160.818 17.2292 160.181 15.8279 159.077 17.3991H159.12Z" fill="#C7CDDB"/>
</svg>