<svg width="12" height="13" viewBox="0 0 12 13" fill="none" xmlns="http://www.w3.org/2000/svg">
<g id="008-balloons" clip-path="url(#clip0_120_52870)">
<path id="Vector" d="M5.10963 4.28924H4.1725C4.1725 3.24389 4.9312 2.48511 5.97654 2.48511V3.42233C5.57664 3.42233 5.10963 3.64938 5.10963 4.28924ZM6.95121 8.37284C6.91266 8.38703 6.87412 8.40049 6.83548 8.41303L7.2417 9.27975H6.50022C6.51148 9.45471 6.53455 9.61026 6.57026 9.74621C6.61933 9.91641 6.68177 9.99688 6.72782 10.0347C6.92136 10.1934 7.43286 10.0909 7.92752 9.99203C8.47629 9.88226 9.0982 9.75784 9.72076 9.85763C10.4739 9.97839 11.0763 10.4133 11.5112 11.1503L10.704 11.6265C10.1013 10.6052 9.33157 10.6683 8.14038 10.9052C8.59256 11.1653 8.99896 11.6123 8.99896 12.5833H8.06174C8.06174 11.8398 7.78232 11.7335 7.22559 11.522C6.85965 11.3828 6.44483 11.2252 6.1092 10.8482C5.9195 10.6351 5.77961 10.3755 5.68769 10.0656C5.61729 9.84436 5.57554 9.58389 5.56089 9.27975H4.80504L5.20027 8.43656C5.14158 8.41916 5.08299 8.39975 5.02458 8.37851C4.7989 8.43235 4.56087 8.45917 4.3156 8.45917C3.69414 8.45917 3.02727 8.28916 2.40243 7.9625C1.4837 7.48212 0.758788 6.72572 0.361359 5.83272C-0.0823951 4.83562 -0.118192 3.82571 0.258088 2.9122C0.612121 2.05243 1.31579 1.35251 2.23946 0.941349C3.08458 0.565069 3.96614 0.485785 4.78874 0.712011C4.81428 0.71906 4.83854 0.728582 4.8618 0.739385C5.21473 0.63941 5.58946 0.587408 5.97654 0.587408C6.37424 0.587408 6.75885 0.642339 7.12021 0.747716C7.14868 0.732976 7.17908 0.720891 7.21131 0.712102C8.03381 0.485785 8.91537 0.565161 9.76058 0.941349C10.6843 1.35251 11.3879 2.05243 11.742 2.9122C12.1181 3.82571 12.0824 4.83562 11.6387 5.83272C11.2412 6.72572 10.5163 7.48212 9.59753 7.9625C8.97277 8.28916 8.30581 8.45917 7.68445 8.45917C7.43039 8.45917 7.18402 8.43061 6.95121 8.37284ZM8.55713 1.55438C8.56674 1.56336 8.57654 1.57215 8.58606 1.58121C9.30071 2.26227 9.67846 3.19866 9.67846 4.28924C9.67846 5.34017 9.26135 6.41865 8.53424 7.24802C8.47629 7.31413 8.41687 7.37775 8.35644 7.43928C8.62469 7.37391 8.89734 7.271 9.16329 7.13194C9.89553 6.74906 10.4706 6.15233 10.7824 5.45168C11.445 3.96285 10.8681 2.4602 9.37936 1.79746C9.1069 1.67615 8.83105 1.59512 8.55713 1.55438ZM5.97654 1.52454C4.34874 1.52454 3.21184 2.66143 3.21184 4.28924C3.21184 6.08101 4.73207 7.61625 5.97654 7.61625C6.59553 7.61625 7.28821 7.24766 7.82947 6.63023C8.4089 5.96931 8.74124 5.11604 8.74124 4.28924C8.74124 2.66143 7.60434 1.52454 5.97654 1.52454ZM2.83675 7.13194C3.08623 7.2624 3.34157 7.36109 3.5938 7.42673C3.53768 7.36933 3.48247 7.31019 3.42845 7.24885C2.69521 6.41655 2.27471 5.33778 2.27471 4.28924C2.27471 3.19866 2.65246 2.26227 3.36702 1.58121C3.37343 1.57517 3.37993 1.56931 3.38634 1.56336C3.13109 1.60639 2.87438 1.68448 2.6206 1.79746C1.13196 2.46011 0.554992 3.96276 1.21765 5.45168C1.52948 6.15233 2.10442 6.74906 2.83675 7.13194Z" fill="#7985A1"/>
</g>
<defs>
<clipPath id="clip0_120_52870">
<rect width="12" height="12" fill="white" transform="translate(0 0.585938)"/>
</clipPath>
</defs>
</svg>
