<svg xmlns="http://www.w3.org/2000/svg" width="13" height="13" viewBox="0 0 13 13" fill="none">
    <path d="M2.41303 11.7934L2.62726 11.4931L2.41303 11.7934ZM1.76106 11.1533L2.05761 10.9339L1.76106 11.1533ZM11.2445 11.1533L10.948 10.9339L11.2445 11.1533ZM10.5925 11.7934L10.8068 12.0937L10.5925 11.7934ZM10.5925 2.4824L10.8068 2.18208L10.5925 2.4824ZM11.2445 3.12251L10.948 3.34195L10.948 3.34195L11.2445 3.12251ZM2.41303 2.4824L2.62726 2.78273L2.62726 2.78273L2.41303 2.4824ZM1.76106 3.12251L2.05761 3.34195L2.05761 3.34195L1.76106 3.12251ZM10.7569 8.90957L10.7002 8.54504L10.7002 8.54504L10.7569 8.90957ZM8.30725 11.3147L7.94305 11.256L7.94305 11.256L8.30725 11.3147ZM4.7346 7.34768C4.53086 7.34768 4.3657 7.51285 4.3657 7.71659C4.3657 7.92033 4.53086 8.0855 4.7346 8.0855V7.34768ZM8.27097 8.0855C8.47471 8.0855 8.63987 7.92033 8.63987 7.71659C8.63987 7.51285 8.47471 7.34768 8.27097 7.34768V8.0855ZM7.90206 2.50849C7.90206 2.71223 8.06722 2.8774 8.27097 2.8774C8.47471 2.8774 8.63987 2.71223 8.63987 2.50849H7.90206ZM8.63987 0.772461C8.63987 0.568719 8.47471 0.403554 8.27097 0.403554C8.06722 0.403554 7.90206 0.568719 7.90206 0.772461H8.63987ZM4.3657 2.50849C4.3657 2.71223 4.53086 2.8774 4.7346 2.8774C4.93835 2.8774 5.10351 2.71223 5.10351 2.50849H4.3657ZM5.10351 0.772461C5.10351 0.568719 4.93835 0.403554 4.7346 0.403554C4.53086 0.403554 4.3657 0.568719 4.3657 0.772461H5.10351ZM11.7903 8.87394L12.159 8.88681L11.7903 8.87394ZM1.21529 5.40188L0.84661 5.38901L1.21529 5.40188ZM11.7903 5.40188L12.159 5.38901L11.7903 5.40188ZM6.50278 11.9771C5.38968 11.9771 4.58395 11.9766 3.95865 11.9101C3.33986 11.8443 2.94151 11.7173 2.62726 11.4931L2.19879 12.0937C2.6592 12.4222 3.2007 12.5714 3.8806 12.6438C4.554 12.7154 5.40582 12.7149 6.50278 12.7149V11.9771ZM0.829336 7.13791C0.829336 8.21449 0.828811 9.0521 0.901914 9.71457C0.975824 10.3844 1.12862 10.9188 1.46452 11.3728L2.05761 10.9339C1.83068 10.6272 1.70207 10.2389 1.63528 9.63364C1.56767 9.02103 1.56715 8.23122 1.56715 7.13791H0.829336ZM2.62726 11.4931C2.4084 11.337 2.21622 11.1482 2.05761 10.9339L1.46452 11.3728C1.66944 11.6497 1.91728 11.8929 2.19879 12.0937L2.62726 11.4931ZM10.948 10.9339C10.7894 11.1482 10.5972 11.337 10.3783 11.4931L10.8068 12.0937C11.0883 11.8929 11.3361 11.6497 11.541 11.3728L10.948 10.9339ZM10.3783 2.78273C10.5972 2.93885 10.7894 3.12761 10.948 3.34195L11.541 2.90307C11.3361 2.62615 11.0883 2.38289 10.8068 2.18208L10.3783 2.78273ZM2.19879 2.18208C1.91728 2.38289 1.66944 2.62615 1.46452 2.90307L2.05761 3.34195C2.21622 3.12761 2.4084 2.93885 2.62726 2.78273L2.19879 2.18208ZM10.7002 8.54504C9.28516 8.76509 8.16883 9.85633 7.94305 11.256L8.67145 11.3735C8.8451 10.297 9.70672 9.44622 10.8136 9.27409L10.7002 8.54504ZM4.7346 8.0855H8.27097V7.34768H4.7346V8.0855ZM11.7903 8.50504C11.2673 8.50504 10.9621 8.50432 10.7002 8.54504L10.8136 9.27409C11.0051 9.24431 11.2408 9.24286 11.7903 9.24285L11.7903 8.50504ZM11.4384 7.13791C11.4384 7.81642 11.4384 8.38028 11.4216 8.86108L12.159 8.88681C12.1763 8.3904 12.1762 7.81226 12.1762 7.13791H11.4384ZM11.4216 8.86108C11.3841 9.93475 11.2625 10.5089 10.948 10.9339L11.541 11.3728C12.0013 10.7508 12.1211 9.97066 12.159 8.88681L11.4216 8.86108ZM8.63987 12.3293C8.63988 11.789 8.64142 11.5596 8.67145 11.3735L7.94305 11.256C7.90127 11.5149 7.90206 11.8166 7.90206 12.3293L8.63987 12.3293ZM6.50278 12.7149C7.18974 12.7149 7.77819 12.715 8.28337 12.698L8.25856 11.9606C7.76843 11.9771 7.19375 11.9771 6.50278 11.9771V12.7149ZM8.28337 12.698C9.38615 12.6609 10.1763 12.5435 10.8068 12.0937L10.3783 11.4931C9.94245 11.804 9.35326 11.9237 8.25856 11.9606L8.28337 12.698ZM1.56715 7.13791C1.56715 6.4594 1.5672 5.89555 1.58397 5.41475L0.84661 5.38901C0.829288 5.88542 0.829336 6.46356 0.829336 7.13791H1.56715ZM1.58397 5.41475C1.62144 4.34108 1.74311 3.76695 2.05761 3.34195L1.46452 2.90307C1.00427 3.52503 0.884432 4.30516 0.84661 5.38901L1.58397 5.41475ZM1.21529 5.77079H11.7903V5.03297H1.21529V5.77079ZM12.1762 7.13791C12.1762 6.46356 12.1763 5.88542 12.159 5.38901L11.4216 5.41475C11.4384 5.89555 11.4384 6.4594 11.4384 7.13791H12.1762ZM12.159 5.38901C12.1211 4.30516 12.0013 3.52503 11.541 2.90307L10.948 3.34195C11.2625 3.76695 11.3841 4.34108 11.4216 5.41475L12.159 5.38901ZM8.63987 2.50849V1.94656H7.90206V2.50849H8.63987ZM8.63987 1.94656V0.772461H7.90206V1.94656H8.63987ZM6.50278 2.29872C7.19375 2.29872 7.76843 2.29877 8.25856 2.31525L8.28337 1.57786C7.77819 1.56086 7.18974 1.56091 6.50278 1.56091V2.29872ZM8.25856 2.31525C9.35326 2.35208 9.94245 2.47182 10.3783 2.78273L10.8068 2.18208C10.1763 1.73234 9.38615 1.61495 8.28337 1.57786L8.25856 2.31525ZM5.10351 2.50849V1.94656H4.3657V2.50849H5.10351ZM5.10351 1.94656V0.772461H4.3657V1.94656H5.10351ZM6.50278 1.56091C5.81583 1.56091 5.22738 1.56086 4.7222 1.57786L4.74701 2.31525C5.23713 2.29877 5.81182 2.29872 6.50278 2.29872V1.56091ZM4.7222 1.57786C3.61942 1.61495 2.82927 1.73234 2.19879 2.18208L2.62726 2.78273C3.06312 2.47182 3.65231 2.35208 4.74701 2.31525L4.7222 1.57786Z" fill="#021231"/>
</svg>