<svg width="18" height="18" viewBox="0 0 18 18" fill="none" xmlns="http://www.w3.org/2000/svg">
<g id="calendar 1">
<g id="calendar">
<path id="Vector" d="M14.25 3H13.5V2.25C13.5 1.83582 13.1642 1.5 12.75 1.5C12.3358 1.5 12 1.83582 12 2.25V3H6V2.25C6 1.83582 5.66419 1.5 5.25 1.5C4.83582 1.5 4.5 1.83582 4.5 2.25V3H3.75C2.50928 3 1.5 4.00928 1.5 5.25V14.25C1.5 15.4907 2.50928 16.5 3.75 16.5H14.25C15.4907 16.5 16.5 15.4907 16.5 14.25V5.25C16.5 4.00928 15.4907 3 14.25 3ZM3.75 4.5H14.25C14.6635 4.5 15 4.83655 15 5.25V6H3V5.25C3 4.83655 3.33655 4.5 3.75 4.5ZM14.25 15H3.75C3.33655 15 3 14.6635 3 14.25V7.5H15V14.25C15 14.6635 14.6635 15 14.25 15ZM6 9.75C6 10.1642 5.66419 10.5 5.25 10.5C4.83582 10.5 4.5 10.1642 4.5 9.75C4.5 9.33582 4.83582 9 5.25 9C5.66419 9 6 9.33582 6 9.75ZM9.75 9.75C9.75 10.1642 9.41419 10.5 9 10.5C8.58582 10.5 8.25 10.1642 8.25 9.75C8.25 9.33582 8.58582 9 9 9C9.41419 9 9.75 9.33582 9.75 9.75ZM13.5 9.75C13.5 10.1642 13.1642 10.5 12.75 10.5C12.3358 10.5 12 10.1642 12 9.75C12 9.33582 12.3358 9 12.75 9C13.1642 9 13.5 9.33582 13.5 9.75ZM13.5 12.75C13.5 13.1642 13.1642 13.5 12.75 13.5C12.3358 13.5 12 13.1642 12 12.75C12 12.3358 12.3358 12 12.75 12C13.1642 12 13.5 12.3358 13.5 12.75ZM9.75 12.75C9.75 13.1642 9.41419 13.5 9 13.5C8.58582 13.5 8.25 13.1642 8.25 12.75C8.25 12.3358 8.58582 12 9 12C9.41419 12 9.75 12.3358 9.75 12.75ZM6 12.75C6 13.1642 5.66419 13.5 5.25 13.5C4.83582 13.5 4.5 13.1642 4.5 12.75C4.5 12.3358 4.83582 12 5.25 12C5.66419 12 6 12.3358 6 12.75Z" fill="#C7CDDB"/>
</g>
</g>
</svg>
