<svg width="20" height="20" viewBox="0 0 20 20" fill="none" xmlns="http://www.w3.org/2000/svg">
<path id="Vector" d="M18.1273 2.57118C15.6347 0.132523 11.5786 0.132523 9.08557 2.57118L1.33525 10.1533C-0.445181 11.8953 -0.445064 14.7297 1.33548 16.4716C2.22584 17.3426 3.39498 17.7781 4.56459 17.778C5.73389 17.7779 6.90366 17.3425 7.79385 16.4716L14.8981 9.52128C15.4157 9.01501 15.7007 8.34185 15.7008 7.62585C15.7008 6.90982 15.4159 6.2367 14.8982 5.73027C13.8298 4.68513 12.0913 4.68516 11.0231 5.73046L6.37721 10.2755C6.02053 10.6244 6.02053 11.1901 6.37713 11.5391C6.73377 11.8881 7.31209 11.888 7.66881 11.5391L12.3148 6.99408C12.6709 6.64567 13.2503 6.6456 13.6064 6.99401C13.7789 7.16276 13.874 7.38716 13.874 7.62582C13.874 7.86447 13.779 8.08879 13.6064 8.25763L6.50217 15.2079C5.43377 16.253 3.69549 16.2531 2.62717 15.208C1.55884 14.1627 1.55877 12.4621 2.62697 11.4169L10.3773 3.83484C12.158 2.09284 15.0552 2.09284 16.8356 3.83484C17.6982 4.67863 18.1733 5.80059 18.1733 6.99393C18.1733 8.18727 17.6982 9.30923 16.8356 10.1531L9.08546 17.7353C8.72881 18.0843 8.72881 18.65 9.08553 18.999C9.26389 19.1735 9.49764 19.2607 9.73135 19.2607C9.96511 19.2607 10.1989 19.1734 10.3772 18.999L18.1273 11.4168C19.3349 10.2354 20 8.66473 20 6.99397C20 5.32324 19.3349 3.75252 18.1273 2.57118Z" fill="#C7CDDB"/>
</svg>
