<svg width="12" height="13" viewBox="0 0 12 13" fill="none" xmlns="http://www.w3.org/2000/svg">
<g id="004-code">
<g id="Group">
<path id="Vector" d="M11.0625 8.46094V1.89844H0.9375V8.46094H0V8.92969C0 10.222 1.05141 11.2734 2.34375 11.2734H9.65625C10.9486 11.2734 12 10.222 12 8.92969V8.46094H11.0625ZM1.875 2.83594H10.125V8.46094H1.875V2.83594ZM9.65625 10.3359H2.34375C1.73262 10.3359 1.2113 9.94409 1.01782 9.39844H10.9822C10.7887 9.94409 10.2674 10.3359 9.65625 10.3359Z" fill="#7985A1"/>
<path id="Vector_2" d="M7.92467 4.09766L7.26172 4.76056L8.14904 5.64786L7.26172 6.53516L7.92467 7.19806L9.47485 5.64786L7.92467 4.09766Z" fill="#7985A1"/>
<path id="Vector_3" d="M4.07364 4.09766L2.52344 5.64786L4.07364 7.19806L4.73655 6.53516L3.84925 5.64786L4.73655 4.76056L4.07364 4.09766Z" fill="#7985A1"/>
<path id="Vector_4" d="M5.07812 7.41406L6.01742 3.66462L6.92679 3.89243L5.9875 7.64188L5.07812 7.41406Z" fill="#7985A1"/>
</g>
</g>
</svg>
