<svg width="14" height="14" viewBox="0 0 14 14" fill="none" xmlns="http://www.w3.org/2000/svg">
<path id="Vector" d="M2.74386 13.5H8.65607C9.79259 13.5 10.7245 12.6473 10.8702 11.55H11.2561C12.4933 11.55 13.5 10.5433 13.5 9.30614V2.74386C13.5 1.50672 12.4933 0.5 11.2561 0.5H5.34386C4.10672 0.5 3.1 1.50672 3.1 2.74386V3.1H2.74386C1.50672 3.1 0.5 4.10672 0.5 5.34386V11.2561C0.5 12.4933 1.50672 13.5 2.74386 13.5ZM4.4 2.74386C4.4 2.22341 4.82341 1.8 5.34386 1.8H11.2561C11.7766 1.8 12.2 2.22341 12.2 2.74386V9.30607C12.2 9.82659 11.7766 10.25 11.2561 10.25H10.9V5.34386C10.9 4.10672 9.89328 3.1 8.65613 3.1H4.4V2.74386ZM1.8 5.34386C1.8 4.82341 2.22341 4.4 2.74386 4.4H8.65607C9.17659 4.4 9.6 4.82341 9.6 5.34386V11.2561C9.6 11.7766 9.17659 12.2 8.65613 12.2H2.74386C2.22341 12.2 1.8 11.7766 1.8 11.2561V5.34386Z" fill="#848BA8"/>
</svg>
