<svg width="23" height="22" viewBox="0 0 23 22" fill="none" xmlns="http://www.w3.org/2000/svg">
<g id="human-resources 1" clip-path="url(#clip0_1849_71931)">
<path id="Vector" d="M22.5 13.3623V8.63773L20.6492 8.29465C20.4597 7.6523 20.2027 7.03227 19.8823 6.4438L20.9486 4.89223L17.6078 1.55157L16.0562 2.61774C15.4677 2.29732 14.8477 2.04034 14.2054 1.85085L13.8623 0H9.13789L8.79465 1.85085C8.1523 2.04034 7.53244 2.29732 6.9438 2.61774L5.39223 1.55157L2.05157 4.89223L3.1179 6.4438C2.79732 7.03244 2.54051 7.6523 2.35085 8.29465L0.5 8.63773V13.3623L2.35085 13.7054C2.54034 14.3477 2.79732 14.9676 3.11774 15.5562L2.05157 17.1078L5.39223 20.4484L6.9438 19.3821C7.53227 19.7027 8.1523 19.9597 8.79465 20.1492L9.13773 22H13.8623L14.2054 20.1492C14.8477 19.9597 15.4676 19.7027 16.0562 19.3823L17.6078 20.4484L20.9484 17.1078L19.8821 15.5562C20.2027 14.9677 20.4595 14.3477 20.6492 13.7054L22.5 13.3623ZM19.6077 12.5873L19.5078 12.9905C19.3102 13.7883 18.9945 14.55 18.5697 15.2544L18.3552 15.6101L19.279 16.9544L17.4544 18.7789L16.1101 17.855L15.7544 18.0697C15.05 18.4945 14.2884 18.8101 13.4905 19.0078L13.0875 19.1077L12.7902 20.7109H10.2098L9.91267 19.1077L9.50951 19.0078C8.71173 18.8102 7.95004 18.4945 7.24559 18.0697L6.88992 17.8552L5.54564 18.779L3.72098 16.9544L4.64481 15.6101L4.4303 15.2544C4.00548 14.55 3.68976 13.7883 3.4922 12.9905L3.39233 12.5875L1.78906 12.2901V9.70976L3.39233 9.41267L3.4922 9.00951C3.68976 8.21173 4.00548 7.45004 4.4303 6.74559L4.64481 6.38992L3.72098 5.04564L5.54564 3.22115L6.88992 4.14497L7.24559 3.9303C7.95004 3.50548 8.71156 3.18993 9.50951 2.9922L9.91267 2.89233L10.2099 1.28906H12.7902L13.0875 2.89233L13.4905 2.9922C14.2883 3.18976 15.05 3.50548 15.7544 3.9303L16.1101 4.14481L17.4544 3.22098L19.279 5.04564L18.3552 6.38992L18.5697 6.74559C18.9945 7.45004 19.3102 8.21156 19.5078 9.00951L19.6077 9.41267L21.2109 9.70993V12.2902L19.6077 12.5873Z" fill="#848BA8"/>
<path id="Vector_2" d="M11.5 4.8125C8.08818 4.8125 5.3125 7.58818 5.3125 11C5.3125 14.4118 8.08818 17.1875 11.5 17.1875C14.9118 17.1875 17.6875 14.4118 17.6875 11C17.6875 7.58818 14.9118 4.8125 11.5 4.8125ZM8.46198 14.8397C8.63771 13.9393 9.42642 13.2708 10.3734 13.2708H11.4966C11.4978 13.2708 11.499 13.271 11.5 13.271C11.501 13.271 11.5022 13.2708 11.5034 13.2708H12.6266C13.5736 13.2708 14.3623 13.9393 14.538 14.8397C13.7027 15.5022 12.6467 15.8984 11.5 15.8984C10.3533 15.8984 9.29735 15.5022 8.46198 14.8397ZM11.5034 11.9819H11.4966C10.6351 11.9801 9.93483 11.2786 9.93483 10.4167C9.93483 9.55367 10.6369 8.85156 11.5 8.85156C12.3631 8.85156 13.0652 9.55367 13.0652 10.4167C13.0652 11.2786 12.3649 11.9801 11.5034 11.9819ZM15.5297 13.7816C15.1641 13.0403 14.5246 12.4636 13.7431 12.1785C14.1253 11.6929 14.3542 11.0812 14.3542 10.4167C14.3542 8.843 13.0739 7.5625 11.5 7.5625C9.9261 7.5625 8.64577 8.843 8.64577 10.4167C8.64577 11.0812 8.87471 11.6929 9.2569 12.1785C8.4754 12.4636 7.83591 13.0403 7.47034 13.7816C6.92282 12.9908 6.60156 12.0323 6.60156 11C6.60156 8.29901 8.79901 6.10156 11.5 6.10156C14.201 6.10156 16.3984 8.29901 16.3984 11C16.3984 12.0323 16.0772 12.9908 15.5297 13.7816Z" fill="#848BA8"/>
</g>
<defs>
<clipPath id="clip0_1849_71931">
<rect width="22" height="22" fill="white" transform="translate(0.5)"/>
</clipPath>
</defs>
</svg>
