<svg width="35" height="35" viewBox="0 0 35 35" fill="none" xmlns="http://www.w3.org/2000/svg">
<g id="file 1">
<g id="Group">
<path id="Vector" d="M20.4874 6.29688H11.375C9.92757 6.29688 8.75 7.47445 8.75 8.92188V26.0719C8.75 27.5193 9.92757 28.6969 11.375 28.6969H23.625C25.0724 28.6969 26.25 27.5193 26.25 26.0719V12.0595L20.4874 6.29688ZM21 9.2843L23.2626 11.5469H21.875C21.3925 11.5469 21 11.1543 21 10.6719V9.2843ZM23.625 26.9469H11.375C10.8925 26.9469 10.5 26.5543 10.5 26.0719V8.92188C10.5 8.4394 10.8925 8.04688 11.375 8.04688H19.25V10.6719C19.25 12.1193 20.4276 13.2969 21.875 13.2969H24.5V26.0719C24.5 26.5543 24.1075 26.9469 23.625 26.9469Z" fill="#848BA8"/>
<path id="Vector_2" d="M12.25 14.875H17.5V16.625H12.25V14.875Z" fill="#848BA8"/>
<path id="Vector_3" d="M12.25 18.375H22.75V20.125H12.25V18.375Z" fill="#848BA8"/>
<path id="Vector_4" d="M12.25 21.875H22.75V23.625H12.25V21.875Z" fill="#848BA8"/>
</g>
</g>
</svg>
