<svg width="15" height="15" viewBox="0 0 15 15" fill="none" xmlns="http://www.w3.org/2000/svg">
<g id="attention 1">
<g id="Group">
<path id="Vector" fill-rule="evenodd" clip-rule="evenodd" d="M6.75 2.35C4.31995 2.35 2.35 4.31995 2.35 6.75C2.35 9.18007 4.31995 11.15 6.75 11.15C9.18007 11.15 11.15 9.18007 11.15 6.75C11.15 4.31995 9.18007 2.35 6.75 2.35ZM1.25 6.75C1.25 3.71243 3.71243 1.25 6.75 1.25C9.78754 1.25 12.25 3.71243 12.25 6.75C12.25 9.78754 9.78754 12.25 6.75 12.25C3.71243 12.25 1.25 9.78754 1.25 6.75Z" fill="#F12D50"/>
<path id="Vector_2" fill-rule="evenodd" clip-rule="evenodd" d="M5.92578 8.95C5.92578 8.49432 6.29516 8.125 6.75078 8.125H6.75628C7.2119 8.125 7.58128 8.49432 7.58128 8.95V8.9555C7.58128 9.41112 7.2119 9.7805 6.75628 9.7805H6.75078C6.29516 9.7805 5.92578 9.41112 5.92578 8.9555V8.95Z" fill="#F12D50"/>
<path id="Vector_3" fill-rule="evenodd" clip-rule="evenodd" d="M6.74922 7.30002C6.44545 7.30002 6.19922 7.05373 6.19922 6.75002V4.55C6.19922 4.24625 6.44545 4 6.74922 4C7.05298 4 7.29922 4.24625 7.29922 4.55V6.75002C7.29922 7.05373 7.05298 7.30002 6.74922 7.30002Z" fill="#F12D50"/>
</g>
</g>
</svg>
