<svg width="12" height="13" viewBox="0 0 12 13" fill="none" xmlns="http://www.w3.org/2000/svg">
<path id="Vector" d="M7.80007 7.78594V9.58594C7.80007 9.91729 7.53171 10.1859 7.20007 10.1859C6.86843 10.1859 6.60007 9.91729 6.60007 9.58594V7.78594C6.60007 7.45459 6.86843 7.18594 7.20007 7.18594C7.53171 7.18594 7.80007 7.45459 7.80007 7.78594ZM7.20007 5.38594C6.86843 5.38594 6.60007 5.65459 6.60007 5.98594C6.60007 6.31729 6.86843 6.58594 7.20007 6.58594C7.53171 6.58594 7.80007 6.31729 7.80007 5.98594C7.80007 5.65459 7.53171 5.38594 7.20007 5.38594ZM11.9714 12.169C11.8917 12.4175 11.6608 12.5859 11.4001 12.5859H7.20007C4.96824 12.5859 3.09294 11.0528 2.55798 8.98594H0.600074C0.335816 8.98594 0.10232 8.81279 0.0258547 8.55967C-0.0509031 8.30684 0.0472414 8.0335 0.267261 7.88672L0.944019 7.43555C0.337281 6.69199 7.35e-05 5.75977 7.35e-05 4.78594C7.35e-05 2.47002 1.88416 0.585938 4.20007 0.585938C5.86062 0.585938 7.34187 1.56973 8.01511 3.06035C10.2739 3.44941 12.0001 5.41758 12.0001 7.78594C12.0001 8.92119 11.5958 10.0116 10.8721 10.8715L11.7487 11.4976C11.9608 11.6493 12.051 11.9206 11.9714 12.169ZM2.2656 7.07607C2.33591 7.13555 2.38923 7.20996 2.42556 7.29199C2.65408 5.0666 4.41013 3.29033 6.6241 3.02402C6.07039 2.26172 5.17742 1.78594 4.20007 1.78594C2.54597 1.78594 1.20007 3.13184 1.20007 4.78594C1.20007 5.66807 1.58855 6.50273 2.2656 7.07607ZM10.8001 7.78594C10.8001 5.80078 9.18523 4.18594 7.20007 4.18594C5.21492 4.18594 3.60007 5.80078 3.60007 7.78594C3.60007 9.77109 5.21492 11.3859 7.20007 11.3859H9.53855C9.42839 11.2805 9.3616 11.136 9.35398 10.9813C9.34519 10.7979 9.42078 10.6207 9.55964 10.5C10.3477 9.81387 10.8001 8.82451 10.8001 7.78594Z" fill="#7985A1"/>
</svg>
