<svg width="12" height="13" viewBox="0 0 12 13" fill="none" xmlns="http://www.w3.org/2000/svg">
<g id="film 1">
<g id="movie">
<path id="Vector" d="M9.5 1.58594H2.5C1.67285 1.58594 1 2.25879 1 3.08594V10.0859C1 10.9131 1.67285 11.5859 2.5 11.5859H9.5C10.3271 11.5859 11 10.9131 11 10.0859V3.08594C11 2.25879 10.3271 1.58594 9.5 1.58594ZM3 6.08594H2V4.83594H3V6.08594ZM2 7.08594H3V8.33594H2V7.08594ZM4 2.58594H8V10.5859H4V2.58594ZM9 4.83594H10V6.08594H9V4.83594ZM9 7.08594H10V8.33594H9V7.08594ZM10 3.08594V3.83594H9V2.58594H9.5C9.77588 2.58594 10 2.81006 10 3.08594ZM2.5 2.58594H3V3.83594H2V3.08594C2 2.81006 2.22412 2.58594 2.5 2.58594ZM2 10.0859V9.33594H3V10.5859H2.5C2.22412 10.5859 2 10.3618 2 10.0859ZM9.5 10.5859H9V9.33594H10V10.0859C10 10.3618 9.77588 10.5859 9.5 10.5859Z" fill="#7985A1"/>
</g>
</g>
</svg>
