<svg width="14" height="13" viewBox="0 0 14 13" fill="none" xmlns="http://www.w3.org/2000/svg">
<g id="Filter 1">
<path id="Vector" d="M7 11.4141C7.41421 11.4141 7.75 11.0783 7.75 10.6641C7.75 10.2498 7.41421 9.91406 7 9.91406V11.4141ZM1 9.91406C0.585787 9.91406 0.25 10.2498 0.25 10.6641C0.25 11.0783 0.585786 11.4141 1 11.4141L1 9.91406ZM7 2.41406C6.58579 2.41406 6.25 2.74985 6.25 3.16406C6.25 3.57828 6.58579 3.91406 7 3.91406V2.41406ZM13 3.91406C13.4142 3.91406 13.75 3.57828 13.75 3.16406C13.75 2.74985 13.4142 2.41406 13 2.41406V3.91406ZM7 9.91406L1 9.91406L1 11.4141L7 11.4141V9.91406ZM7 3.91406L13 3.91406V2.41406L7 2.41406V3.91406ZM0.25 3.16406C0.25 4.4067 1.25736 5.41406 2.5 5.41406V3.91406C2.08579 3.91406 1.75 3.57828 1.75 3.16406H0.25ZM2.5 5.41406C3.74264 5.41406 4.75 4.4067 4.75 3.16406H3.25C3.25 3.57828 2.91421 3.91406 2.5 3.91406V5.41406ZM4.75 3.16406C4.75 1.92142 3.74264 0.914062 2.5 0.914062V2.41406C2.91421 2.41406 3.25 2.74985 3.25 3.16406H4.75ZM2.5 0.914062C1.25736 0.914062 0.25 1.92142 0.25 3.16406H1.75C1.75 2.74985 2.08579 2.41406 2.5 2.41406V0.914062ZM13.75 10.6641C13.75 9.42142 12.7426 8.41406 11.5 8.41406V9.91406C11.9142 9.91406 12.25 10.2498 12.25 10.6641H13.75ZM11.5 8.41406C10.2574 8.41406 9.25 9.42142 9.25 10.6641H10.75C10.75 10.2498 11.0858 9.91406 11.5 9.91406V8.41406ZM9.25 10.6641C9.25 11.9067 10.2574 12.9141 11.5 12.9141V11.4141C11.0858 11.4141 10.75 11.0783 10.75 10.6641H9.25ZM11.5 12.9141C12.7426 12.9141 13.75 11.9067 13.75 10.6641H12.25C12.25 11.0783 11.9142 11.4141 11.5 11.4141V12.9141Z" fill="#C7CDDB"/>
</g>
</svg>
