<svg width="12" height="13" viewBox="0 0 12 13" fill="none" xmlns="http://www.w3.org/2000/svg">
<g clip-path="url(#clip0_2107_72632)">
<path d="M5.53125 3.3125H4.59375V0.5H3.65625V3.3125H2.71875V0.5H1.78125V4.71875C1.78125 5.49416 2.41209 6.125 3.1875 6.125H3.65625V12.5H4.59375V6.125H5.0625C5.83791 6.125 6.46875 5.49416 6.46875 4.71875V0.5H5.53125V3.3125ZM5.53125 4.71875C5.53125 4.97722 5.32097 5.1875 5.0625 5.1875H3.1875C2.92903 5.1875 2.71875 4.97722 2.71875 4.71875V4.25H5.53125V4.71875ZM9.75 0.5C8.45763 0.5 7.40625 1.55141 7.40625 2.84375V8H9.28125V12.5H10.2188V0.5H9.75ZM9.28125 7.0625H8.34375V2.84375C8.34375 2.23262 8.7356 1.7113 9.28125 1.51782V7.0625Z" fill="white"/>
</g>
<defs>
<clipPath id="clip0_2107_72632">
<rect width="12" height="12" fill="white" transform="translate(0 0.5)"/>
</clipPath>
</defs>
</svg>
