<svg width="12" height="13" viewBox="0 0 12 13" fill="none" xmlns="http://www.w3.org/2000/svg">
<g id="009-football" clip-path="url(#clip0_120_52877)">
<path id="Vector" d="M11.6191 6.57812C11.6191 5.07568 11.034 3.66304 9.9716 2.60066C8.90923 1.53822 7.49659 0.953125 5.99414 0.953125C4.49169 0.953125 3.07906 1.53822 2.01668 2.60066C0.954231 3.66304 0.369141 5.07568 0.369141 6.57812C0.369141 8.08057 0.954231 9.49321 2.01668 10.5556C2.66123 11.2002 3.43474 11.6686 4.27897 11.9377L4.28329 11.9501L4.29977 11.9443C4.84085 12.1145 5.41063 12.2031 5.99414 12.2031C6.57683 12.2031 7.14578 12.1147 7.68631 11.945L7.70451 11.9515L7.70938 11.9377C8.55354 11.6686 9.32705 11.2001 9.9716 10.5556C11.034 9.49321 11.6191 8.08057 11.6191 6.57812ZM10.3268 4.64144C10.5204 5.07286 10.6511 5.5382 10.7079 6.02579L10.0137 5.47208L10.3268 4.64144ZM6.71272 1.88634L5.99414 2.40916L5.27557 1.88634C5.50999 1.85064 5.74997 1.83203 5.99414 1.83203C6.23831 1.83203 6.47829 1.85064 6.71272 1.88634ZM1.97459 5.47208L1.28039 6.02579C1.33717 5.5382 1.46791 5.07286 1.66148 4.64144L1.97459 5.47208ZM2.78442 10.071L3.62693 10.0704L3.89328 10.8331C3.48754 10.6319 3.11442 10.3745 2.78442 10.071ZM4.95559 11.2095L4.25082 9.19109L2.03508 9.1926C1.63744 8.5924 1.37247 7.8969 1.28238 7.14838L3.02248 5.7604L2.23833 3.67993C2.74487 3.02515 3.4184 2.50604 4.19451 2.18675L5.99414 3.49612L7.79377 2.18675C8.56989 2.50604 9.24342 3.02515 9.74995 3.67993L8.96567 5.7604L10.7058 7.14838C10.6146 7.90617 10.3444 8.60957 9.93851 9.21484H7.73849L7.03448 11.209C6.6996 11.2843 6.35147 11.3242 5.99414 11.3242C5.6375 11.3242 5.28999 11.2844 4.95559 11.2095ZM8.36032 10.0938H9.17915C8.8567 10.3862 8.4938 10.6348 8.10022 10.8305L8.36032 10.0938ZM8.35627 5.8636L5.99414 4.145L3.63201 5.8636L4.53399 8.64355H7.45429L8.35627 5.8636ZM6.81544 7.76465H5.17284L4.66486 6.19903L5.99414 5.23196L7.32342 6.19903L6.81544 7.76465Z" fill="#7985A1"/>
</g>
<defs>
<clipPath id="clip0_120_52877">
<rect width="12" height="12" fill="white" transform="translate(0 0.585938)"/>
</clipPath>
</defs>
</svg>
