<svg width="12" height="13" viewBox="0 0 12 13" fill="none" xmlns="http://www.w3.org/2000/svg">
<g id="check-mark 1" clip-path="url(#clip0_272_40495)">
<g id="verified">
<path id="Vector" d="M6 12.5977C5.53711 12.5977 5.10293 12.4181 4.77715 12.0919C4.46602 11.7803 4.13789 11.4975 3.97676 11.3661C3.80449 11.3567 3.45732 11.3456 2.97773 11.3456C2.025 11.3456 1.2501 10.5693 1.2501 9.61467C1.2501 9.17403 1.21816 8.74278 1.19678 8.53624C1.08223 8.40775 0.844629 8.15428 0.504785 7.81397C0.17959 7.48774 0 7.05297 0 6.58944C0 6.12592 0.17959 5.69114 0.505078 5.36492C0.817383 5.0516 1.09922 4.7242 1.2293 4.56343C1.23926 4.39152 1.2501 4.04417 1.2501 3.56363C1.2501 2.609 2.02559 1.83274 2.97861 1.83274C3.42041 1.83274 3.8502 1.80106 4.05586 1.77994C4.18447 1.66494 4.43789 1.42672 4.77686 1.087C5.429 0.434543 6.57129 0.434543 7.22285 1.087C7.53457 1.39914 7.86152 1.68136 8.02207 1.81221C8.19434 1.8216 8.5418 1.83274 9.02109 1.83274C9.97441 1.83274 10.7502 2.60959 10.7502 3.56421C10.7502 4.00427 10.7818 4.43552 10.8029 4.64323C10.9178 4.77172 11.1557 5.02519 11.4949 5.36492C11.8207 5.69114 12 6.12592 12 6.58944C12 7.05297 11.8207 7.48774 11.4949 7.81397C11.1826 8.1267 10.9014 8.45351 10.7707 8.61428C10.7613 8.78678 10.7502 9.13413 10.7502 9.61467C10.7502 10.5693 9.975 11.3456 9.02227 11.3456C8.58105 11.3456 8.15039 11.3778 7.94473 11.3989C7.81641 11.5134 7.5627 11.7516 7.22285 12.0919C6.89707 12.4181 6.46289 12.5977 6 12.5977ZM6 1.78287C5.85762 1.78287 5.72461 1.83744 5.62559 1.9366C4.74082 2.82316 4.62129 2.87069 4.5252 2.90882C4.26709 3.0115 3.16992 3.03439 2.97861 3.03439C2.68711 3.03439 2.4501 3.27202 2.4501 3.56363C2.4501 4.81807 2.39912 4.93542 2.35811 5.03047C2.25176 5.28101 1.48945 6.07839 1.35381 6.21452C1.25449 6.31367 1.2 6.44686 1.2 6.58944C1.2 6.73202 1.25449 6.86521 1.35352 6.96437C2.24092 7.85328 2.28574 7.96828 2.32529 8.0692C2.42051 8.31387 2.4501 9.34477 2.4501 9.61467C2.4501 9.90628 2.68682 10.1439 2.97773 10.1439C4.22549 10.1439 4.34297 10.1938 4.4373 10.2331C4.7001 10.3475 5.49082 11.1073 5.62588 11.2423C5.82334 11.4406 6.17637 11.4406 6.37441 11.2423C7.26094 10.3546 7.38105 10.307 7.47773 10.2689C7.7332 10.1674 8.83125 10.1439 9.02227 10.1439C9.31348 10.1439 9.5502 9.90628 9.5502 9.61467C9.5502 8.36433 9.6 8.24639 9.63984 8.15193C9.74766 7.89728 10.5105 7.10049 10.6465 6.96437C10.7455 6.86521 10.8 6.73202 10.8 6.58944C10.8 6.44686 10.7455 6.31367 10.6465 6.21452C9.76055 5.32736 9.71309 5.20826 9.67559 5.1132C9.57949 4.86267 9.5502 3.83353 9.5502 3.56421C9.5502 3.27202 9.31289 3.03439 9.02109 3.03439C7.77246 3.03439 7.65469 2.98451 7.56035 2.94461C7.30371 2.83431 6.50977 2.07213 6.37441 1.9366C6.27539 1.83744 6.14238 1.78287 6 1.78287ZM5.52422 8.51629L8.52422 5.51219C8.75859 5.27749 8.75859 4.89728 8.52422 4.66259C8.28984 4.42789 7.91016 4.42789 7.67578 4.66259L5.1 7.2419L4.32422 6.46505C4.08984 6.23036 3.71016 6.23036 3.47578 6.46505C3.24141 6.69975 3.24141 7.07996 3.47578 7.31465L4.67578 8.51629C4.79297 8.63364 4.94648 8.69232 5.1 8.69232C5.25352 8.69232 5.40703 8.63364 5.52422 8.51629Z" fill="#7985A1"/>
</g>
</g>
<defs>
<clipPath id="clip0_272_40495">
<rect width="12" height="12" fill="white" transform="translate(0 0.597656)"/>
</clipPath>
</defs>
</svg>
