<svg width="12" height="13" viewBox="0 0 12 13" fill="none" xmlns="http://www.w3.org/2000/svg">
<g id="003-heartbeat">
<g id="Group">
<path id="Vector" d="M12 5.8573H8.57812L7.62752 4.58984L6 6.91489L4.37248 4.58984L3.42188 5.8573H0V6.7948H1.29113C2.48133 9.28655 5.65092 10.8943 5.79037 10.964L6 11.0689L6.20963 10.964C6.34908 10.8943 9.51867 9.28653 10.7089 6.7948H12V5.8573ZM5.99974 10.013C5.34912 9.65199 3.35142 8.44948 2.35472 6.7948H3.89062L4.34627 6.18725L6 8.5497L7.65373 6.18725L8.10938 6.7948H9.645C8.64886 8.4463 6.65004 9.65141 5.99974 10.013Z" fill="#7985A1"/>
<path id="Vector_2" d="M3.65625 3.04297C4.46398 3.04297 5.25155 3.54678 5.57152 4.26814L6.00002 5.23428L6.42848 4.26812C6.74841 3.54676 7.536 3.04297 8.34375 3.04297C9.37762 3.04297 10.2188 3.88409 10.2188 4.91797H11.1562C11.1562 3.36716 9.89456 2.10547 8.34375 2.10547C7.76611 2.10547 7.19416 2.2775 6.68977 2.60293C6.42586 2.77318 6.19397 2.97655 6 3.20614C5.80605 2.97657 5.57412 2.77318 5.31023 2.60293C4.80584 2.27748 4.23389 2.10547 3.65625 2.10547C2.10544 2.10547 0.84375 3.36716 0.84375 4.91797H1.78125C1.78125 3.88409 2.62238 3.04297 3.65625 3.04297Z" fill="#7985A1"/>
</g>
</g>
</svg>
