<svg width="12" height="13" viewBox="0 0 12 13" fill="none" xmlns="http://www.w3.org/2000/svg">
<g id="rocking-horse 1" clip-path="url(#clip0_120_52788)">
<g id="Group">
<path id="Vector" d="M10.7179 5.08594H12V3.66562C12 3.10209 11.6653 2.59453 11.1472 2.3726C10.6728 2.16938 10.3076 1.72491 10.2094 1.52135C10.1768 1.42158 10.1589 1.38987 10.1503 1.31248C10.1427 1.25707 10.125 1.17956 10.125 1.05469V0.585938H8.71875C7.42638 0.585938 6.375 1.63734 6.375 2.92969V4.14844C5.87906 4.14844 3.66009 4.14844 3.16875 4.14844C3.02529 4.14844 2.8853 4.1703 2.75259 4.21148C2.57801 3.63328 2.04063 3.21094 1.40625 3.21094C0.630844 3.21094 0 3.84178 0 4.61719V5.55469H0.9375V4.61719C0.9375 4.35872 1.14778 4.14844 1.40625 4.14844C1.66472 4.14844 1.875 4.35872 1.875 4.61719V5.00756C1.82081 5.13356 1.78638 5.26444 1.77448 5.39243L1.13864 10.4956C0.964359 10.4217 0.808148 10.3523 0.667711 10.2865L0.269766 11.1354C0.48443 11.236 0.731461 11.3435 1.01834 11.4611L1.3635 11.5998C1.59002 11.6848 3.61509 12.5859 6 12.5859C8.29043 12.5859 10.222 11.7564 10.4353 11.6757C10.6846 11.5815 10.6005 11.6135 10.9827 11.4699L10.9816 11.4611C11.2685 11.3435 11.5155 11.236 11.7302 11.1354L11.3323 10.2865C11.1918 10.3523 11.0356 10.4217 10.8613 10.4956L10.2527 5.61267C10.2361 5.47936 10.2776 5.34513 10.3665 5.24442C10.4554 5.14371 10.5835 5.08594 10.7179 5.08594ZM6.375 5.08594V5.55469C6.375 5.81316 6.16472 6.02344 5.90625 6.02344H5.0625C4.80403 6.02344 4.59375 5.81316 4.59375 5.55469V5.08594H6.375ZM3.76479 11.3826C3.90722 10.8486 4.17989 10.2773 4.52095 9.81502C4.7907 9.44934 5.34157 8.83594 6 8.83594C6.65843 8.83594 7.2093 9.44934 7.47905 9.81499C7.82009 10.2773 8.09278 10.8486 8.23521 11.3826C7.44459 11.5589 6.69436 11.6484 6 11.6484C5.30564 11.6484 4.55541 11.5589 3.76479 11.3826ZM9.32241 5.72862L9.96108 10.8527C9.70008 10.9509 9.43144 11.0498 9.14147 11.1416C8.96892 10.4929 8.64645 9.8182 8.23348 9.25845C7.58644 8.38141 6.79327 7.89844 6 7.89844C5.20673 7.89844 4.41356 8.38141 3.76652 9.25842C3.35355 9.8182 3.03108 10.4929 2.85853 11.1416C2.56856 11.0498 2.29992 10.9509 2.0389 10.8526C2.04084 10.8371 1.99502 11.2049 2.70776 5.48114C2.71357 5.41132 2.75665 5.33627 2.7577 5.33393C2.84023 5.17866 2.99386 5.08594 3.16875 5.08594H3.65625V5.55469C3.65625 6.33009 4.28709 6.96094 5.0625 6.96094H5.90625C6.68166 6.96094 7.3125 6.33009 7.3125 5.55469V2.92969C7.3125 2.15428 7.94334 1.52344 8.71875 1.52344H9.23454C9.24415 1.57472 9.25657 1.62516 9.27192 1.67534L9.29229 1.74445C9.4362 2.21653 10.0451 2.92038 10.778 3.23433C10.9508 3.30837 11.0625 3.47766 11.0625 3.66562V4.14844H10.7179C10.3148 4.14844 9.93059 4.32171 9.66377 4.62384C9.39699 4.92598 9.27256 5.32866 9.32241 5.72862Z" fill="#7985A1"/>
</g>
</g>
<defs>
<clipPath id="clip0_120_52788">
<rect width="12" height="12" fill="white" transform="translate(0 0.585938)"/>
</clipPath>
</defs>
</svg>
