<svg width="12" height="13" viewBox="0 0 12 13" fill="none" xmlns="http://www.w3.org/2000/svg">
<g id="002-idea" clip-path="url(#clip0_120_52796)">
<g id="Group">
<path id="Vector" d="M5.53125 0.585938H6.46875V1.52344H5.53125V0.585938Z" fill="#7985A1"/>
<path id="Vector_2" d="M0 6.11719H0.9375V7.05469H0V6.11719Z" fill="#7985A1"/>
<path id="Vector_3" d="M11.0625 6.11719H12V7.05469H11.0625V6.11719Z" fill="#7985A1"/>
<path id="Vector_4" d="M9.3125 2.60938L9.97531 1.94656L10.6381 2.60939L9.97533 3.2722L9.3125 2.60938Z" fill="#7985A1"/>
<path id="Vector_5" d="M1.35938 2.60938L2.0222 1.94655L2.68502 2.60936L2.02219 3.27219L1.35938 2.60938Z" fill="#7985A1"/>
<path id="Vector_6" d="M6 6.49219C5.74153 6.49219 5.53125 6.28191 5.53125 6.02344H4.59375C4.59375 6.63452 4.98567 7.15556 5.53125 7.34906V8.83594H6.46875V7.34906C7.01433 7.15556 7.40625 6.63452 7.40625 6.02344H6.46875C6.46875 6.28191 6.25847 6.49219 6 6.49219Z" fill="#7985A1"/>
<path id="Vector_7" d="M6.46875 2.27344H5.53125C3.46348 2.27344 1.78125 3.95569 1.78125 6.02344C1.78125 7.38042 2.50929 8.60899 3.65625 9.27173V11.1797C3.65625 11.9551 4.28709 12.5859 5.0625 12.5859H6.9375C7.71291 12.5859 8.34375 11.9551 8.34375 11.1797V9.27173C9.48987 8.60946 10.2188 7.38143 10.2188 6.02344C10.2188 3.95569 8.53652 2.27344 6.46875 2.27344ZM7.40625 11.1797C7.40625 11.4382 7.19597 11.6484 6.9375 11.6484H5.0625C4.80403 11.6484 4.59375 11.4382 4.59375 11.1797V10.7109H7.40625V11.1797ZM7.67386 8.56552L7.40625 8.69264V9.77344H4.59375V8.69264L4.32614 8.56552C3.34969 8.10166 2.71875 7.10384 2.71875 6.02344C2.71875 4.47263 3.98044 3.21094 5.53125 3.21094H6.46875C8.01956 3.21094 9.28125 4.47263 9.28125 6.02344C9.28125 7.10384 8.65031 8.10166 7.67386 8.56552Z" fill="#7985A1"/>
</g>
</g>
<defs>
<clipPath id="clip0_120_52796">
<rect width="12" height="12" fill="white" transform="translate(0 0.585938)"/>
</clipPath>
</defs>
</svg>
