<svg width="12" height="13" viewBox="0 0 12 13" fill="none" xmlns="http://www.w3.org/2000/svg">
<g id="image 1">
<g id="picture">
<path id="Vector" d="M9.5 1.58594H2.5C1.67285 1.58594 1 2.25879 1 3.08594V10.0859C1 10.9131 1.67285 11.5859 2.5 11.5859H9.5C10.3271 11.5859 11 10.9131 11 10.0859V3.08594C11 2.25879 10.3271 1.58594 9.5 1.58594ZM2.5 2.58594H9.5C9.77563 2.58594 10 2.81006 10 3.08594V6.77686L8.61792 7.46777C8.08911 7.73242 7.28833 7.57031 6.90356 7.12207L5.85571 5.89893C5.49951 5.48389 5.01807 5.25488 4.5 5.25488C3.98193 5.25488 3.50049 5.48389 3.14429 5.89941L2 7.23438V3.08594C2 2.81006 2.22437 2.58594 2.5 2.58594ZM9.5 10.5859H2.5C2.22437 10.5859 2 10.3618 2 10.0859V8.77051L3.90356 6.55029C4.22974 6.16943 4.77026 6.16992 5.09644 6.5498L6.14429 7.77295C6.83472 8.57764 8.11792 8.83643 9.06519 8.3623L10 7.89502V10.0859C10 10.3618 9.77563 10.5859 9.5 10.5859ZM8 6.08594C8.82715 6.08594 9.5 5.41309 9.5 4.58594C9.5 3.75879 8.82715 3.08594 8 3.08594C7.17285 3.08594 6.5 3.75879 6.5 4.58594C6.5 5.41309 7.17285 6.08594 8 6.08594ZM8 4.08594C8.27563 4.08594 8.5 4.31006 8.5 4.58594C8.5 4.86182 8.27563 5.08594 8 5.08594C7.72437 5.08594 7.5 4.86182 7.5 4.58594C7.5 4.31006 7.72437 4.08594 8 4.08594Z" fill="#7985A1"/>
</g>
</g>
</svg>
