<svg xmlns="http://www.w3.org/2000/svg" width="11" height="14" viewBox="0 0 11 14" fill="none">
    <path d="M7.17725 11.5155L6.89727 11.2753L6.89727 11.2753L7.17725 11.5155ZM3.82479 11.5155L3.54481 11.7557L3.82479 11.5155ZM5.50102 12.7855L5.50102 12.4166L5.50102 12.7855ZM9.95443 5.95511C9.95443 6.63398 9.5671 7.54185 8.9587 8.52501C8.36044 9.4918 7.58757 10.4706 6.89727 11.2753L7.45724 11.7557C8.15923 10.9374 8.9594 9.926 9.5861 8.91326C10.2027 7.9169 10.6922 6.85602 10.6922 5.95511L9.95443 5.95511ZM4.10478 11.2753C3.41448 10.4706 2.64161 9.4918 2.04334 8.52501C1.43494 7.54185 1.04762 6.63398 1.04762 5.95511L0.309804 5.95511C0.309804 6.85602 0.799373 7.9169 1.41594 8.91326C2.04264 9.926 2.84281 10.9374 3.54481 11.7557L4.10478 11.2753ZM1.04762 5.95511C1.04762 3.54499 3.0357 1.58082 5.50102 1.58082L5.50102 0.843008C2.63977 0.843008 0.309804 3.12605 0.309804 5.95511L1.04762 5.95511ZM5.50102 1.58082C7.96635 1.58082 9.95443 3.54499 9.95443 5.95511L10.6922 5.95511C10.6922 3.12605 8.36228 0.843008 5.50102 0.843008L5.50102 1.58082ZM6.89727 11.2753C6.52572 11.7083 6.27635 11.9971 6.05108 12.1841C5.84277 12.3571 5.68584 12.4166 5.50102 12.4166L5.50102 13.1544C5.90286 13.1544 6.22085 13.0022 6.5224 12.7518C6.80698 12.5155 7.1024 12.1693 7.45724 11.7557L6.89727 11.2753ZM3.54481 11.7557C3.89965 12.1693 4.19506 12.5155 4.47965 12.7518C4.7812 13.0022 5.09919 13.1544 5.50102 13.1544L5.50102 12.4166C5.3162 12.4166 5.15927 12.3571 4.95096 12.1841C4.72569 11.9971 4.47632 11.7083 4.10478 11.2753L3.54481 11.7557ZM3.32375 6.17071C3.32375 7.31785 4.33045 8.19255 5.50102 8.19255L5.50102 7.45474C4.67412 7.45474 4.06156 6.84936 4.06156 6.17071L3.32375 6.17071ZM5.50102 8.19255C6.67159 8.19255 7.6783 7.31785 7.6783 6.17071L6.94048 6.17071C6.94048 6.84936 6.32792 7.45474 5.50102 7.45474L5.50102 8.19255ZM7.6783 6.17071C7.6783 5.02358 6.67159 4.14887 5.50102 4.14887L5.50102 4.88669C6.32792 4.88669 6.94048 5.49207 6.94048 6.17071L7.6783 6.17071ZM5.50102 4.14887C4.33045 4.14887 3.32375 5.02358 3.32375 6.17071L4.06156 6.17071C4.06156 5.49207 4.67412 4.88669 5.50102 4.88669L5.50102 4.14887Z" fill="#021231"/>
</svg>