<svg width="12" height="15" viewBox="0 0 12 15" fill="none" xmlns="http://www.w3.org/2000/svg">
<g id="Location">
<path id="Vector" d="M7.738 12.1832L7.16878 11.6949L7.738 12.1832ZM4.262 12.1832L3.69279 12.6716L4.262 12.1832ZM6 13.5V12.75V13.5ZM10.25 6.41797C10.25 7.01125 9.89933 7.87637 9.27258 8.88918C8.66644 9.8687 7.87869 10.8674 7.16878 11.6949L8.30721 12.6716C9.0409 11.8164 9.88415 10.7514 10.5481 9.6785C11.1915 8.63885 11.75 7.46268 11.75 6.41797H10.25ZM4.83122 11.6949C4.12131 10.8674 3.33356 9.8687 2.72742 8.88918C2.10067 7.87637 1.75 7.01125 1.75 6.41797H0.25C0.25 7.46268 0.808534 8.63885 1.45189 9.6785C2.11585 10.7514 2.9591 11.8164 3.69279 12.6716L4.83122 11.6949ZM1.75 6.41797C1.75 4.12771 3.64105 2.25 6 2.25V0.75C2.83611 0.75 0.25 3.27599 0.25 6.41797H1.75ZM6 2.25C8.35895 2.25 10.25 4.12771 10.25 6.41797H11.75C11.75 3.27599 9.16389 0.75 6 0.75V2.25ZM7.16878 11.6949C6.77522 12.1536 6.53959 12.4244 6.33556 12.5938C6.16603 12.7345 6.08353 12.75 6 12.75V14.25C6.52474 14.25 6.93467 14.046 7.29377 13.7478C7.61838 13.4783 7.94762 13.0907 8.30721 12.6716L7.16878 11.6949ZM3.69279 12.6716C4.05238 13.0907 4.38161 13.4783 4.70623 13.7478C5.06533 14.046 5.47526 14.25 6 14.25V12.75C5.91647 12.75 5.83397 12.7345 5.66444 12.5938C5.46041 12.4244 5.22478 12.1536 4.83122 11.6949L3.69279 12.6716ZM3.375 6.64152C3.375 8.06428 4.61512 9.10536 6 9.10536V7.60536C5.31381 7.60536 4.875 7.11181 4.875 6.64152H3.375ZM6 9.10536C7.38488 9.10536 8.625 8.06428 8.625 6.64152H7.125C7.125 7.11181 6.68619 7.60536 6 7.60536V9.10536ZM8.625 6.64152C8.625 5.21876 7.38488 4.17768 6 4.17768V5.67768C6.68619 5.67768 7.125 6.17122 7.125 6.64152H8.625ZM6 4.17768C4.61512 4.17768 3.375 5.21876 3.375 6.64152H4.875C4.875 6.17122 5.31381 5.67768 6 5.67768V4.17768Z" fill="#5E6E94"/>
</g>
</svg>
