<svg width="15" height="16" viewBox="0 0 15 16" fill="none" xmlns="http://www.w3.org/2000/svg">
<g clip-path="url(#clip0_120_57662)">
<path d="M11.7188 6.00781H10.663V3.59873C10.663 1.89008 9.24357 0.5 7.49892 0.5C5.75426 0.5 4.33485 1.89008 4.33485 3.59873V6.00781H3.28125C2.31199 6.00781 1.52344 6.79637 1.52344 7.76562V13.7422C1.52344 14.7114 2.31199 15.5 3.28125 15.5H11.7188C12.688 15.5 13.4766 14.7114 13.4766 13.7422V7.76562C13.4766 6.79637 12.688 6.00781 11.7188 6.00781ZM5.50673 3.59873C5.50673 2.53625 6.40043 1.67188 7.49892 1.67188C8.5974 1.67188 9.4911 2.53625 9.4911 3.59873V6.00781H5.50673V3.59873ZM12.3047 13.7422C12.3047 14.0653 12.0418 14.3281 11.7188 14.3281H3.28125C2.95816 14.3281 2.69531 14.0653 2.69531 13.7422V7.76562C2.69531 7.44254 2.95816 7.17969 3.28125 7.17969H11.7188C12.0418 7.17969 12.3047 7.44254 12.3047 7.76562V13.7422Z" fill="#848BA8"/>
<path d="M7.5 8.87891C6.90132 8.87891 6.41602 9.36421 6.41602 9.96289C6.41602 10.3452 6.61406 10.681 6.91298 10.874V12.1602C6.91298 12.4837 7.1753 12.7461 7.49892 12.7461C7.8225 12.7461 8.08485 12.4837 8.08485 12.1602V10.8753C8.38497 10.6826 8.58398 10.3461 8.58398 9.96289C8.58398 9.36421 8.09868 8.87891 7.5 8.87891Z" fill="#848BA8"/>
</g>
<defs>
<clipPath id="clip0_120_57662">
<rect width="15" height="15" fill="white" transform="translate(0 0.5)"/>
</clipPath>
</defs>
</svg>
