<svg width="12" height="13" viewBox="0 0 12 13" fill="none" xmlns="http://www.w3.org/2000/svg">
<g id="010-mask" clip-path="url(#clip0_120_52884)">
<g id="Group">
<path id="Vector" d="M3.75 3.1875C2.00496 3.1875 0.307594 4.14598 0.23618 4.18676L0 4.32173V7.875C0 10.0024 1.40039 11.9146 3.49498 12.5131L3.75 12.5859L4.00502 12.5131C6.05055 11.9287 7.5 10.0534 7.5 7.875V4.32173L7.26382 4.18678C7.19241 4.14598 5.49504 3.1875 3.75 3.1875ZM6.5625 7.875C6.5625 9.59794 5.40614 11.1319 3.75 11.6063C2.09386 11.1319 0.9375 9.59794 0.9375 7.875V4.87779C1.42617 4.63664 2.59863 4.125 3.75 4.125C4.89659 4.125 6.07273 4.63725 6.5625 4.87823V7.875Z" fill="#7985A1"/>
<path id="Vector_2" d="M2.8125 8.34375H1.875C1.875 9.37762 2.71613 10.2188 3.75 10.2188C4.78387 10.2188 5.625 9.37762 5.625 8.34375H4.6875C4.6875 8.86069 4.26694 9.28125 3.75 9.28125C3.23306 9.28125 2.8125 8.86069 2.8125 8.34375Z" fill="#7985A1"/>
<path id="Vector_3" d="M11.7638 1.5852C11.6924 1.54441 9.99504 0.585938 8.25 0.585938C6.50496 0.585938 4.80759 1.54441 4.73618 1.5852L4.5 1.72017V2.29669C4.82461 2.33587 5.13956 2.39733 5.4375 2.47162V2.27625C5.92617 2.03508 7.09863 1.52344 8.25 1.52344C9.39659 1.52344 10.5727 2.03569 11.0625 2.27667V5.27344C11.0625 6.96785 9.94409 8.47943 8.33182 8.98022C8.2692 9.30347 8.17917 9.61957 8.06213 9.92601L8.25 9.97969L8.50502 9.90682C10.5506 9.32241 12 7.45184 12 5.27344V1.72017L11.7638 1.5852Z" fill="#7985A1"/>
<path id="Vector_4" d="M10.125 7.14685C10.125 6.17626 9.38367 5.37563 8.4375 5.28125V6.22822C8.86488 6.31534 9.1875 6.69411 9.1875 7.14685H10.125Z" fill="#7985A1"/>
</g>
</g>
<defs>
<clipPath id="clip0_120_52884">
<rect width="12" height="12" fill="white" transform="translate(0 0.585938)"/>
</clipPath>
</defs>
</svg>
