<svg width="12" height="13" viewBox="0 0 12 13" fill="none" xmlns="http://www.w3.org/2000/svg">
<g clip-path="url(#clip0_2107_72641)">
<path d="M11.9987 6.46862L11.3085 5.78208C12.2698 4.49812 12.1674 2.66441 11.0009 1.49782C9.83428 0.331263 8.0006 0.228886 6.71664 1.1902L6.03011 0.5L5.36733 1.16644L6.05387 1.85299C5.61297 2.44185 5.39587 3.14628 5.40257 3.84904L0.31831 10.0764C-0.139959 10.6377 -0.0991398 11.4473 0.413211 11.9597L0.540285 12.0868C1.05043 12.5969 1.86007 12.642 2.42386 12.1815L8.64975 7.09617C8.66022 7.09626 8.6707 7.09654 8.68117 7.09654C9.37348 7.09654 10.0657 6.87916 10.6457 6.44484L11.3322 7.13139L11.9987 6.46862ZM10.3381 2.16061C11.1382 2.96078 11.2376 4.20043 10.6361 5.10975L7.38894 1.86253C8.29418 1.26373 9.53458 1.35707 10.3381 2.16061ZM1.20307 11.424L1.076 11.2969C0.905199 11.1261 0.891608 10.8563 1.04434 10.6692L1.37218 10.2676L2.2323 11.1277L1.83088 11.4556C1.64381 11.6084 1.3739 11.5948 1.20307 11.424ZM2.96191 10.5318L1.968 9.53786L5.63811 5.04259C5.79799 5.4413 6.03904 5.81479 6.3615 6.13724C6.684 6.45974 7.05756 6.70084 7.45633 6.86072L2.96191 10.5318ZM7.02426 5.47448C6.22411 4.67431 6.12478 3.43466 6.7262 2.52534L9.97338 5.77254C9.06403 6.37396 7.82441 6.27465 7.02426 5.47448Z" fill="white"/>
<path d="M5.36709 7.60136C5.62591 7.60136 5.83574 7.39154 5.83574 7.13271C5.83574 6.87388 5.62591 6.66406 5.36709 6.66406C5.10826 6.66406 4.89844 6.87388 4.89844 7.13271C4.89844 7.39154 5.10826 7.60136 5.36709 7.60136Z" fill="white"/>
</g>
<defs>
<clipPath id="clip0_2107_72641">
<rect width="12" height="12" fill="white" transform="translate(0 0.5)"/>
</clipPath>
</defs>
</svg>
