<svg width="20" height="20" viewBox="0 0 20 20" fill="none" xmlns="http://www.w3.org/2000/svg">
<g id="Frame 2087324729">
<path id="Vector" fill-rule="evenodd" clip-rule="evenodd" d="M10.6997 3.42246C7.22045 3.42246 4.39995 6.28832 4.39995 9.82353C4.39995 13.3588 7.22045 16.2246 10.6997 16.2246C12.2884 16.2246 13.7397 15.6275 14.8484 14.6408C11.8737 13.9681 9.64976 11.2707 9.64976 8.04546C9.64976 6.27665 10.3191 4.66677 11.4129 3.46296C11.179 3.43621 10.941 3.42246 10.6997 3.42246ZM3 9.82353C3 5.50272 6.44728 2 10.6997 2C11.5493 2 12.3682 2.14009 13.1342 2.39933C13.3857 2.48443 13.5683 2.70656 13.6059 2.97317C13.6435 3.23977 13.5297 3.50509 13.312 3.65857C11.9435 4.6228 11.0497 6.22813 11.0497 8.04546C11.0497 10.9914 13.4002 13.3797 16.2995 13.3797C16.5647 13.3797 16.8077 13.532 16.9262 13.7731C17.0447 14.0142 17.019 14.3026 16.8597 14.5181C15.4561 16.4167 13.2192 17.6471 10.6997 17.6471C6.44728 17.6471 3 14.1443 3 9.82353Z" fill="#C7CDDB"/>
</g>
</svg>
