<svg width="12" height="13" viewBox="0 0 12 13" fill="none" xmlns="http://www.w3.org/2000/svg">
<g id="005-museum" clip-path="url(#clip0_120_52845)">
<path id="Vector" d="M0 11.6395H12V12.577H0V11.6395ZM12 3.54263V5.10045H11.0776C11.1432 5.2636 11.1797 5.44147 11.1797 5.6278V10.913H0.820312V5.6278C0.820312 5.44147 0.856805 5.2636 0.922406 5.10045H0V3.5432L5.98784 0.59375L12 3.54263ZM0.9375 4.16295H11.0625V4.127L5.98873 1.63838L0.9375 4.12646V4.16295ZM6.46875 5.6278C6.46875 5.36286 6.25322 5.14733 5.98828 5.14733C5.72334 5.14733 5.50781 5.36286 5.50781 5.6278V9.97545H6.46875V5.6278ZM2.71875 5.6278C2.71875 5.36286 2.50322 5.14733 2.23828 5.14733C1.97334 5.14733 1.75781 5.36286 1.75781 5.6278V9.97545H2.71875V5.6278ZM3.65625 5.6278V9.97545H4.57031V5.6278C4.57031 5.44147 4.6068 5.2636 4.67241 5.10045H3.55413C3.61976 5.26358 3.65625 5.44147 3.65625 5.6278ZM10.2422 5.6278C10.2422 5.36286 10.0267 5.14733 9.76172 5.14733C9.49678 5.14733 9.28125 5.36286 9.28125 5.6278V9.97545H10.2422V5.6278ZM8.44584 5.10045H7.30413C7.36976 5.2636 7.40623 5.44147 7.40623 5.6278V9.97545H8.34373V5.6278C8.34375 5.44147 8.38024 5.26358 8.44584 5.10045Z" fill="#7985A1"/>
</g>
<defs>
<clipPath id="clip0_120_52845">
<rect width="12" height="12" fill="white" transform="translate(0 0.585938)"/>
</clipPath>
</defs>
</svg>
