<svg width="12" height="13" viewBox="0 0 12 13" fill="none" xmlns="http://www.w3.org/2000/svg">
<g id="music">
<path id="Vector" d="M11.4402 0.962646C11.0844 0.657427 10.6026 0.528273 10.1178 0.609908L5.2848 1.42809C4.3398 1.5877 3.6 2.47473 3.6 3.44765V8.05152C3.2454 7.84134 2.8392 7.71218 2.4 7.71218C1.0764 7.71218 0 8.80512 0 10.1491C0 11.493 1.0764 12.5859 2.4 12.5859C3.7236 12.5859 4.8 11.493 4.8 10.1491V5.79132L10.8 4.77575V8.05091C10.4454 7.84134 10.0386 7.71218 9.6 7.71218C8.2764 7.71218 7.2 8.80512 7.2 10.1491C7.2 11.493 8.2764 12.5859 9.6 12.5859C10.9236 12.5859 12 11.493 12 10.1491V2.22921C12 1.73026 11.796 1.26847 11.4402 0.962646ZM2.4 11.3675C1.7382 11.3675 1.2 10.821 1.2 10.1491C1.2 9.47709 1.7382 8.93062 2.4 8.93062C3.0618 8.93062 3.6 9.47709 3.6 10.1491C3.6 10.821 3.0618 11.3675 2.4 11.3675ZM4.8 4.55582V3.44765C4.8 3.07359 5.1186 2.69161 5.4822 2.63008L10.3146 1.8119C10.4532 1.78875 10.5768 1.81677 10.6644 1.89231C10.752 1.96725 10.8 2.08726 10.8 2.22921V3.54086L4.8 4.55582ZM9.6 11.3675C8.9382 11.3675 8.4 10.821 8.4 10.1491C8.4 9.47709 8.9382 8.93062 9.6 8.93062C10.2618 8.93062 10.8 9.47709 10.8 10.1491C10.8 10.821 10.2618 11.3675 9.6 11.3675Z" fill="#7985A1"/>
</g>
</svg>
