<svg width="12" height="13" viewBox="0 0 12 13" fill="none" xmlns="http://www.w3.org/2000/svg">
<path d="M4.59375 7.79666L8.31734 5.5625L4.59375 3.32834V7.79666ZM5.53125 4.98416L6.49516 5.5625L5.53125 6.14084V4.98416ZM11.0625 8.84375V2.75C11.0625 1.97459 10.4317 1.34375 9.65625 1.34375H2.34375C1.56834 1.34375 0.9375 1.97459 0.9375 2.75V8.84375H0V10.25C0 11.0254 0.630844 11.6562 1.40625 11.6562H10.5938C11.3692 11.6562 12 11.0254 12 10.25V8.84375H11.0625ZM1.875 2.75C1.875 2.49153 2.08528 2.28125 2.34375 2.28125H9.65625C9.91472 2.28125 10.125 2.49153 10.125 2.75V8.84375H1.875V2.75ZM11.0625 10.25C11.0625 10.5085 10.8522 10.7188 10.5938 10.7188H1.40625C1.14778 10.7188 0.9375 10.5085 0.9375 10.25V9.78125H11.0625V10.25Z" fill="white"/>
</svg>
