<svg width="12" height="13" viewBox="0 0 12 13" fill="none" xmlns="http://www.w3.org/2000/svg">
<g id="party-hat 1" clip-path="url(#clip0_120_52772)">
<g id="_x30_1_party_hat">
<path id="Vector" d="M10.0913 10.9308L7.06421 4.27112C7.15906 4.2702 7.25354 4.23413 7.32605 4.1618C7.47254 4.01532 7.47254 3.77783 7.32605 3.63153L6.90528 3.21075H7.50019C7.70728 3.21075 7.87519 3.04285 7.87519 2.83575C7.87519 2.62866 7.70728 2.46075 7.50019 2.46075H6.90528L7.32587 2.04016C7.47236 1.89368 7.47236 1.65619 7.32587 1.50989C7.17939 1.3634 6.94208 1.3634 6.7956 1.50989L6.375 1.93048V1.33594C6.375 1.12885 6.2071 0.960938 6 0.960938C5.79291 0.960938 5.625 1.12885 5.625 1.33594V1.93085L5.20441 1.51025C5.05793 1.36377 4.82062 1.36377 4.67414 1.51025C4.52765 1.65674 4.52765 1.89423 4.67414 2.04053L5.09473 2.46112H4.5C4.29291 2.46112 4.125 2.62903 4.125 2.83612C4.125 3.04321 4.29291 3.21112 4.5 3.21112H5.09491L4.67432 3.63171C4.52784 3.7782 4.52784 4.01569 4.67432 4.16199C4.74665 4.23431 4.84113 4.2702 4.9358 4.27112L1.9087 10.9308C1.83252 11.0982 1.8891 11.296 2.042 11.3979C2.0918 11.4311 3.29261 12.2109 6 12.2109C8.7074 12.2109 9.90821 11.4311 9.95801 11.3979C10.1109 11.296 10.1675 11.0982 10.0913 10.9308ZM3.93567 8.28369C4.5597 8.39905 5.24964 8.46094 6 8.46094C6.75037 8.46094 7.44031 8.39905 8.06434 8.28369L8.52228 9.29114C7.95429 9.44403 7.12793 9.58594 6 9.58594C4.87207 9.58594 4.04572 9.44403 3.47773 9.29114L3.93567 8.28369ZM4.73786 6.51892C5.13538 6.55994 5.55378 6.58594 6 6.58594C6.44623 6.58594 6.86463 6.55994 7.26233 6.51892L7.745 7.58093C7.21436 7.66663 6.63044 7.71094 6 7.71094C5.36957 7.71094 4.78565 7.66663 4.25519 7.58093L4.73786 6.51892ZM6 3.74213L6.93512 5.7995C6.33106 5.84564 5.66895 5.84564 5.06488 5.7995L6 3.74213ZM6 11.4609C4.25464 11.4609 3.20362 11.1156 2.73981 10.9146L3.1637 9.98218C3.78644 10.1613 4.71827 10.3359 6 10.3359C7.28174 10.3359 8.21357 10.1613 8.83649 9.98218L9.2602 10.9144C8.79511 11.116 7.74427 11.4609 6 11.4609Z" fill="#7985A1"/>
</g>
</g>
<defs>
<clipPath id="clip0_120_52772">
<rect width="12" height="12" fill="white" transform="translate(0 0.585938)"/>
</clipPath>
</defs>
</svg>
