<svg width="14" height="4" viewBox="0 0 14 4" fill="none" xmlns="http://www.w3.org/2000/svg">
<path id="Vector" d="M1.5 0.914062C0.675 0.914062 0 1.58906 0 2.41406C0 3.23906 0.675 3.91406 1.5 3.91406C2.325 3.91406 3 3.23906 3 2.41406C3 1.58906 2.325 0.914062 1.5 0.914062ZM12.3 0.914062C11.475 0.914062 10.8 1.58906 10.8 2.41406C10.8 3.23906 11.475 3.91406 12.3 3.91406C13.125 3.91406 13.8 3.23906 13.8 2.41406C13.8 1.58906 13.125 0.914062 12.3 0.914062ZM6.9 0.914062C6.075 0.914062 5.4 1.58906 5.4 2.41406C5.4 3.23906 6.075 3.91406 6.9 3.91406C7.725 3.91406 8.4 3.23906 8.4 2.41406C8.4 1.58906 7.725 0.914062 6.9 0.914062Z" fill="white"/>
</svg>
