<svg width="12" height="13" viewBox="0 0 12 13" fill="none" xmlns="http://www.w3.org/2000/svg">
<g id="001-portfolio" clip-path="url(#clip0_120_52764)">
<g id="Group">
<path id="Vector" d="M10.5938 2.83594H8.34375V2.36719C8.34375 1.59178 7.71291 0.960938 6.9375 0.960938H5.0625C4.28709 0.960938 3.65625 1.59178 3.65625 2.36719V2.83594H1.40625C0.630844 2.83594 0 3.46678 0 4.24219V10.8047C0 11.5801 0.630844 12.2109 1.40625 12.2109H10.5938C11.3692 12.2109 12 11.5801 12 10.8047V4.24219C12 3.46678 11.3692 2.83594 10.5938 2.83594ZM4.59375 2.36719C4.59375 2.10872 4.80403 1.89844 5.0625 1.89844H6.9375C7.19597 1.89844 7.40625 2.10872 7.40625 2.36719V2.83594H4.59375V2.36719ZM10.5938 11.2734H1.40625C1.14778 11.2734 0.9375 11.0632 0.9375 10.8047V7.05361C1.32945 7.34845 1.81643 7.52344 2.34354 7.52344H4.59375V9.39844H7.40625V7.52344H9.65648C10.1836 7.52344 10.6706 7.34845 11.0625 7.05361V10.8047C11.0625 11.0632 10.8522 11.2734 10.5938 11.2734ZM5.53125 7.52344H6.46875V8.46094H5.53125V7.52344ZM9.65648 6.58594H2.34354C1.56825 6.58594 0.9375 5.95519 0.9375 5.1799V5.17969V4.24219C0.9375 3.98372 1.14778 3.77344 1.40625 3.77344H10.5938C10.8522 3.77344 11.0625 3.98372 11.0625 4.24219V5.17992C11.0625 5.95519 10.4318 6.58594 9.65648 6.58594Z" fill="#7985A1"/>
</g>
</g>
<defs>
<clipPath id="clip0_120_52764">
<rect width="12" height="12" fill="white" transform="translate(0 0.585938)"/>
</clipPath>
</defs>
</svg>
