<svg xmlns="http://www.w3.org/2000/svg" width="24" height="24" viewBox="0 0 24 24" fill="none">
    <g clip-path="url(#clip0_1318_44885)">
        <path d="M19.3125 12.75C19.8303 12.75 20.25 12.3303 20.25 11.8125C20.25 11.2947 19.8303 10.875 19.3125 10.875C18.7947 10.875 18.375 11.2947 18.375 11.8125C18.375 12.3303 18.7947 12.75 19.3125 12.75Z" fill="#021231"/>
        <path d="M15.5625 12.75C16.0803 12.75 16.5 12.3303 16.5 11.8125C16.5 11.2947 16.0803 10.875 15.5625 10.875C15.0447 10.875 14.625 11.2947 14.625 11.8125C14.625 12.3303 15.0447 12.75 15.5625 12.75Z" fill="#021231"/>
        <path d="M19.3125 7.125H4.6875C2.10281 7.125 0 9.22781 0 11.8125V15.5625C0 18.1472 2.10281 20.25 4.6875 20.25H5.625V21.1875C5.625 22.7383 6.88669 24 8.4375 24H15.5625C17.1133 24 18.375 22.7383 18.375 21.1875V20.25H19.3125C21.8972 20.25 24 18.1472 24 15.5625V11.8125C24 9.22781 21.8972 7.125 19.3125 7.125ZM16.5 21.1875C16.5 21.7044 16.0794 22.125 15.5625 22.125H8.4375C7.92056 22.125 7.5 21.7044 7.5 21.1875V16.5H16.5V21.1875ZM22.125 15.5625C22.125 17.1133 20.8633 18.375 19.3125 18.375H18.375V16.5H19.3125C19.8303 16.5 20.25 16.0803 20.25 15.5625C20.25 15.0447 19.8303 14.625 19.3125 14.625H4.6875C4.16972 14.625 3.75 15.0447 3.75 15.5625C3.75 16.0803 4.16972 16.5 4.6875 16.5H5.625V18.375H4.6875C3.13669 18.375 1.875 17.1133 1.875 15.5625V11.8125C1.875 10.2617 3.13669 9 4.6875 9H19.3125C20.8633 9 22.125 10.2617 22.125 11.8125V15.5625Z" fill="#021231"/>
        <path d="M6.375 5.25C6.89278 5.25 7.3125 4.83028 7.3125 4.3125V2.8125C7.3125 2.29556 7.73306 1.875 8.25 1.875H15.75C16.2669 1.875 16.6875 2.29556 16.6875 2.8125V4.3125C16.6875 4.83028 17.1072 5.25 17.625 5.25C18.1428 5.25 18.5625 4.83028 18.5625 4.3125V2.8125C18.5625 1.26169 17.3008 0 15.75 0H8.25C6.69919 0 5.4375 1.26169 5.4375 2.8125V4.3125C5.4375 4.83028 5.85722 5.25 6.375 5.25Z" fill="#021231"/>
    </g>
    <defs>
        <clipPath id="clip0_1318_44885">
            <rect width="24" height="24" fill="white"/>
        </clipPath>
    </defs>
</svg>