<svg width="12" height="13" viewBox="0 0 12 13" fill="none" xmlns="http://www.w3.org/2000/svg">
<g id="006-reading">
<g id="Group">
<path id="Vector" d="M11.0625 3.30469V10.3359H0.9375V3.30469H0V11.2734H12V3.30469H11.0625Z" fill="#7985A1"/>
<path id="Vector_2" d="M5.66852 9.72989L6 10.0613L6.33148 9.72989C6.84748 9.21387 7.53356 8.92969 8.26331 8.92969H10.2188V1.89844H7.875C7.10916 1.89844 6.42797 2.26763 6 2.83741C5.57203 2.26763 4.89084 1.89844 4.125 1.89844H1.78125V8.92969H3.73669C4.46644 8.92969 5.15252 9.21387 5.66852 9.72989ZM7.875 2.83594H9.28125V7.99219H8.26331C7.62452 7.99219 7.01072 8.15449 6.46875 8.45927V4.24219C6.46875 3.46678 7.09959 2.83594 7.875 2.83594ZM2.71875 2.83594H4.125C4.90041 2.83594 5.53125 3.46678 5.53125 4.24219V8.45927C4.98928 8.15449 4.37545 7.99219 3.73669 7.99219H2.71875V2.83594Z" fill="#7985A1"/>
</g>
</g>
</svg>
