<svg xmlns="http://www.w3.org/2000/svg" width="24" height="24" viewBox="0 0 24 24" fill="none">
    <g clip-path="url(#clip0_1318_44877)">
        <path d="M4.6875 24H19.3125C21.8972 24 24 21.8972 24 19.3125V8.1158C24 6.86372 23.5124 5.68659 22.627 4.80122L19.1988 1.37297C18.3135 0.487594 17.1363 0 15.8842 0H4.6875C2.10277 0 0 2.10281 0 4.6875V19.3125C0 21.8972 2.10277 24 4.6875 24ZM7.3125 1.875H10.875V4.3125C10.875 4.83028 11.2947 5.25 11.8125 5.25C12.3303 5.25 12.75 4.83028 12.75 4.3125V1.875H14.625V5.25C14.625 6.28387 13.7839 7.125 12.75 7.125H9.1875C8.15363 7.125 7.3125 6.28387 7.3125 5.25V1.875ZM1.875 4.6875C1.875 3.13669 3.13669 1.875 4.6875 1.875H5.4375V5.25C5.4375 7.31775 7.11975 9 9.1875 9H12.75C14.8177 9 16.5 7.31775 16.5 5.25V1.94306C17.016 2.05781 17.4901 2.31591 17.873 2.69873L21.3012 6.12703C21.8325 6.65827 22.125 7.36453 22.125 8.1158V19.3125C22.125 20.8633 20.8633 22.125 19.3125 22.125H4.6875C3.13669 22.125 1.875 20.8633 1.875 19.3125V4.6875Z" fill="#021231"/>
        <path d="M4.6875 20.25C5.20528 20.25 5.625 19.8303 5.625 19.3125V14.625C5.625 13.5911 6.46613 12.75 7.5 12.75H16.5C17.5339 12.75 18.375 13.5911 18.375 14.625V19.3125C18.375 19.8303 18.7947 20.25 19.3125 20.25C19.8303 20.25 20.25 19.8303 20.25 19.3125V14.625C20.25 12.5573 18.5677 10.875 16.5 10.875H7.5C5.43225 10.875 3.75 12.5573 3.75 14.625V19.3125C3.75 19.8303 4.16972 20.25 4.6875 20.25Z" fill="#021231"/>
        <path d="M15.5625 14.625H8.4375C7.91972 14.625 7.5 15.0447 7.5 15.5625C7.5 16.0803 7.91972 16.5 8.4375 16.5H15.5625C16.0803 16.5 16.5 16.0803 16.5 15.5625C16.5 15.0447 16.0803 14.625 15.5625 14.625Z" fill="#021231"/>
        <path d="M16.5 19.3125C16.5 18.7947 16.0803 18.375 15.5625 18.375H8.4375C7.91972 18.375 7.5 18.7947 7.5 19.3125C7.5 19.8303 7.91972 20.25 8.4375 20.25H15.5625C16.0803 20.25 16.5 19.8303 16.5 19.3125Z" fill="#021231"/>
    </g>
    <defs>
        <clipPath id="clip0_1318_44877">
            <rect width="24" height="24" fill="white"/>
        </clipPath>
    </defs>
</svg>