<svg width="18" height="19" viewBox="0 0 18 19" fill="none" xmlns="http://www.w3.org/2000/svg">
<path id="Vector" d="M17.7043 17.1988L14.3054 13.8099C15.402 12.4128 15.9971 10.6876 15.9948 8.91149C15.9948 7.32975 15.5258 5.78353 14.647 4.46836C13.7683 3.15319 12.5192 2.12814 11.0579 1.52283C9.59657 0.917528 7.98855 0.759152 6.43721 1.06773C4.88586 1.37632 3.46085 2.138 2.34239 3.25646C1.22393 4.37492 0.462254 5.79992 0.153672 7.35127C-0.15491 8.90262 0.00346513 10.5106 0.608771 11.972C1.21408 13.4333 2.23913 14.6823 3.5543 15.5611C4.86947 16.4399 6.41569 16.9089 7.99743 16.9089C9.77351 16.9111 11.4988 16.3161 12.8958 15.2195L16.2848 18.6184C16.3777 18.7121 16.4883 18.7864 16.6101 18.8372C16.7319 18.8879 16.8626 18.9141 16.9945 18.9141C17.1265 18.9141 17.2572 18.8879 17.379 18.8372C17.5008 18.7864 17.6114 18.7121 17.7043 18.6184C17.798 18.5254 17.8724 18.4149 17.9231 18.293C17.9739 18.1712 18 18.0406 18 17.9086C18 17.7766 17.9739 17.646 17.9231 17.5241C17.8724 17.4023 17.798 17.2918 17.7043 17.1988ZM1.99936 8.91149C1.99936 7.72518 2.35114 6.56552 3.01022 5.57914C3.66929 4.59276 4.60606 3.82398 5.70207 3.37C6.79807 2.91602 8.00408 2.79724 9.16759 3.02867C10.3311 3.26011 11.3999 3.83137 12.2387 4.67021C13.0775 5.50906 13.6488 6.57781 13.8802 7.74132C14.1117 8.90483 13.9929 10.1108 13.5389 11.2068C13.0849 12.3029 12.3162 13.2396 11.3298 13.8987C10.3434 14.5578 9.18373 14.9096 7.99743 14.9096C6.40664 14.9096 4.88101 14.2776 3.75615 13.1528C2.6313 12.0279 1.99936 10.5023 1.99936 8.91149Z" fill="#C7CDDB"/>
</svg>
