<svg width="14" height="14" viewBox="0 0 14 14" fill="none" xmlns="http://www.w3.org/2000/svg">
<g id="Layer 2">
<path id="Vector" d="M3.1 9.59844C2.58577 9.59844 2.08309 9.44595 1.65552 9.16026C1.22795 8.87457 0.894702 8.4685 0.697914 7.99342C0.501127 7.51833 0.449638 6.99555 0.549959 6.4912C0.650281 5.98685 0.897907 5.52358 1.26152 5.15996C1.62514 4.79634 2.08842 4.54872 2.59277 4.4484C3.09712 4.34808 3.61989 4.39956 4.09498 4.59635C4.57007 4.79314 4.97613 5.12639 5.26182 5.55396C5.54751 5.98152 5.7 6.48421 5.7 6.99844C5.7 7.688 5.42607 8.34932 4.93848 8.83692C4.45088 9.32451 3.78956 9.59844 3.1 9.59844ZM3.1 5.69844C2.84289 5.69844 2.59154 5.77468 2.37776 5.91753C2.16398 6.06037 1.99735 6.26341 1.89896 6.50095C1.80056 6.73849 1.77482 6.99988 1.82498 7.25206C1.87514 7.50423 1.99895 7.73587 2.18076 7.91768C2.36257 8.09949 2.59421 8.2233 2.84638 8.27346C3.09856 8.32362 3.35995 8.29788 3.59749 8.19948C3.83503 8.10109 4.03806 7.93446 4.18091 7.72068C4.32376 7.5069 4.4 7.25555 4.4 6.99844C4.4 6.65366 4.26304 6.323 4.01924 6.0792C3.77544 5.8354 3.44478 5.69844 3.1 5.69844Z" fill="#C7CDDB"/>
<path id="Vector_2" d="M10.9008 5.7C10.3866 5.7 9.88387 5.54751 9.4563 5.26182C9.02873 4.97613 8.69548 4.57007 8.4987 4.09498C8.30191 3.61989 8.25042 3.09712 8.35074 2.59277C8.45106 2.08842 8.69869 1.62514 9.0623 1.26152C9.42592 0.897907 9.8892 0.650281 10.3935 0.549959C10.8979 0.449638 11.4207 0.501127 11.8958 0.697914C12.3708 0.894702 12.7769 1.22795 13.0626 1.65552C13.3483 2.08309 13.5008 2.58577 13.5008 3.1C13.5008 3.78956 13.2269 4.45088 12.7393 4.93848C12.2517 5.42607 11.5903 5.7 10.9008 5.7ZM10.9008 1.8C10.6437 1.8 10.3923 1.87624 10.1785 2.01909C9.96476 2.16194 9.79813 2.36497 9.69974 2.60251C9.60134 2.84006 9.5756 3.10144 9.62576 3.35362C9.67592 3.60579 9.79974 3.83743 9.98154 4.01924C10.1634 4.20105 10.395 4.32486 10.6472 4.37502C10.8993 4.42518 11.1607 4.39944 11.3983 4.30104C11.6358 4.20265 11.8388 4.03603 11.9817 3.82224C12.1245 3.60846 12.2008 3.35712 12.2008 3.1C12.2008 2.75522 12.0638 2.42456 11.82 2.18076C11.5762 1.93696 11.2456 1.8 10.9008 1.8Z" fill="#C7CDDB"/>
<path id="Vector_3" d="M10.9008 13.5008C10.3866 13.5008 9.88387 13.3483 9.4563 13.0626C9.02873 12.7769 8.69548 12.3708 8.4987 11.8958C8.30191 11.4207 8.25042 10.8979 8.35074 10.3935C8.45106 9.8892 8.69869 9.42592 9.0623 9.0623C9.42592 8.69869 9.8892 8.45106 10.3935 8.35074C10.8979 8.25042 11.4207 8.30191 11.8958 8.4987C12.3708 8.69548 12.7769 9.02873 13.0626 9.4563C13.3483 9.88387 13.5008 10.3866 13.5008 10.9008C13.5008 11.5903 13.2269 12.2517 12.7393 12.7393C12.2517 13.2269 11.5903 13.5008 10.9008 13.5008ZM10.9008 9.60078C10.6437 9.60078 10.3923 9.67703 10.1785 9.81987C9.96476 9.96272 9.79813 10.1657 9.69974 10.4033C9.60134 10.6408 9.5756 10.9022 9.62576 11.1544C9.67592 11.4066 9.79974 11.6382 9.98154 11.82C10.1634 12.0018 10.395 12.1256 10.6472 12.1758C10.8993 12.226 11.1607 12.2002 11.3983 12.1018C11.6358 12.0034 11.8388 11.8368 11.9817 11.623C12.1245 11.4092 12.2008 11.1579 12.2008 10.9008C12.2008 10.556 12.0638 10.2253 11.82 9.98154C11.5762 9.73775 11.2456 9.60078 10.9008 9.60078Z" fill="#C7CDDB"/>
<path id="Vector_4" d="M9.15902 10.6788C9.05705 10.68 8.95642 10.6554 8.86652 10.6073L4.55052 8.44927C4.468 8.41491 4.39346 8.3639 4.33155 8.29943C4.26964 8.23496 4.22169 8.15841 4.1907 8.07457C4.15972 7.99073 4.14635 7.9014 4.15145 7.81216C4.15654 7.72292 4.17999 7.63569 4.22032 7.55593C4.26065 7.47616 4.317 7.40557 4.38585 7.34856C4.4547 7.29156 4.53456 7.24936 4.62045 7.22462C4.70634 7.19988 4.79641 7.19311 4.88504 7.20475C4.97366 7.21639 5.05893 7.24619 5.13552 7.29227L9.45152 9.45027C9.60461 9.5282 9.72063 9.66355 9.77422 9.82676C9.82781 9.98997 9.81461 10.1678 9.73752 10.3213C9.6835 10.4285 9.60086 10.5186 9.49875 10.5817C9.39664 10.6448 9.27905 10.6784 9.15902 10.6788Z" fill="#C7CDDB"/>
<path id="Vector_5" d="M4.84295 6.7802C4.72292 6.77983 4.60533 6.74624 4.50322 6.68314C4.40111 6.62004 4.31847 6.52989 4.26445 6.4227C4.18736 6.26919 4.17416 6.0914 4.22775 5.92819C4.28134 5.76498 4.39736 5.62962 4.55045 5.5517L8.86645 3.3937C9.01796 3.33061 9.18773 3.32716 9.34168 3.38406C9.49562 3.44096 9.62234 3.55399 9.6964 3.70046C9.77045 3.84692 9.78636 4.01598 9.74093 4.17369C9.69549 4.3314 9.59208 4.46608 9.45145 4.5507L5.13545 6.7087C5.04555 6.75682 4.94493 6.78142 4.84295 6.7802Z" fill="#C7CDDB"/>
</g>
</svg>
