<svg width="12" height="13" viewBox="0 0 12 13" fill="none" xmlns="http://www.w3.org/2000/svg">
<g clip-path="url(#clip0_2107_72650)">
<path d="M10.2427 2.25734C9.10938 1.12412 7.60266 0.5 6 0.5C4.39734 0.5 2.89062 1.12412 1.75734 2.25734C0.624117 3.39062 0 4.89734 0 6.5C0 8.10266 0.624117 9.60941 1.75734 10.7427C2.89062 11.8759 4.39734 12.5 6 12.5C7.60266 12.5 9.10938 11.8759 10.2427 10.7427C11.3759 9.60941 12 8.10266 12 6.5C12 4.89734 11.3759 3.39062 10.2427 2.25734ZM6 11.5625C3.20852 11.5625 0.9375 9.29148 0.9375 6.5C0.9375 3.70852 3.20852 1.4375 6 1.4375C8.79148 1.4375 11.0625 3.70852 11.0625 6.5C11.0625 9.29148 8.79148 11.5625 6 11.5625Z" fill="white"/>
<path d="M8.64799 7.19773C8.64631 7.20275 8.47695 7.70459 8.06159 8.19132C7.53298 8.81077 6.85819 9.12486 6.05597 9.12486C5.24796 9.12486 4.5514 8.80702 3.98566 8.18026C3.54223 7.68896 3.34648 7.18323 3.34512 7.17969L2.4668 7.50758C2.47664 7.53387 2.71366 8.15895 3.26398 8.7796C4.00805 9.61878 4.97351 10.0624 6.05597 10.0624C7.14375 10.0624 8.09278 9.61527 8.80048 8.76941C9.32355 8.14421 9.53091 7.51433 9.53948 7.48782L8.64799 7.19773Z" fill="white"/>
<path d="M3.9375 5.47266C4.35171 5.47266 4.6875 5.13687 4.6875 4.72266C4.6875 4.30844 4.35171 3.97266 3.9375 3.97266C3.52329 3.97266 3.1875 4.30844 3.1875 4.72266C3.1875 5.13687 3.52329 5.47266 3.9375 5.47266Z" fill="white"/>
<path d="M8.0625 5.47266C8.47671 5.47266 8.8125 5.13687 8.8125 4.72266C8.8125 4.30844 8.47671 3.97266 8.0625 3.97266C7.64829 3.97266 7.3125 4.30844 7.3125 4.72266C7.3125 5.13687 7.64829 5.47266 8.0625 5.47266Z" fill="white"/>
</g>
<defs>
<clipPath id="clip0_2107_72650">
<rect width="12" height="12" fill="white" transform="translate(0 0.5)"/>
</clipPath>
</defs>
</svg>
