<svg width="12" height="13" viewBox="0 0 12 13" fill="none" xmlns="http://www.w3.org/2000/svg">
<g id="011-stars" clip-path="url(#clip0_120_52895)">
<path id="Vector" d="M4.54907 5.095L6.04129 4.32605L7.53351 5.095L7.24823 3.46472L8.46716 2.30017L6.78369 2.06039L6.04129 0.585938L5.29889 2.06039L3.61551 2.30017L4.83435 3.46472L4.54907 5.095ZM5.91541 2.9187L6.04129 2.66858L6.16718 2.9187L6.42535 2.95541L6.23932 3.13321L6.28574 3.39835L6.04129 3.27237L5.79694 3.39835L5.84326 3.13321L5.65723 2.95541L5.91541 2.9187ZM11.2864 4.6571L11.4523 5.60477L10.584 5.15735L9.71567 5.60477L9.88147 4.6571L9.17908 3.98593L10.1498 3.84769L10.584 2.98544L11.0182 3.84769L11.9889 3.98593L11.2864 4.6571ZM2.27325 5.46432L1.40497 5.01682L0.536682 5.46432L0.702484 4.51657L0 3.8454L0.970825 3.70715L1.40497 2.84491L1.83911 3.70715L2.80994 3.8454L2.10745 4.51657L2.27325 5.46432ZM5.573 5.60797H6.50958V12.5859H5.573V5.60797ZM9.41318 6.0997L9.79303 6.37363C9.78955 6.37857 9.43698 6.87781 9.08881 7.88727C8.76682 8.82083 8.38293 10.3938 8.38293 12.5859H7.44626C7.44626 8.06012 8.9696 5.91348 9.03442 5.82431L9.41318 6.0997ZM3.02472 5.82431C3.08963 5.91348 4.61298 8.06003 4.61298 12.5859H3.6763C3.6763 10.3938 3.29242 8.82083 2.97043 7.88727C2.62225 6.87781 2.26959 6.37857 2.26611 6.37363L3.02472 5.82431Z" fill="#7985A1"/>
</g>
<defs>
<clipPath id="clip0_120_52895">
<rect width="12" height="12" fill="white" transform="translate(0 0.585938)"/>
</clipPath>
</defs>
</svg>
