<svg width="20" height="20" viewBox="0 0 20 20" fill="none" xmlns="http://www.w3.org/2000/svg">
<g id="Group">
<path id="Vector" fill-rule="evenodd" clip-rule="evenodd" d="M9.99956 6.63494C8.14187 6.63494 6.63592 8.14089 6.63592 9.99858C6.63592 11.8562 8.14187 13.3622 9.99956 13.3622C11.8572 13.3622 13.3632 11.8562 13.3632 9.99858C13.3632 8.14089 11.8572 6.63494 9.99956 6.63494ZM4.9541 9.99858C4.9541 7.21205 7.21303 4.95312 9.99956 4.95312C12.7861 4.95312 15.045 7.21205 15.045 9.99858C15.045 12.7851 12.7861 15.044 9.99956 15.044C7.21303 15.044 4.9541 12.7851 4.9541 9.99858Z" fill="#848BA8"/>
<path id="Vector_2" fill-rule="evenodd" clip-rule="evenodd" d="M10.0001 0.75C10.4645 0.75 10.841 1.12649 10.841 1.59091V3.27273C10.841 3.73714 10.4645 4.11364 10.0001 4.11364C9.53565 4.11364 9.15918 3.73714 9.15918 3.27273V1.59091C9.15918 1.12649 9.53565 0.75 10.0001 0.75Z" fill="#848BA8"/>
<path id="Vector_3" fill-rule="evenodd" clip-rule="evenodd" d="M10.0001 15.8867C10.4645 15.8867 10.841 16.2632 10.841 16.7276V18.4094C10.841 18.8739 10.4645 19.2504 10.0001 19.2504C9.53565 19.2504 9.15918 18.8739 9.15918 18.4094V16.7276C9.15918 16.2632 9.53565 15.8867 10.0001 15.8867Z" fill="#848BA8"/>
<path id="Vector_4" fill-rule="evenodd" clip-rule="evenodd" d="M3.51875 3.51973C3.84716 3.19134 4.37958 3.19134 4.70799 3.51973L5.54889 4.36064C5.87729 4.68904 5.87729 5.22147 5.54889 5.54987C5.22049 5.87826 4.68806 5.87826 4.35966 5.54987L3.51875 4.70896C3.19036 4.38056 3.19036 3.84813 3.51875 3.51973Z" fill="#848BA8"/>
<path id="Vector_5" fill-rule="evenodd" clip-rule="evenodd" d="M14.4504 14.4494C14.7788 14.121 15.3112 14.121 15.6396 14.4494L16.4805 15.2903C16.8089 15.6187 16.8089 16.1512 16.4805 16.4795C16.1521 16.8079 15.6197 16.8079 15.2913 16.4795L14.4504 15.6386C14.122 15.3102 14.122 14.7778 14.4504 14.4494Z" fill="#848BA8"/>
<path id="Vector_6" fill-rule="evenodd" clip-rule="evenodd" d="M0.75 10.0011C0.75 9.53663 1.12649 9.16016 1.59091 9.16016H3.27273C3.73714 9.16016 4.11364 9.53663 4.11364 10.0011C4.11364 10.4655 3.73714 10.842 3.27273 10.842H1.59091C1.12649 10.842 0.75 10.4655 0.75 10.0011Z" fill="#848BA8"/>
<path id="Vector_7" fill-rule="evenodd" clip-rule="evenodd" d="M15.8867 10.0011C15.8867 9.53663 16.2632 9.16016 16.7276 9.16016H18.4094C18.8739 9.16016 19.2504 9.53663 19.2504 10.0011C19.2504 10.4655 18.8739 10.842 18.4094 10.842H16.7276C16.2632 10.842 15.8867 10.4655 15.8867 10.0011Z" fill="#848BA8"/>
<path id="Vector_8" fill-rule="evenodd" clip-rule="evenodd" d="M5.54889 14.4494C5.87729 14.7778 5.87729 15.3102 5.54889 15.6386L4.70799 16.4795C4.37958 16.8079 3.84716 16.8079 3.51875 16.4795C3.19036 16.1512 3.19036 15.6187 3.51875 15.2903L4.35966 14.4494C4.68806 14.121 5.22049 14.121 5.54889 14.4494Z" fill="#848BA8"/>
<path id="Vector_9" fill-rule="evenodd" clip-rule="evenodd" d="M16.4805 3.51973C16.8089 3.84813 16.8089 4.38056 16.4805 4.70896L15.6396 5.54987C15.3112 5.87826 14.7788 5.87826 14.4504 5.54987C14.122 5.22147 14.122 4.68904 14.4504 4.36064L15.2913 3.51973C15.6197 3.19134 16.1521 3.19134 16.4805 3.51973Z" fill="#848BA8"/>
</g>
</svg>
