<svg width="16" height="16" viewBox="0 0 16 16" fill="none" xmlns="http://www.w3.org/2000/svg">
<g id="Group">
<path id="Vector" fill-rule="evenodd" clip-rule="evenodd" d="M1.26835 7.83079C1.24118 7.85795 1.23015 7.8891 1.23015 7.91562V10.6219C1.23015 11.094 1.61905 11.4829 2.09124 11.4829H3.15735C3.22771 11.4829 3.28041 11.4302 3.28041 11.3599V7.91562C3.28041 7.84905 3.22328 7.79261 3.15735 7.79261H1.35318C1.32665 7.79261 1.29552 7.80363 1.26835 7.83079ZM0 7.91562C0 7.17406 0.611664 6.5625 1.35318 6.5625H3.15735C3.91153 6.5625 4.51056 7.17849 4.51056 7.91562V11.3599C4.51056 12.1097 3.9071 12.7131 3.15735 12.7131H2.09124C0.939642 12.7131 0 11.7734 0 10.6219V7.91562Z" fill="white"/>
<path id="Vector_2" fill-rule="evenodd" clip-rule="evenodd" d="M7.99542 1.23011C5.16135 1.23011 2.8698 3.52159 2.8698 6.35557V7.18383C2.8698 7.52354 2.59442 7.79888 2.25472 7.79888C1.91503 7.79888 1.63965 7.52354 1.63965 7.18383V6.35557C1.63965 2.8422 4.48192 0 7.99542 0C11.5089 0 14.3512 2.8422 14.3512 6.35557V7.17566C14.3512 7.51532 14.0758 7.79072 13.7361 7.79072C13.3964 7.79072 13.1211 7.51532 13.1211 7.17566V6.35557C13.1211 3.52159 10.8295 1.23011 7.99542 1.23011Z" fill="white"/>
<path id="Vector_3" fill-rule="evenodd" clip-rule="evenodd" d="M13.775 11.4965C14.1081 11.5634 14.3238 11.8876 14.2569 12.2206C13.8231 14.3803 11.9186 16.0031 9.63534 16.0031H8.81527C8.47555 16.0031 8.2002 15.7277 8.2002 15.388C8.2002 15.0483 8.47555 14.773 8.81527 14.773H9.63534C11.3214 14.773 12.7302 13.5746 13.0508 11.9784C13.1177 11.6454 13.442 11.4296 13.775 11.4965Z" fill="white"/>
<path id="Vector_4" fill-rule="evenodd" clip-rule="evenodd" d="M12.7489 7.83079C12.7217 7.85795 12.7106 7.8891 12.7106 7.91562V11.3599C12.7106 11.4265 12.7677 11.4829 12.8337 11.4829H13.8588C14.3556 11.4829 14.7609 11.0776 14.7609 10.5808V7.91562C14.7609 7.84905 14.7038 7.79261 14.6379 7.79261H12.8337C12.8072 7.79261 12.776 7.80363 12.7489 7.83079ZM11.4805 7.91562C11.4805 7.17406 12.0921 6.5625 12.8337 6.5625H14.6379C15.392 6.5625 15.991 7.17849 15.991 7.91562V10.5808C15.991 11.757 15.035 12.7131 13.8588 12.7131H12.8337C12.0795 12.7131 11.4805 12.097 11.4805 11.3599V7.91562Z" fill="white"/>
</g>
</svg>
