<svg width="12" height="13" viewBox="0 0 12 13" fill="none" xmlns="http://www.w3.org/2000/svg">
<g id="012-tent" clip-path="url(#clip0_120_52902)">
<path id="Vector" d="M11.9999 4.49428C10.8315 3.99879 9.80951 3.47318 8.99719 2.99079C6.71513 1.63556 6.46875 0.857531 6.46875 0.585938H5.53125C5.53125 0.857531 5.28487 1.63556 3.00281 2.99077C2.19555 3.47018 1.17077 3.99811 0 4.49421V12.5859H12L11.9999 4.49428ZM0.9375 11.6484V6.93734C1.19053 7.07506 1.47778 7.14844 1.78125 7.14844C2.12264 7.14844 2.44273 7.05626 2.71875 6.89618V11.5451C2.42102 11.6126 2.10729 11.6484 1.78125 11.6484H0.9375ZM6 6.51166C6.34385 6.90169 6.84663 7.14844 7.40625 7.14844C7.74764 7.14844 8.06773 7.05626 8.34375 6.89618V11.2012C7.20574 10.6036 6.46875 9.45902 6.46875 8.08594H5.53125C5.53125 9.459 4.79426 10.6036 3.65625 11.2012V6.89618C3.93227 7.05626 4.25236 7.14844 4.59375 7.14844C5.15337 7.14844 5.65615 6.90169 6 6.51166ZM4.68855 11.6484C4.82655 11.5458 4.95909 11.4354 5.08514 11.3171C5.4653 10.9603 5.77237 10.547 5.99998 10.094C6.22758 10.547 6.53466 10.9603 6.91481 11.3171C7.04086 11.4354 7.1734 11.5458 7.3114 11.6484H4.68855ZM10.2188 11.6484C9.89271 11.6484 9.57898 11.6126 9.28125 11.5451V6.89618C9.55727 7.05626 9.87736 7.14844 10.2188 7.14844C10.5222 7.14844 10.8095 7.07506 11.0625 6.93734V11.6484H10.2188ZM10.2188 6.21094C9.70181 6.21094 9.28125 5.79037 9.28125 5.27344H8.34375C8.34375 5.79037 7.92319 6.21094 7.40625 6.21094C6.88931 6.21094 6.46875 5.79037 6.46875 5.27344H5.53125C5.53125 5.79037 5.11069 6.21094 4.59375 6.21094C4.07681 6.21094 3.65625 5.79037 3.65625 5.27344H2.71875C2.71875 5.79037 2.29819 6.21094 1.78125 6.21094C1.22733 6.21094 0.9375 5.7393 0.9375 5.27344V5.11062C1.41973 4.8938 2.44012 4.41462 3.47353 3.80159C4.6872 3.08161 5.52525 2.41383 6 1.78502C6.47475 2.41385 7.3128 3.08163 8.52647 3.80161C9.55987 4.41464 10.5803 4.89382 11.0625 5.11064V5.27344C11.0625 5.7393 10.7727 6.21094 10.2188 6.21094Z" fill="#7985A1"/>
</g>
<defs>
<clipPath id="clip0_120_52902">
<rect width="12" height="12" fill="white" transform="translate(0 0.585938)"/>
</clipPath>
</defs>
</svg>
