<svg xmlns="http://www.w3.org/2000/svg" width="18" height="18" viewBox="0 0 18 18" fill="none">
    <path d="M9 0C4.03741 0 0 4.03741 0 9.00005C0 13.9627 4.03741 18 9 18C13.9626 18 18 13.9626 18 9C18 4.03736 13.9626 0 9 0ZM9 16.4858C4.87235 16.4858 1.51422 13.1277 1.51422 9.00005C1.51422 4.8724 4.87235 1.51422 9 1.51422C13.1277 1.51422 16.4858 4.87235 16.4858 9.00005C16.4858 13.1278 13.1277 16.4858 9 16.4858Z" fill="#848BA8"/>
    <path d="M8.99912 3.37891C7.20326 3.37891 5.74219 4.83997 5.74219 6.63583C5.74219 7.05396 6.08117 7.39294 6.4993 7.39294C6.91742 7.39294 7.2564 7.05396 7.2564 6.63583C7.2564 5.67491 8.03819 4.89312 8.99912 4.89312C9.96004 4.89312 10.7418 5.67491 10.7418 6.63583C10.7418 7.59676 9.96004 8.37855 8.99912 8.37855C8.58099 8.37855 8.24201 8.71753 8.24201 9.13566V10.8475C8.24201 11.2656 8.58099 11.6046 8.99912 11.6046C9.41724 11.6046 9.75622 11.2656 9.75622 10.8475V9.80393C11.1882 9.46177 12.256 8.1711 12.256 6.63579C12.256 4.83997 10.795 3.37891 8.99912 3.37891Z" fill="#848BA8"/>
    <path d="M8.9974 14.4792C9.58277 14.4792 10.0573 14.0046 10.0573 13.4193C10.0573 12.8339 9.58277 12.3594 8.9974 12.3594C8.41203 12.3594 7.9375 12.8339 7.9375 13.4193C7.9375 14.0046 8.41203 14.4792 8.9974 14.4792Z" fill="#848BA8"/>
</svg>