<svg xmlns="http://www.w3.org/2000/svg" width="60" height="60" viewBox="0 0 60 60" fill="none">
    <path d="M0 30C0 13.4315 13.4315 0 30 0C46.5685 0 60 13.4315 60 30C60 46.5685 46.5685 60 30 60C13.4315 60 0 46.5685 0 30Z" fill="#303D5F"/>
    <path d="M15.5004 42C15.2131 42 14.9589 41.9318 14.738 41.7954C14.517 41.659 14.3451 41.479 14.2223 41.2554C14.0897 41.0355 14.0161 40.7977 14.0013 40.5421C13.9891 40.2853 14.0615 40.0267 14.2186 39.7662L28.7117 14.7446C28.8688 14.4841 29.0579 14.2949 29.2789 14.1769C29.4999 14.059 29.7405 14 30.0008 14C30.2611 14 30.5011 14.059 30.7208 14.1769C30.9406 14.2949 31.1297 14.4841 31.288 14.7446L45.7829 39.7662C45.9401 40.0267 46.0119 40.2847 45.9984 40.5403C45.9861 40.7983 45.9125 41.0367 45.7774 41.2554C45.6546 41.479 45.4828 41.659 45.2618 41.7954C45.0408 41.9318 44.7873 42 44.5012 42H15.5004ZM16.097 40.1569H43.9045L30.0008 16.1969L16.097 40.1569ZM30.0008 37.6061C30.3224 37.6061 30.5919 37.4974 30.8092 37.2799C31.0265 37.0624 31.1346 36.7927 31.1333 36.4708C31.1321 36.1489 31.0235 35.8798 30.8074 35.6635C30.5913 35.4473 30.3224 35.3379 30.0008 35.3354C29.6791 35.333 29.4103 35.4417 29.1942 35.6617C28.9781 35.8816 28.8695 36.1513 28.8682 36.4708C28.867 36.7902 28.9757 37.0599 29.1942 37.2799C29.4127 37.4998 29.6816 37.6086 30.0008 37.6061ZM30.0008 33.4942C30.2635 33.4942 30.4827 33.4057 30.6582 33.2288C30.8338 33.0519 30.9216 32.8332 30.9216 32.5727V25.2004C30.9216 24.9387 30.8332 24.7193 30.6564 24.5424C30.4796 24.3655 30.2604 24.2776 29.9989 24.2788C29.7374 24.2801 29.5189 24.3679 29.3433 24.5424C29.1678 24.7169 29.08 24.9362 29.08 25.2004V32.5727C29.08 32.8332 29.1684 33.0519 29.3452 33.2288C29.522 33.4057 29.7393 33.4942 30.0008 33.4942Z" fill="white"/>
</svg>