<svg width="52" height="33" viewBox="0 0 52 33" fill="none" xmlns="http://www.w3.org/2000/svg">
<g id="credit-card 1">
<g id="Group">
<g id="Group_2">
<path id="Vector" d="M14.1222 5H39.1667C41.2804 5 43 6.71963 43 8.83333V24.1667C43 26.2804 41.2804 28 39.1667 28H14.1222C12.0085 28 10.2889 26.2804 10.2889 24.1667V8.83333C10.2889 6.71963 12.0085 5 14.1222 5ZM12.8444 24.1667C12.8444 24.8712 13.4177 25.4444 14.1222 25.4444H39.1667C39.8712 25.4444 40.4444 24.8712 40.4444 24.1667V12.6667H12.8444V24.1667ZM12.8444 10.1111H40.4444V8.83333C40.4444 8.12877 39.8712 7.55556 39.1667 7.55556H14.1222C13.4177 7.55556 12.8444 8.12877 12.8444 8.83333V10.1111ZM15.1444 20.3333H25.3667V22.8889H15.1444V20.3333ZM30.4778 20.3333H33.0333V22.8889H30.4778V20.3333ZM35.5889 20.3333H38.1444V22.8889H35.5889V20.3333Z" fill="#848BA8"/>
</g>
</g>
</g>
</svg>
