<svg width="52" height="34" viewBox="0 0 52 34" fill="none" xmlns="http://www.w3.org/2000/svg">
    <path d="M36.5202 13.0359H43.2275M36.5202 8.76758H43.2275M29.2031 17.3042H43.2275M29.2031 21.5725H43.2275M29.2031 25.8407H43.2275" stroke="#848BA8" stroke-linecap="round"/>
    <path d="M22.19 29.5H7.29246C6.41085 29.5 5.695 28.7855 5.72764 27.9047C5.75996 27.0325 5.82543 26.0528 5.95806 25.6666C7.52058 21.1158 13.145 19.9257 15.383 19.9256C19.2637 19.9255 22.19 21.2991 22.19 21.2991M22.19 10.617C22.19 13.9954 19.4505 16.734 16.0713 16.734C12.692 16.734 9.9526 13.9954 9.9526 10.617C9.9526 7.23869 12.692 4.5 16.0713 4.5C19.4505 4.5 22.19 7.23869 22.19 10.617ZM28.5924 4.5H43.8363C45.1834 4.5 46.2753 5.59199 46.2753 6.93902L46.2751 28.2805C46.2751 28.954 45.7291 29.5 45.0556 29.5H27.3729C26.6994 29.5 26.1534 28.954 26.1534 28.2805V6.93902C26.1534 5.59199 27.2454 4.5 28.5924 4.5Z" stroke="#848BA8" stroke-linecap="round"/>
    <path d="M30.4226 8.1582C30.1978 8.1582 30.0161 8.33337 30.0161 8.55019V10.9021H29.6096C29.3848 10.9021 29.2031 11.0773 29.2031 11.2941C29.2031 11.5109 29.3848 11.6861 29.6096 11.6861H30.0161V12.0781H29.6096C29.3848 12.0781 29.2031 12.2532 29.2031 12.47C29.2031 12.6869 29.3848 12.862 29.6096 12.862H30.0161V13.254C30.0161 13.4708 30.1978 13.646 30.4226 13.646C30.6475 13.646 30.8291 13.4708 30.8291 13.254V12.862H32.8617C33.0865 12.862 33.2682 12.6869 33.2682 12.47C33.2682 12.2532 33.0865 12.0781 32.8617 12.0781H30.8291V11.6861H32.2519C33.2618 11.6861 34.0812 10.896 34.0812 9.92214C34.0812 8.9483 33.2618 8.1582 32.2519 8.1582H30.4226ZM32.2519 10.9021H30.8291V8.94218H32.2519C32.8134 8.94218 33.2682 9.38071 33.2682 9.92214C33.2682 10.4636 32.8134 10.9021 32.2519 10.9021Z" fill="#848BA8"/>
</svg>
