<svg width="15" height="15" viewBox="0 0 15 15" fill="none" xmlns="http://www.w3.org/2000/svg">
<path d="M13.6992 14.7586C13.9898 15.0492 14.468 15.0492 14.7586 14.7586C15.0492 14.468 15.0492 13.9898 14.7586 13.6992L8.54766 7.48828L14.7586 1.27734C15.0492 0.986719 15.0492 0.508594 14.7586 0.217969C14.468 -0.0726563 13.9898 -0.0726563 13.6992 0.217969L7.48828 6.42891L1.27734 0.217969C0.986719 -0.0726563 0.508594 -0.0726563 0.217969 0.217969C-0.0726563 0.508594 -0.0726563 0.986719 0.217969 1.27734L6.42891 7.48828L0.217969 13.6992C-0.0726563 13.9898 -0.0726563 14.468 0.217969 14.7586C0.508594 15.0492 0.986719 15.0492 1.27734 14.7586L7.48828 8.54766L13.6992 14.7586Z" fill="#919DAC"/>
</svg>
