<svg width="124" height="350" viewBox="0 0 124 350" fill="none" xmlns="http://www.w3.org/2000/svg">
    <path d="M94.001 291.5C95.6171 291.5 97.1986 291.634 98.7344 291.89L98.7393 291.891C99.1037 291.95 99.4388 292.216 99.5938 292.631L99.6484 292.818L101.113 299.508L101.281 300.275L102.008 300.574C103.734 301.284 105.353 302.226 106.82 303.354L107.442 303.831L108.189 303.594L114.717 301.52C115.151 301.381 115.585 301.485 115.868 301.731L115.979 301.846C116.881 302.937 117.704 304.093 118.437 305.314L118.961 306.22H118.962C119.513 307.213 120.003 308.234 120.429 309.286L120.706 310.041C120.856 310.448 120.742 310.947 120.361 311.29L120.354 311.297L115.28 315.914L114.699 316.442L114.803 317.221C114.923 318.132 114.989 319.062 114.989 320C114.989 320.938 114.923 321.868 114.803 322.779L114.699 323.558L115.28 324.086L120.354 328.703L120.361 328.71C120.742 329.052 120.855 329.549 120.707 329.956C120.221 331.27 119.635 332.533 118.958 333.755L118.425 334.674C117.691 335.896 116.869 337.053 115.966 338.146L115.961 338.15C115.731 338.431 115.331 338.588 114.895 338.515L114.705 338.469L108.178 336.395L107.431 336.157L106.809 336.635C105.341 337.763 103.722 338.704 101.996 339.414L101.27 339.713L101.102 340.48L99.6367 347.17C99.522 347.692 99.1441 348.03 98.7275 348.098L98.7227 348.099C97.1869 348.355 95.6054 348.488 93.9893 348.488C92.3729 348.488 90.7908 348.355 89.2549 348.099L89.25 348.098L89.0957 348.06C88.7933 347.959 88.5283 347.713 88.3955 347.357L88.3408 347.17L86.876 340.48L86.708 339.713L85.9814 339.414L85.3389 339.137C83.8526 338.466 82.4528 337.622 81.1689 336.635L80.5459 336.156L79.7969 336.396L73.2842 338.48C72.8503 338.619 72.416 338.515 72.1328 338.269L72.0215 338.154C71.2325 337.199 70.5043 336.195 69.8438 335.141L69.5645 334.686L69.0322 333.769C68.3548 332.546 67.7683 331.282 67.2822 329.968C67.134 329.561 67.2477 329.064 67.6279 328.722L67.6348 328.715L72.709 324.098L73.2891 323.57L73.1875 322.794C73.0664 321.869 73.001 320.938 73.001 320C73.001 319.062 73.0658 318.132 73.1865 317.221L73.29 316.442L72.709 315.914L67.6348 311.297L67.6279 311.29C67.2477 310.948 67.134 310.451 67.2822 310.044C67.7089 308.89 68.2131 307.776 68.7881 306.693L69.0391 306.231L69.5645 305.326C70.2978 304.104 71.1207 302.947 72.0234 301.854L72.0283 301.85C72.2583 301.569 72.6593 301.412 73.0957 301.485L73.2842 301.531L79.8115 303.605L80.5586 303.843L81.1807 303.365C82.648 302.237 84.2671 301.296 85.9932 300.586L86.7197 300.287L86.8877 299.52L88.3525 292.83C88.4673 292.308 88.8451 291.97 89.2617 291.902L89.2695 291.901L89.2773 291.899C90.8063 291.634 92.3847 291.5 94.001 291.5ZM94.001 309.125C91.1167 309.125 88.35 310.271 86.3105 312.311C84.2713 314.35 83.126 317.116 83.126 320C83.126 322.884 84.2713 325.65 86.3105 327.689C88.35 329.729 91.1167 330.875 94.001 330.875C96.885 330.875 99.6511 329.729 101.69 327.689C103.73 325.65 104.876 322.884 104.876 320C104.876 317.116 103.73 314.35 101.69 312.311C99.6511 310.271 96.885 309.125 94.001 309.125Z" stroke="#C7CDDB" stroke-width="3"/>
    <path d="M48.0098 189.5C50.8113 189.5 53.5539 189.732 56.2178 190.177L56.2227 190.178C57.3172 190.356 58.2212 191.183 58.5596 192.332L58.6201 192.565L61.1064 203.942L61.2744 204.709L62 205.009C65.0176 206.252 67.8473 207.898 70.4102 209.871L71.0322 210.351L71.7803 210.112L82.8604 206.585H82.8613C84.0735 206.199 85.3683 206.56 86.1221 207.465V207.466C87.6871 209.362 89.1157 211.373 90.3887 213.498L91.2969 215.068H91.2979C92.323 216.92 93.2296 218.827 94.0059 220.803L93.9951 220.814L94.3262 221.714C94.738 222.836 94.4027 224.132 93.457 224.983L93.4502 224.989L84.8369 232.84L84.2568 233.368L84.3604 234.146C84.571 235.738 84.6855 237.366 84.6855 239.01C84.6855 240.654 84.571 242.282 84.3604 243.874L84.2568 244.651L84.8369 245.18L93.4502 253.03L93.457 253.037C94.402 253.888 94.7376 255.182 94.3271 256.304C93.4805 258.597 92.4588 260.798 91.2812 262.926L90.3691 264.501C89.0961 266.626 87.6676 268.637 86.1025 270.534L86.0986 270.539C85.3999 271.393 84.2248 271.759 83.0713 271.479L82.8408 271.415L71.7598 267.888L71.0117 267.649L70.3896 268.129C67.8269 270.102 64.9979 271.748 61.9805 272.991L61.2539 273.291L61.0869 274.058L58.5996 285.436C58.3206 286.705 57.3701 287.632 56.2031 287.822L56.1973 287.823C53.5336 288.268 50.7915 288.5 47.9902 288.5C45.1887 288.5 42.4461 288.268 39.7822 287.823L39.7773 287.822L39.5605 287.778C38.5643 287.532 37.7562 286.741 37.4404 285.668L37.3799 285.435L34.8936 274.058L34.7256 273.291L34 272.991L33.4365 272.754C30.6297 271.541 27.9926 269.979 25.5898 268.129L24.9668 267.648L24.2168 267.889L13.1592 271.435C12.0212 271.797 10.8107 271.501 10.043 270.715L9.89551 270.551C8.336 268.661 6.91209 266.657 5.64258 264.54L4.7207 262.949C3.68963 261.087 2.77814 259.168 1.99902 257.181L1.67285 256.324C1.26207 255.202 1.59787 253.907 2.54297 253.057L2.5498 253.051L11.1631 245.199L11.7422 244.673L11.6406 243.896C11.4296 242.282 11.3145 240.654 11.3145 239.01C11.3145 237.366 11.429 235.738 11.6396 234.146L11.7432 233.368L11.1631 232.84L2.5498 224.989L2.54297 224.983L2.37305 224.818C1.55848 223.971 1.28771 222.766 1.67383 221.714L1.67285 221.713C2.41412 219.705 3.29056 217.769 4.28711 215.891L4.72168 215.088L5.6416 213.499C6.91178 211.381 8.337 209.376 9.89746 207.485L9.90137 207.48C10.6002 206.626 11.7751 206.262 12.9287 206.541L13.1592 206.605L24.2402 210.132L24.9883 210.37L25.6104 209.892C28.1732 207.918 31.002 206.272 34.0195 205.028L34.7461 204.729L34.9131 203.962L37.4004 192.584L37.3994 192.583C37.6788 191.314 38.6302 190.388 39.7969 190.197L39.8125 190.195C42.4695 189.732 45.2083 189.5 48.0098 189.5ZM48.0098 221.569C43.3904 221.569 38.961 223.408 35.6953 226.679C32.4298 229.95 30.5958 234.385 30.5957 239.01C30.5957 243.635 32.4297 248.071 35.6953 251.342C38.9609 254.613 43.3905 256.45 48.0098 256.45C52.6292 256.45 57.0595 254.613 60.3252 251.342C63.5908 248.071 65.4248 243.634 65.4248 239.01C65.4248 234.385 63.5905 229.95 60.3252 226.679C57.0595 223.408 52.6292 221.569 48.0098 221.569Z" stroke="#C7CDDB" stroke-width="3"/>
    <path d="M91.5059 1.25C93.0885 1.25001 94.6373 1.38221 96.1416 1.63574L96.1465 1.63672C96.6062 1.71265 97.0165 2.06995 97.1738 2.61035L97.2021 2.7207L98.627 9.30078L98.7646 9.93945L99.3682 10.1904C101.064 10.8958 102.654 11.8297 104.096 12.9502L104.617 13.3555L105.246 13.1533L111.594 11.1133H111.595C112.11 10.9476 112.643 11.087 112.975 11.4297L113.038 11.501C113.812 12.4476 114.526 13.4436 115.174 14.4893L115.447 14.9414L115.974 15.8594C116.51 16.8392 116.987 17.8459 117.402 18.8848V18.8857L117.673 19.6289C117.854 20.128 117.71 20.7193 117.277 21.1123L117.271 21.1172L111.859 26.0977L111.943 26.7402C112.062 27.6461 112.127 28.572 112.127 29.5059C112.127 30.4396 112.062 31.3648 111.943 32.2705L111.859 32.9141L117.271 37.8945L117.277 37.8994C117.709 38.292 117.854 38.8821 117.674 39.3809C117.198 40.682 116.625 41.9315 115.963 43.1406L115.427 44.0742C114.71 45.2809 113.906 46.4238 113.024 47.502L113.021 47.5059C112.704 47.8971 112.142 48.0666 111.583 47.8867H111.582L105.234 45.8467L104.605 45.6445L104.085 46.0498C102.643 47.1704 101.052 48.1042 99.3564 48.8096L98.7539 49.0605L98.6152 49.6992L97.1904 56.2793C97.0596 56.8813 96.6251 57.2824 96.1348 57.3633L96.1299 57.3643C94.6256 57.6178 93.0767 57.75 91.4941 57.75C89.9115 57.75 88.3627 57.6178 86.8584 57.3643L86.8535 57.3633L86.7627 57.3447C86.3404 57.2394 85.973 56.8942 85.8262 56.3896L85.7979 56.2793L84.373 49.6992L84.2354 49.0605L83.6318 48.8096L83.001 48.5342C81.5411 47.8675 80.1656 47.0302 78.9043 46.0498L78.3818 45.6436L77.752 45.8467L71.415 47.8984C70.9001 48.0633 70.3681 47.9242 70.0371 47.582L69.9736 47.5107C69.0932 46.4333 68.2897 45.2917 67.5732 44.0859L67.0371 43.1523C66.3753 41.9431 65.8019 40.6929 65.3262 39.3916C65.146 38.893 65.2909 38.3035 65.7227 37.9111L65.7285 37.9062L70.6631 33.3643L71.1396 32.9268L71.0566 32.2842C70.9377 31.3653 70.8731 30.4394 70.873 29.5059C70.873 28.572 70.9379 27.6461 71.0566 26.7402L71.1406 26.0977L65.7285 21.1172L65.7227 21.1123L65.6445 21.0361C65.273 20.6456 65.157 20.0967 65.3271 19.6289L65.3262 19.6279C65.7447 18.4836 66.2404 17.3798 66.8037 16.3076L67.0488 15.8496L67.5635 14.9531C68.2828 13.7407 69.0906 12.5925 69.9756 11.5098L69.9785 11.5059C70.2956 11.1146 70.8576 10.9451 71.417 11.125H71.418L77.7656 13.165L78.3945 13.3672L78.915 12.9619C80.3566 11.8413 81.948 10.9076 83.6436 10.2021L84.2461 9.95117L84.3848 9.3125L85.8096 2.73242C85.9404 2.13041 86.3749 1.72931 86.8652 1.64844L86.8779 1.64648C88.3766 1.38291 89.9231 1.25 91.5059 1.25ZM91.5059 19.0352C88.7516 19.0352 86.1131 20.1423 84.1699 22.1074C82.2272 24.0721 81.1377 26.7334 81.1377 29.5059C81.1377 32.2783 82.2272 34.9397 84.1699 36.9043C86.1131 38.8694 88.7516 39.9766 91.5059 39.9766C94.26 39.9765 96.8986 38.8694 98.8418 36.9043C100.784 34.9397 101.873 32.2782 101.873 29.5059C101.873 26.7335 100.784 24.0721 98.8418 22.1074C96.8986 20.1423 94.26 19.0352 91.5059 19.0352Z" stroke="#C7CDDB" stroke-width="2.5"/>
</svg>
