<svg width="253" height="241" viewBox="0 0 253 241" fill="none" xmlns="http://www.w3.org/2000/svg">
    <path d="M208.999 146.25C211.367 146.25 213.685 146.446 215.935 146.821L215.942 146.822C216.531 146.918 217.07 147.396 217.234 148.144L219.383 157.956L219.635 159.107L220.725 159.556C223.252 160.595 225.624 161.973 227.772 163.625L228.704 164.341L229.824 163.985L239.398 160.942C240.063 160.731 240.725 160.917 241.121 161.321L241.197 161.405C242.353 162.804 243.42 164.276 244.388 165.82L244.797 166.487L245.575 167.829C246.377 169.276 247.089 170.761 247.709 172.293L248.12 173.411C248.332 173.988 248.174 174.699 247.629 175.188H247.628L247.618 175.198L240.176 181.97L239.305 182.763L239.46 183.93C239.637 185.264 239.732 186.626 239.732 188C239.732 189.374 239.637 190.736 239.46 192.07L239.305 193.237L240.176 194.03L247.618 200.802L247.629 200.812C248.174 201.301 248.332 202.012 248.12 202.589C247.409 204.512 246.551 206.359 245.561 208.148L244.779 209.495C243.705 211.286 242.499 212.982 241.176 214.582L241.17 214.59C240.799 215.043 240.108 215.271 239.382 215.04H239.381L229.808 211.998L228.687 211.642L227.755 212.358C225.606 214.01 223.235 215.387 220.707 216.427L219.617 216.875L219.365 218.026L217.217 227.841C217.052 228.587 216.513 229.064 215.925 229.16L215.917 229.162C213.667 229.537 211.35 229.732 208.982 229.732C206.615 229.732 204.298 229.537 202.048 229.162L202.04 229.16L201.93 229.138C201.421 229.012 200.966 228.6 200.782 227.976L200.747 227.839L198.599 218.026L198.347 216.875L197.257 216.427C194.73 215.387 192.359 214.01 190.21 212.358L189.275 211.64L188.152 211.999L178.6 215.058C177.891 215.283 177.185 215.056 176.802 214.595C175.48 212.996 174.276 211.302 173.202 209.513L172.423 208.17C171.431 206.38 170.573 204.531 169.861 202.606C169.649 202.03 169.808 201.318 170.354 200.828L170.363 200.819L177.806 194.047L178.675 193.256L178.522 192.091C178.345 190.737 178.249 189.373 178.249 188C178.249 186.626 178.346 185.264 178.522 183.93L178.677 182.763L177.806 181.97L170.363 175.198L170.354 175.188L170.256 175.095C169.79 174.611 169.661 173.951 169.86 173.41C170.572 171.486 171.431 169.636 172.423 167.846L173.202 166.505C174.277 164.714 175.483 163.018 176.806 161.418L176.812 161.41C177.183 160.957 177.874 160.729 178.6 160.96H178.601L188.174 164.002L189.295 164.358L190.227 163.642C192.375 161.99 194.747 160.613 197.274 159.573L198.364 159.125L198.616 157.974L200.765 148.161C200.929 147.414 201.468 146.936 202.057 146.84L202.08 146.836C204.32 146.446 206.631 146.25 208.999 146.25ZM208.999 172C204.756 172 200.686 173.686 197.686 176.687C194.685 179.687 192.999 183.757 192.999 188C192.999 192.243 194.685 196.313 197.686 199.313C200.686 202.314 204.756 204 208.999 204C213.242 204 217.313 202.314 220.313 199.313C223.314 196.313 224.999 192.243 224.999 188C224.999 183.757 223.314 179.687 220.313 176.687C217.313 173.686 213.242 172 208.999 172Z" stroke="#C7CDDB" stroke-width="4.5"/>
    <path d="M187.5 2.5C190.732 2.5 193.896 2.76729 196.968 3.2793L196.976 3.28125C198.01 3.44998 198.9 4.27803 199.166 5.48438V5.48535L202.071 18.7568L202.352 20.0361L203.562 20.5342C207.026 21.9589 210.274 23.8453 213.217 26.1074L214.252 26.9033L215.497 26.5078L228.443 22.3945L228.444 22.3936C229.594 22.0278 230.782 22.3812 231.453 23.1836V23.1846C233.033 25.0959 234.492 27.1075 235.814 29.2188L236.373 30.1299L237.423 31.9375V31.9385C238.526 33.9282 239.507 35.973 240.36 38.083V38.084L240.912 39.585C241.28 40.5863 240.991 41.778 240.1 42.5791L240.094 42.585L240.088 42.5898L230.024 51.7471L229.057 52.6279L229.229 53.9248C229.471 55.7513 229.603 57.6171 229.603 59.5C229.603 61.3829 229.471 63.2487 229.229 65.0752L229.057 66.3721L230.024 67.2529L240.088 76.4102L240.094 76.415L240.1 76.4209C240.99 77.221 241.279 78.4105 240.913 79.4111C239.937 82.0508 238.759 84.5856 237.399 87.0381L236.35 88.8467C234.882 91.2922 233.236 93.6076 231.431 95.792L231.424 95.7998C230.767 96.6014 229.592 96.9557 228.421 96.583H228.42L215.474 92.4688L214.229 92.0732L213.193 92.8691C210.25 95.1313 207.002 97.0186 203.539 98.4434L202.328 98.9414L202.048 100.221L199.143 113.491C198.877 114.698 197.988 115.527 196.953 115.696L196.944 115.697C193.872 116.209 190.709 116.477 187.478 116.477C184.246 116.477 181.082 116.209 178.01 115.697L178.002 115.696L177.81 115.656C176.858 115.422 176.061 114.623 175.812 113.491L172.906 100.221L172.626 98.9414L171.415 98.4434L170.769 98.1699C167.547 96.7804 164.52 94.9899 161.761 92.8691L160.723 92.0713L159.475 92.4707L146.55 96.6074C145.471 96.948 144.361 96.6571 143.675 95.9561L143.543 95.8105C141.965 93.9007 140.508 91.8907 139.187 89.7812L138.628 88.8701L137.578 87.0615C136.388 84.9156 135.337 82.7069 134.439 80.4199L134.064 79.4346C133.698 78.4339 133.987 77.2435 134.878 76.4434L134.884 76.4385L134.889 76.4336L144.953 67.2754L145.919 66.3965L145.749 65.1025C145.506 63.2496 145.375 61.3823 145.375 59.5C145.375 57.6171 145.507 55.7513 145.749 53.9248L145.921 52.6279L144.953 51.7471L134.889 42.5898L134.878 42.5791L134.718 42.4248C133.954 41.6311 133.721 40.5269 134.064 39.5889C135.04 36.9492 136.217 34.4135 137.577 31.9609L138.628 30.1533C140.095 27.7078 141.741 25.3924 143.547 23.208L143.554 23.2002C144.211 22.3986 145.385 22.0443 146.557 22.417H146.558L159.503 26.5312L160.748 26.9268L161.784 26.1309C164.727 23.8687 167.975 21.9814 171.438 20.5566L172.649 20.0586L172.93 18.7793L175.834 5.50781C176.1 4.30137 176.99 3.47255 178.024 3.30371L178.038 3.30176L178.051 3.2998C181.111 2.76755 184.268 2.50002 187.5 2.5ZM187.5 38.4062C181.906 38.4063 176.541 40.6284 172.585 44.584C168.629 48.5398 166.406 53.9056 166.406 59.5C166.406 65.0944 168.629 70.4602 172.585 74.416C176.541 78.3716 181.906 80.5937 187.5 80.5938C193.094 80.5938 198.46 78.3717 202.416 74.416C206.372 70.4602 208.594 65.0944 208.594 59.5C208.594 53.9056 206.372 48.5398 202.416 44.584C198.46 40.6283 193.094 38.4062 187.5 38.4062Z" stroke="#C7CDDB" stroke-width="5"/>
    <path d="M73.5 96.5C77.5248 96.5 81.4645 96.833 85.291 97.4707L85.2998 97.4727C86.8378 97.7234 88.1098 98.9453 88.4854 100.649V100.65L92.0742 117.044L92.3545 118.323L93.5654 118.821C97.8927 120.602 101.95 122.959 105.626 125.784L106.662 126.58L107.906 126.185L123.898 121.103H123.899C125.431 120.615 127.045 121.018 128.059 122.055L128.253 122.271C130.219 124.649 132.034 127.153 133.681 129.781L134.377 130.917L135.688 133.175C137.123 135.764 138.393 138.429 139.488 141.185L139.479 141.194L140.031 142.695C140.575 144.173 140.138 145.896 138.869 147.036L138.857 147.046L126.426 158.358L125.458 159.239L125.63 160.536C125.932 162.816 126.097 165.147 126.097 167.5C126.097 169.853 125.932 172.184 125.63 174.464L125.458 175.761L126.426 176.642L138.857 187.954L138.869 187.964C140.138 189.104 140.575 190.827 140.031 192.305C138.818 195.585 137.355 198.732 135.668 201.777L134.349 204.055C132.52 207.102 130.468 209.986 128.22 212.706L128.213 212.714C127.233 213.909 125.524 214.395 123.871 213.869L123.87 213.868L107.878 208.787L106.633 208.392L105.598 209.188C101.922 212.013 97.8644 214.37 93.5371 216.15L92.3262 216.648L92.0459 217.928L88.457 234.319C88.0821 236.025 86.8103 237.248 85.2715 237.499L85.2627 237.5C81.436 238.138 77.4966 238.472 73.4717 238.472C69.4468 238.472 65.5073 238.138 61.6807 237.5L61.6719 237.499L61.3867 237.44C59.9781 237.093 58.8383 235.919 58.4863 234.321L54.8975 217.928L54.6172 216.648L53.4062 216.15L52.5977 215.81C48.573 214.073 44.7916 211.836 41.3457 209.188L40.3076 208.389L39.0605 208.788L23.0928 213.898C21.5632 214.382 19.9545 213.98 18.9424 212.945L18.748 212.729C16.5071 210.018 14.4613 207.144 12.6377 204.107L11.293 201.789C9.60997 198.749 8.15114 195.607 6.94043 192.333C6.3972 190.856 6.83361 189.133 8.10254 187.993L8.1084 187.987L8.11426 187.982L20.5459 176.67L21.5117 175.791L21.3418 174.497C21.039 172.185 20.875 169.853 20.875 167.5C20.875 165.147 21.0396 162.816 21.3418 160.536L21.5137 159.239L20.5459 158.358L8.11426 147.046L8.10254 147.036L7.87402 146.815C6.78248 145.681 6.43105 144.08 6.94043 142.695L6.93945 142.694C8.15354 139.412 9.61871 136.261 11.3076 133.214L12.6416 130.913C14.4651 127.878 16.5113 125.005 18.752 122.294L18.7588 122.286C19.7382 121.091 21.4481 120.605 23.1006 121.131L23.1016 121.132L39.0938 126.213L40.3389 126.608L41.375 125.812C45.0506 122.987 49.1075 120.63 53.4346 118.85L54.6465 118.352L54.9258 117.072L58.5146 100.681C58.8895 98.9753 60.1615 97.752 61.7002 97.501L61.7139 97.499L61.7266 97.4971C65.5418 96.8336 69.4751 96.5 73.5 96.5ZM73.5 142.031C66.7454 142.031 60.2675 144.715 55.4912 149.491C50.715 154.268 48.0312 160.745 48.0312 167.5C48.0312 174.255 50.715 180.732 55.4912 185.509C60.2675 190.285 66.7454 192.969 73.5 192.969C80.2547 192.969 86.7334 190.285 91.5098 185.509C96.2859 180.733 98.9688 174.255 98.9688 167.5C98.9688 160.745 96.2859 154.267 91.5098 149.491C86.7334 144.715 80.2547 142.031 73.5 142.031Z" stroke="#C7CDDB" stroke-width="5"/>
</svg>
