<svg width="168" height="22" viewBox="0 0 168 22" fill="none" xmlns="http://www.w3.org/2000/svg">
<g id="FunStore">
<path id="Vector" d="M163.586 14.3804H154.246C154.399 15.2208 154.771 15.9084 155.364 16.4432C155.975 16.959 156.834 17.2168 157.942 17.2168C158.744 17.2168 159.499 17.064 160.205 16.7584C160.912 16.4337 161.476 15.9848 161.896 15.4118C163.176 16.0421 164.876 16.7202 166.996 17.446C166.404 18.783 165.324 19.8527 163.758 20.6549C162.211 21.438 160.186 21.8296 157.684 21.8296C154.437 21.8296 152.03 21.0846 150.464 19.5948C148.917 18.0859 148.144 16.109 148.144 13.6641C148.144 11.2766 148.917 9.33787 150.464 7.84803C152.011 6.3582 154.418 5.61328 157.684 5.61328C159.632 5.61328 161.323 5.93799 162.755 6.58741C164.188 7.23682 165.286 8.14409 166.05 9.30922C166.814 10.4552 167.196 11.7732 167.196 13.263C167.196 13.7596 167.177 14.1321 167.139 14.3804H163.586ZM158.085 9.93953C157.13 9.93953 156.347 10.121 155.736 10.4839C155.125 10.8468 154.695 11.3434 154.447 11.9737H161.208C160.979 11.3625 160.607 10.8755 160.091 10.5125C159.575 10.1305 158.907 9.93953 158.085 9.93953Z" fill="white"/>
<path id="Vector_2" d="M138.55 10.1348C139.352 7.25068 141.348 5.80859 144.538 5.80859C145.092 5.80859 145.627 5.84679 146.143 5.9232L145.226 12.3409C143.851 11.8252 142.724 11.5674 141.845 11.5674C140.756 11.5674 139.954 11.8921 139.438 12.5415C138.923 13.1909 138.665 14.06 138.665 15.1487V15.1201L138.636 17.011C138.636 18.3671 138.674 19.8761 138.751 21.5378H131.903C132.056 18.7873 132.133 16.1897 132.133 13.7448C132.133 11.3 132.056 8.68321 131.903 5.89455C133.164 5.95185 134.129 5.9805 134.797 5.9805C135.504 5.9805 136.468 5.95185 137.691 5.89455L138.55 10.1348Z" fill="white"/>
<path id="Vector_3" d="M119.171 21.8296C115.905 21.8296 113.498 21.0846 111.951 19.5948C110.423 18.0859 109.659 16.109 109.659 13.6641C109.659 11.2766 110.423 9.33787 111.951 7.84803C113.498 6.3582 115.905 5.61328 119.171 5.61328C121.368 5.61328 123.201 5.97619 124.672 6.70201C126.162 7.40872 127.26 8.3733 127.967 9.59573C128.674 10.7991 129.027 12.1552 129.027 13.6641C129.027 16.1281 128.206 18.105 126.563 19.5948C124.94 21.0846 122.476 21.8296 119.171 21.8296ZM119.286 16.959C120.527 16.959 121.454 16.6629 122.065 16.0708C122.676 15.4787 122.982 14.686 122.982 13.6928C122.982 12.7569 122.676 11.9928 122.065 11.4007C121.454 10.7895 120.527 10.4839 119.286 10.4839C118.044 10.4839 117.137 10.78 116.564 11.3721C115.991 11.9642 115.704 12.7378 115.704 13.6928C115.704 14.686 115.991 15.4787 116.564 16.0708C117.137 16.6629 118.044 16.959 119.286 16.959Z" fill="white"/>
<path id="Vector_4" d="M107.377 11.0261C105.62 10.9115 104.016 10.8256 102.564 10.7683L102.535 13.8053C102.535 14.8367 102.755 15.6484 103.194 16.2406C103.653 16.8136 104.455 17.1001 105.601 17.1001C106.04 17.1001 106.461 17.0619 106.862 16.9855C106.785 17.6922 106.747 18.4085 106.747 19.1343C106.747 19.4781 106.766 20.2612 106.804 21.4836C105.964 21.6364 105.257 21.7319 104.684 21.7701C104.111 21.8083 103.366 21.8274 102.449 21.8274C100.215 21.8274 98.6293 21.2926 97.6934 20.223C96.7766 19.1343 96.3182 17.6253 96.3182 15.6962L96.3468 10.8542C95.4491 10.8924 94.5132 10.9497 93.5391 11.0261V5.95497C94.5323 5.95497 95.3727 5.63981 96.0603 5.0095C96.7479 4.37918 97.1586 3.62471 97.2923 2.74609H105.085C104.111 4.08312 103.032 5.15275 101.848 5.95497H107.377V11.0261Z" fill="white"/>
<path id="Vector_5" d="M67.0703 19.0774C67.7197 18.1033 68.2545 17.196 68.6748 16.3556C69.1141 15.5152 69.5343 14.5411 69.9354 13.4332C71.2915 14.2163 72.8673 14.8276 74.6627 15.2669C76.4582 15.7062 78.1295 15.9258 79.6766 15.9258C81.2619 15.9258 82.3793 15.7921 83.0287 15.5247C83.6782 15.2382 84.0029 14.9326 84.0029 14.6079C84.0029 13.4428 82.2265 12.8602 78.6738 12.8602C74.7773 12.8602 71.9505 12.4591 70.1932 11.6569C68.436 10.8356 67.5574 9.51764 67.5574 7.7031C67.5574 5.12454 68.627 3.22404 70.7663 2.00161C72.9055 0.779183 75.6846 0.167969 79.1036 0.167969C81.09 0.167969 83.1242 0.425825 85.2062 0.941537C87.3072 1.43815 89.1982 2.12576 90.879 3.00439C90.3251 4.26502 89.7425 5.8026 89.1313 7.61714C89.0167 7.99915 88.9212 8.28566 88.8448 8.47666C87.8707 7.69355 86.4 7.04413 84.4326 6.52842C82.4653 5.99361 80.7271 5.7262 79.2182 5.7262C77.4037 5.7262 76.1812 5.85035 75.5509 6.09866C74.9206 6.32786 74.6054 6.67167 74.6054 7.13008C74.6054 7.58849 75.0352 7.96095 75.8947 8.24746C76.7733 8.51487 78.034 8.64857 79.6766 8.64857C83.7259 8.64857 86.6674 9.11653 88.501 10.0525C90.3347 10.9693 91.2515 12.3827 91.2515 14.2928C91.2515 16.9668 90.2774 18.896 88.3291 20.0802C86.3809 21.2453 83.4298 21.8279 79.4761 21.8279C77.3559 21.8279 75.1976 21.5987 73.001 21.1403C70.8044 20.6628 68.8276 19.9751 67.0703 19.0774Z" fill="white"/>
<path id="Vector_6" d="M57.4638 21.5431C57.5784 18.7353 57.6357 16.1472 57.6357 13.7787C57.6357 12.9383 57.4256 12.2698 57.0054 11.7732C56.6043 11.2766 56.0886 11.0283 55.4583 11.0283C54.8279 11.0283 54.2931 11.3148 53.8538 11.8878C53.4145 12.4417 53.1566 13.2057 53.0802 14.1798C53.042 15.6315 53.0229 16.6629 53.0229 17.2741C53.0229 18.5729 53.0611 19.9959 53.1375 21.5431H46.29C46.4428 18.7926 46.5192 16.1949 46.5192 13.7501C46.5192 11.3052 46.4428 8.68845 46.29 5.89979C47.5507 5.95709 48.5152 5.98574 49.1838 5.98574C49.8905 5.98574 50.855 5.95709 52.0775 5.89979L52.9083 10.1114C53.3477 8.5834 54.0353 7.45648 54.9712 6.73066C55.9071 5.98574 56.9958 5.61328 58.2374 5.61328C59.3834 5.61328 60.3766 5.87114 61.217 6.38685C62.0575 6.88346 62.6878 7.56153 63.108 8.42105C63.5473 9.28057 63.7669 10.2451 63.7669 11.3148V15.4405C63.7669 17.9808 63.8147 20.015 63.9102 21.5431H57.4638Z" fill="white"/>
<path id="Vector_7" d="M43.1299 5.89844C42.9962 8.30509 42.9294 10.9028 42.9294 13.6914C42.9294 16.4992 42.9962 19.1159 43.1299 21.5417C41.9075 21.4844 40.9429 21.4558 40.2362 21.4558C39.5677 21.4558 38.6031 21.4844 37.3425 21.5417L36.5116 17.3301C36.0723 18.8581 35.3847 19.9946 34.4488 20.7395C33.5129 21.4653 32.4241 21.8282 31.1826 21.8282C30.0366 21.8282 29.0433 21.5799 28.2029 21.0833C27.3625 20.5676 26.7226 19.88 26.2833 19.0204C25.8631 18.1609 25.653 17.1964 25.653 16.1267V12.001C25.653 9.46067 25.6053 7.42647 25.5098 5.89844H31.9562C31.8416 8.7062 31.7843 11.4853 31.7843 14.2358C31.7843 15.0762 31.9848 15.7447 32.3859 16.2413C32.8061 16.7379 33.3314 16.9862 33.9617 16.9862C34.5538 16.9862 35.0695 16.7284 35.5089 16.2127C35.9673 15.6779 36.2442 14.952 36.3397 14.0352V13.3763C36.3779 11.8864 36.397 10.855 36.397 10.282C36.397 8.96406 36.3588 7.50287 36.2824 5.89844H43.1299Z" fill="white"/>
<path id="Vector_8" d="M22.3475 6.09986H6.76156V9.10818C7.73568 9.12729 9.19687 9.13684 11.1451 9.13684C14.5068 9.13684 17.9258 9.07953 21.4021 8.96493V14.5805C17.9258 14.4468 14.2585 14.3799 10.4002 14.3799C8.79576 14.3799 7.58288 14.3895 6.76156 14.4086V21.5426H0C0.152804 17.8371 0.229205 14.3704 0.229205 11.1424C0.229205 7.91441 0.152804 4.44767 0 0.742188H22.3475V6.09986Z" fill="white"/>
</g>
</svg>
