<svg width="147" height="19" viewBox="0 0 147 19" fill="none" xmlns="http://www.w3.org/2000/svg">
<g id="FunStore">
<path id="Vector" d="M143.348 12.4095H135.192C135.325 13.1434 135.65 13.7438 136.167 14.2108C136.701 14.6611 137.452 14.8863 138.419 14.8863C139.12 14.8863 139.778 14.7529 140.395 14.486C141.013 14.2025 141.505 13.8105 141.872 13.3102C142.989 13.8606 144.473 14.4527 146.325 15.0865C145.808 16.254 144.865 17.188 143.498 17.8885C142.147 18.5723 140.379 18.9143 138.194 18.9143C135.358 18.9143 133.257 18.2638 131.889 16.9628C130.538 15.6452 129.863 13.9189 129.863 11.784C129.863 9.69919 130.538 8.00628 131.889 6.70533C133.24 5.40438 135.342 4.75391 138.194 4.75391C139.895 4.75391 141.371 5.03745 142.622 5.60453C143.873 6.17161 144.832 6.96385 145.499 7.98126C146.166 8.982 146.5 10.1328 146.5 11.4338C146.5 11.8674 146.483 12.1927 146.45 12.4095H143.348ZM138.544 8.53167C137.71 8.53167 137.026 8.69012 136.493 9.00701C135.959 9.32391 135.584 9.75756 135.367 10.308H141.271C141.071 9.77424 140.746 9.34893 140.295 9.03203C139.845 8.69846 139.261 8.53167 138.544 8.53167Z" fill="#021231"/>
<path id="Vector_2" d="M121.484 8.70745C122.185 6.18894 123.928 4.92969 126.713 4.92969C127.197 4.92969 127.664 4.96304 128.114 5.02976L127.314 10.6339C126.113 10.1835 125.129 9.95836 124.362 9.95836C123.411 9.95836 122.71 10.2419 122.26 10.809C121.81 11.3761 121.584 12.135 121.584 13.0856V13.0606L121.559 14.7118C121.559 15.896 121.593 17.2137 121.66 18.6647H115.68C115.814 16.263 115.88 13.9946 115.88 11.8598C115.88 9.72486 115.814 7.43985 115.68 5.00474C116.781 5.05478 117.623 5.0798 118.207 5.0798C118.824 5.0798 119.666 5.05478 120.734 5.00474L121.484 8.70745Z" fill="#021231"/>
<path id="Vector_3" d="M104.563 18.9143C101.711 18.9143 99.6095 18.2638 98.2585 16.9628C96.9242 15.6452 96.2571 13.9189 96.2571 11.784C96.2571 9.69919 96.9242 8.00628 98.2585 6.70533C99.6095 5.40438 101.711 4.75391 104.563 4.75391C106.481 4.75391 108.082 5.0708 109.367 5.7046C110.668 6.32172 111.627 7.164 112.244 8.23145C112.861 9.28222 113.169 10.4664 113.169 11.784C113.169 13.9356 112.452 15.6619 111.018 16.9628C109.6 18.2638 107.449 18.9143 104.563 18.9143ZM104.663 14.6611C105.747 14.6611 106.556 14.4026 107.09 13.8856C107.624 13.3685 107.891 12.6764 107.891 11.8091C107.891 10.9918 107.624 10.3246 107.09 9.8076C106.556 9.27388 105.747 9.00701 104.663 9.00701C103.579 9.00701 102.787 9.26554 102.286 9.78258C101.786 10.2996 101.536 10.9751 101.536 11.8091C101.536 12.6764 101.786 13.3685 102.286 13.8856C102.787 14.4026 103.579 14.6611 104.663 14.6611Z" fill="#021231"/>
<path id="Vector_4" d="M94.2628 9.48028C92.7283 9.38021 91.3273 9.30516 90.0597 9.25512L90.0347 11.9071C90.0347 12.8077 90.2265 13.5166 90.6101 14.0336C91.0104 14.534 91.7109 14.7842 92.7117 14.7842C93.0953 14.7842 93.4622 14.7508 93.8125 14.6841C93.7457 15.3012 93.7124 15.9267 93.7124 16.5605C93.7124 16.8607 93.7291 17.5445 93.7624 18.612C93.0286 18.7454 92.4114 18.8288 91.9111 18.8621C91.4107 18.8955 90.7602 18.9122 89.9596 18.9122C88.0082 18.9122 86.6239 18.4452 85.8066 17.5112C85.006 16.5605 84.6057 15.2428 84.6057 13.5583L84.6308 9.33017C83.8468 9.36353 83.0296 9.41357 82.179 9.48028V5.05205C83.0463 5.05205 83.7801 4.77685 84.3806 4.22644C84.981 3.67604 85.3396 3.01723 85.4564 2.25H92.2613C91.4107 3.41752 90.4684 4.35154 89.4343 5.05205H94.2628V9.48028Z" fill="#021231"/>
<path id="Vector_5" d="M59.0671 16.5121C59.6342 15.6614 60.1012 14.8692 60.4682 14.1353C60.8518 13.4015 61.2187 12.5508 61.569 11.5835C62.7532 12.2673 64.1292 12.801 65.697 13.1846C67.2648 13.5682 68.7242 13.7601 70.0752 13.7601C71.4595 13.7601 72.4352 13.6433 73.0023 13.4098C73.5694 13.1596 73.8529 12.8928 73.8529 12.6092C73.8529 11.5918 72.3018 11.0831 69.1995 11.0831C65.7971 11.0831 63.3286 10.7328 61.7941 10.0323C60.2597 9.31514 59.4924 8.1643 59.4924 6.57981C59.4924 4.32816 60.4265 2.66862 62.2945 1.60117C64.1625 0.533723 66.5893 0 69.5748 0C71.3094 0 73.0857 0.225164 74.9037 0.675494C76.7384 1.10914 78.3896 1.70958 79.8573 2.47681C79.3736 3.57761 78.8649 4.92026 78.3312 6.50475C78.2311 6.83833 78.1477 7.08851 78.081 7.2553C77.2304 6.57147 75.9461 6.00439 74.2282 5.55406C72.5103 5.08705 70.9925 4.85355 69.6749 4.85355C68.0904 4.85355 67.023 4.96196 66.4725 5.17878C65.9221 5.37893 65.6469 5.67915 65.6469 6.07944C65.6469 6.47973 66.0222 6.80497 66.7728 7.05516C67.54 7.28866 68.6408 7.40541 70.0752 7.40541C73.6111 7.40541 76.1796 7.81405 77.7808 8.63131C79.382 9.43189 80.1826 10.6661 80.1826 12.334C80.1826 14.6691 79.3319 16.3536 77.6307 17.3877C75.9295 18.4051 73.3526 18.9138 69.9001 18.9138C68.0487 18.9138 66.164 18.7137 64.2459 18.3134C62.3279 17.8964 60.6016 17.296 59.0671 16.5121Z" fill="#021231"/>
<path id="Vector_6" d="M50.6783 18.6641C50.7783 16.2123 50.8284 13.9523 50.8284 11.8841C50.8284 11.1502 50.6449 10.5665 50.278 10.1328C49.9277 9.69919 49.4774 9.48236 48.927 9.48236C48.3766 9.48236 47.9096 9.73254 47.526 10.2329C47.1424 10.7166 46.9172 11.3838 46.8505 12.2344C46.8171 13.502 46.8004 14.4026 46.8004 14.9363C46.8004 16.0705 46.8338 17.3131 46.9005 18.6641H40.9211C41.0546 16.2623 41.1213 13.994 41.1213 11.8591C41.1213 9.72421 41.0546 7.4392 40.9211 5.00409C42.0219 5.05413 42.8642 5.07914 43.448 5.07914C44.0651 5.07914 44.9074 5.05413 45.9748 5.00409L46.7004 8.68178C47.084 7.34747 47.6844 6.36342 48.5017 5.72962C49.3189 5.07914 50.2696 4.75391 51.3538 4.75391C52.3545 4.75391 53.2218 4.97907 53.9557 5.4294C54.6895 5.86305 55.2399 6.45515 55.6069 7.2057C55.9905 7.95625 56.1823 8.79853 56.1823 9.73255V13.3352C56.1823 15.5535 56.224 17.3298 56.3074 18.6641H50.6783Z" fill="#021231"/>
<path id="Vector_7" d="M38.1619 5.00391C38.0451 7.10544 37.9868 9.37377 37.9868 11.8089C37.9868 14.2607 38.0451 16.5457 38.1619 18.6639C37.0944 18.6139 36.2522 18.5888 35.635 18.5888C35.0513 18.5888 34.209 18.6139 33.1082 18.6639L32.3827 14.9862C31.999 16.3205 31.3986 17.3129 30.5813 17.9634C29.7641 18.5972 28.8134 18.9141 27.7293 18.9141C26.7285 18.9141 25.8612 18.6972 25.1274 18.2636C24.3935 17.8133 23.8347 17.2128 23.4511 16.4623C23.0842 15.7117 22.9007 14.8694 22.9007 13.9354V10.3328C22.9007 8.11451 22.859 6.33821 22.7756 5.00391H28.4048C28.3047 7.4557 28.2546 9.88247 28.2546 12.2842C28.2546 13.0181 28.4298 13.6019 28.78 14.0355C29.147 14.4692 29.6056 14.686 30.156 14.686C30.6731 14.686 31.1234 14.4608 31.507 14.0105C31.9073 13.5435 32.1492 12.9097 32.2325 12.1091V11.5337C32.2659 10.2327 32.2826 9.33207 32.2826 8.8317C32.2826 7.68086 32.2492 6.40493 32.1825 5.00391H38.1619Z" fill="#021231"/>
<path id="Vector_8" d="M20.0143 5.17842H6.40432V7.80534C7.25494 7.82202 8.53087 7.83036 10.2321 7.83036C13.1676 7.83036 16.1531 7.78032 19.1887 7.68025V12.5838C16.1531 12.4671 12.9508 12.4087 9.58164 12.4087C8.18061 12.4087 7.12151 12.417 6.40432 12.4337V18.6633H0.5C0.633431 15.4276 0.700146 12.4004 0.700146 9.58164C0.700146 6.76291 0.633431 3.7357 0.5 0.5H20.0143V5.17842Z" fill="#021231"/>
</g>
</svg>
