<svg width="126" height="39" viewBox="0 0 126 39" fill="none" xmlns="http://www.w3.org/2000/svg">
<path d="M123.291 10.6666H116.28C116.395 11.2974 116.674 11.8136 117.119 12.215C117.577 12.6021 118.223 12.7956 119.054 12.7956C119.656 12.7956 120.223 12.6809 120.753 12.4516C121.283 12.2078 121.706 11.8709 122.022 11.4408C122.982 11.9139 124.258 12.4229 125.85 12.9677C125.405 13.9713 124.595 14.7741 123.42 15.3763C122.258 15.9641 120.739 16.258 118.861 16.258C116.423 16.258 114.617 15.6989 113.441 14.5806C112.28 13.448 111.699 11.9641 111.699 10.129C111.699 8.33685 112.28 6.88165 113.441 5.76336C114.602 4.64508 116.409 4.08594 118.861 4.08594C120.323 4.08594 121.592 4.32967 122.667 4.81712C123.742 5.30458 124.567 5.98558 125.14 6.86014C125.714 7.72036 126 8.70961 126 9.82789C126 10.2007 125.986 10.4802 125.957 10.6666H123.291ZM119.162 7.33326C118.445 7.33326 117.857 7.46946 117.398 7.74186C116.939 8.01427 116.617 8.38703 116.43 8.86015H121.506C121.334 8.40136 121.054 8.03577 120.667 7.76337C120.28 7.47663 119.778 7.33326 119.162 7.33326Z" fill="white"/>
<path d="M104.497 7.4817C105.099 5.31682 106.597 4.23438 108.992 4.23438C109.407 4.23438 109.809 4.26305 110.196 4.3204L109.508 9.13762C108.476 8.75052 107.63 8.55697 106.97 8.55697C106.153 8.55697 105.551 8.8007 105.164 9.28815C104.777 9.77561 104.583 10.4279 104.583 11.2451V11.2236L104.562 12.643C104.562 13.6609 104.59 14.7935 104.648 16.0409H99.5078C99.6225 13.9763 99.6799 12.0265 99.6799 10.1914C99.6799 8.35625 99.6225 6.39209 99.5078 4.29889C100.454 4.3419 101.178 4.36341 101.68 4.36341C102.21 4.36341 102.934 4.3419 103.852 4.29889L104.497 7.4817Z" fill="white"/>
<path d="M89.9523 16.258C87.5007 16.258 85.6942 15.6989 84.5329 14.5806C83.386 13.448 82.8125 11.9641 82.8125 10.129C82.8125 8.33685 83.386 6.88165 84.5329 5.76336C85.6942 4.64508 87.5007 4.08594 89.9523 4.08594C91.6011 4.08594 92.9774 4.35834 94.0814 4.90315C95.1996 5.43361 96.024 6.15763 96.5545 7.07519C97.085 7.97842 97.3502 8.99635 97.3502 10.129C97.3502 11.9784 96.7337 13.4623 95.5007 14.5806C94.2821 15.6989 92.4326 16.258 89.9523 16.258ZM90.0383 12.6021C90.9702 12.6021 91.6656 12.3799 92.1244 11.9354C92.5831 11.491 92.8125 10.896 92.8125 10.1505C92.8125 9.44796 92.5831 8.87448 92.1244 8.43004C91.6656 7.97125 90.9702 7.74186 90.0383 7.74186C89.1064 7.74186 88.4254 7.96409 87.9953 8.40853C87.5652 8.85298 87.3502 9.43362 87.3502 10.1505C87.3502 10.896 87.5652 11.491 87.9953 11.9354C88.4254 12.3799 89.1064 12.6021 90.0383 12.6021Z" fill="white"/>
<path d="M81.0981 8.15257C79.7791 8.06655 78.5748 8.00203 77.4852 7.95902L77.4637 10.2386C77.4637 11.0128 77.6285 11.6221 77.9583 12.0666C78.3024 12.4967 78.9045 12.7117 79.7647 12.7117C80.0945 12.7117 80.4099 12.6831 80.711 12.6257C80.6536 13.1562 80.625 13.6938 80.625 14.2386C80.625 14.4967 80.6393 15.0845 80.668 16.0021C80.0371 16.1168 79.5067 16.1884 79.0766 16.2171C78.6465 16.2458 78.0873 16.2601 77.3991 16.2601C75.7217 16.2601 74.5317 15.8587 73.8292 15.0558C73.1411 14.2386 72.797 13.106 72.797 11.658L72.8185 8.02354C72.1446 8.05221 71.4421 8.09522 70.7109 8.15257V4.34611C71.4565 4.34611 72.0873 4.10955 72.6034 3.63643C73.1196 3.16331 73.4278 2.597 73.5282 1.9375H79.3776C78.6465 2.94109 77.8364 3.74396 76.9475 4.34611H81.0981V8.15257Z" fill="white"/>
<path d="M50.8438 14.1936C51.3312 13.4624 51.7326 12.7814 52.0481 12.1506C52.3778 11.5197 52.6932 10.7886 52.9943 9.95702C54.0122 10.5448 55.195 11.0036 56.5427 11.3334C57.8904 11.6631 59.1448 11.828 60.3061 11.828C61.4961 11.828 62.3348 11.7276 62.8223 11.5269C63.3097 11.3119 63.5535 11.0825 63.5535 10.8387C63.5535 9.96419 62.2201 9.52691 59.5535 9.52691C56.6287 9.52691 54.5068 9.22583 53.1878 8.62368C51.8688 8.00719 51.2093 7.01794 51.2093 5.65593C51.2093 3.72044 52.0122 2.29391 53.618 1.37635C55.2237 0.458782 57.3097 0 59.876 0C61.3671 0 62.894 0.193549 64.4567 0.580647C66.0338 0.953408 67.4531 1.46954 68.7148 2.12904C68.299 3.07528 67.8617 4.2294 67.4029 5.59141C67.3169 5.87815 67.2452 6.09321 67.1879 6.23658C66.4567 5.64876 65.3528 5.16131 63.876 4.77421C62.3993 4.37277 61.0947 4.17206 59.9621 4.17206C58.6 4.17206 57.6825 4.26525 57.2094 4.45163C56.7362 4.62367 56.4997 4.88174 56.4997 5.22582C56.4997 5.56991 56.8223 5.84948 57.4674 6.06454C58.1269 6.26525 59.0732 6.36561 60.3061 6.36561C63.3456 6.36561 65.5535 6.71687 66.9298 7.41938C68.3062 8.10755 68.9943 9.16849 68.9943 10.6022C68.9943 12.6094 68.2632 14.0574 66.8008 14.9463C65.3384 15.8208 63.1234 16.2581 60.1556 16.2581C58.5642 16.2581 56.9441 16.0861 55.2954 15.742C53.6466 15.3836 52.1628 14.8674 50.8438 14.1936Z" fill="white"/>
<path d="M43.6332 16.043C43.7192 13.9354 43.7622 11.9928 43.7622 10.215C43.7622 9.58416 43.6045 9.08237 43.2891 8.70961C42.9881 8.33685 42.601 8.15047 42.1278 8.15047C41.6547 8.15047 41.2533 8.36552 40.9235 8.79563C40.5938 9.2114 40.4002 9.78488 40.3429 10.5161C40.3142 11.6057 40.2999 12.3799 40.2999 12.8387C40.2999 13.8136 40.3285 14.8817 40.3859 16.043H35.2461C35.3608 13.9784 35.4181 12.0286 35.4181 10.1935C35.4181 8.35835 35.3608 6.39419 35.2461 4.30099C36.1923 4.344 36.9163 4.36551 37.4181 4.36551C37.9486 4.36551 38.6726 4.344 39.5902 4.30099L40.2139 7.46229C40.5436 6.31534 41.0597 5.46946 41.7622 4.92465C42.4648 4.36551 43.282 4.08594 44.2139 4.08594C45.0741 4.08594 45.8196 4.27949 46.4504 4.66658C47.0813 5.03935 47.5544 5.54831 47.8698 6.19347C48.1995 6.83863 48.3644 7.56265 48.3644 8.36552V11.4623C48.3644 13.3691 48.4003 14.896 48.4719 16.043H43.6332Z" fill="white"/>
<path d="M32.8743 4.30078C32.7739 6.10724 32.7237 8.05706 32.7237 10.1503C32.7237 12.2578 32.7739 14.222 32.8743 16.0428C31.9567 15.9997 31.2327 15.9782 30.7022 15.9782C30.2004 15.9782 29.4764 15.9997 28.5302 16.0428L27.9065 12.8815C27.5768 14.0284 27.0606 14.8815 26.3581 15.4406C25.6556 15.9854 24.8384 16.2578 23.9065 16.2578C23.0463 16.2578 22.3008 16.0714 21.6699 15.6987C21.0391 15.3116 20.5588 14.7954 20.2291 14.1503C19.9137 13.5051 19.756 12.7811 19.756 11.9782V8.88144C19.756 6.97463 19.7201 5.44774 19.6484 4.30078H24.4872C24.4011 6.40831 24.3581 8.49434 24.3581 10.5589C24.3581 11.1897 24.5087 11.6915 24.8097 12.0642C25.1252 12.437 25.5194 12.6234 25.9925 12.6234C26.437 12.6234 26.8241 12.4298 27.1538 12.0427C27.4979 11.6413 27.7058 11.0965 27.7775 10.4083V9.9137C27.8062 8.79542 27.8205 8.02122 27.8205 7.59111C27.8205 6.60186 27.7918 5.50509 27.7345 4.30078H32.8743Z" fill="white"/>
<path d="M17.2742 4.4512H5.57529V6.70928C6.30647 6.72361 7.40325 6.73078 8.86562 6.73078C11.3889 6.73078 13.9552 6.68777 16.5646 6.60175V10.8168C13.9552 10.7165 11.2025 10.6663 8.30648 10.6663C7.10217 10.6663 6.19177 10.6734 5.57529 10.6878V16.0426H0.5C0.614696 13.2613 0.672044 10.6591 0.672044 8.23616C0.672044 5.81322 0.614696 3.21106 0.5 0.429688H17.2742V4.4512Z" fill="white"/>
<path d="M5.588 35.3298C4.956 35.3298 4.372 35.2258 3.836 35.0178C3.3 34.8018 2.836 34.5018 2.444 34.1178C2.052 33.7338 1.744 33.2818 1.52 32.7618C1.304 32.2418 1.196 31.6738 1.196 31.0578C1.196 30.4418 1.304 29.8738 1.52 29.3538C1.744 28.8338 2.052 28.3818 2.444 27.9978C2.844 27.6138 3.312 27.3178 3.848 27.1098C4.384 26.8938 4.968 26.7858 5.6 26.7858C6.208 26.7858 6.78 26.8898 7.316 27.0978C7.852 27.2978 8.304 27.6018 8.672 28.0098L8.108 28.5738C7.764 28.2218 7.384 27.9698 6.968 27.8178C6.552 27.6578 6.104 27.5778 5.624 27.5778C5.12 27.5778 4.652 27.6658 4.22 27.8418C3.788 28.0098 3.412 28.2538 3.092 28.5738C2.772 28.8858 2.52 29.2538 2.336 29.6778C2.16 30.0938 2.072 30.5538 2.072 31.0578C2.072 31.5618 2.16 32.0258 2.336 32.4498C2.52 32.8658 2.772 33.2338 3.092 33.5538C3.412 33.8658 3.788 34.1098 4.22 34.2858C4.652 34.4538 5.12 34.5378 5.624 34.5378C6.104 34.5378 6.552 34.4578 6.968 34.2978C7.384 34.1378 7.764 33.8818 8.108 33.5298L8.672 34.0938C8.304 34.5018 7.852 34.8098 7.316 35.0178C6.78 35.2258 6.204 35.3298 5.588 35.3298ZM12.6126 35.3178C12.0046 35.3178 11.4566 35.1818 10.9686 34.9098C10.4886 34.6298 10.1086 34.2498 9.82859 33.7698C9.54859 33.2818 9.40859 32.7258 9.40859 32.1018C9.40859 31.4698 9.54859 30.9138 9.82859 30.4338C10.1086 29.9538 10.4886 29.5778 10.9686 29.3058C11.4486 29.0338 11.9966 28.8978 12.6126 28.8978C13.2366 28.8978 13.7886 29.0338 14.2686 29.3058C14.7566 29.5778 15.1366 29.9538 15.4086 30.4338C15.6886 30.9138 15.8286 31.4698 15.8286 32.1018C15.8286 32.7258 15.6886 33.2818 15.4086 33.7698C15.1366 34.2498 14.7566 34.6298 14.2686 34.9098C13.7806 35.1818 13.2286 35.3178 12.6126 35.3178ZM12.6126 34.5618C13.0686 34.5618 13.4726 34.4618 13.8246 34.2618C14.1766 34.0538 14.4526 33.7658 14.6526 33.3978C14.8606 33.0218 14.9646 32.5898 14.9646 32.1018C14.9646 31.6058 14.8606 31.1738 14.6526 30.8058C14.4526 30.4378 14.1766 30.1538 13.8246 29.9538C13.4726 29.7458 13.0726 29.6418 12.6246 29.6418C12.1766 29.6418 11.7766 29.7458 11.4246 29.9538C11.0726 30.1538 10.7926 30.4378 10.5846 30.8058C10.3766 31.1738 10.2726 31.6058 10.2726 32.1018C10.2726 32.5898 10.3766 33.0218 10.5846 33.3978C10.7926 33.7658 11.0726 34.0538 11.4246 34.2618C11.7766 34.4618 12.1726 34.5618 12.6126 34.5618ZM20.4815 35.3298C19.9695 35.3298 19.5135 35.2458 19.1135 35.0778C18.7215 34.9098 18.3855 34.6538 18.1055 34.3098C17.8255 33.9658 17.6135 33.5418 17.4695 33.0378C17.3255 32.5258 17.2535 31.9338 17.2535 31.2618C17.2535 30.6618 17.3095 30.1378 17.4215 29.6898C17.5335 29.2338 17.6895 28.8418 17.8895 28.5138C18.0895 28.1858 18.3215 27.9098 18.5855 27.6858C18.8575 27.4538 19.1495 27.2698 19.4615 27.1338C19.7815 26.9898 20.1095 26.8818 20.4455 26.8098L23.2775 26.1498L23.4215 26.9418L20.7575 27.5418C20.5895 27.5818 20.3855 27.6378 20.1455 27.7098C19.9135 27.7818 19.6735 27.8898 19.4255 28.0338C19.1855 28.1778 18.9615 28.3778 18.7535 28.6338C18.5455 28.8898 18.3775 29.2218 18.2495 29.6298C18.1295 30.0298 18.0695 30.5298 18.0695 31.1298C18.0695 31.2578 18.0735 31.3618 18.0815 31.4418C18.0895 31.5138 18.0975 31.5938 18.1055 31.6818C18.1215 31.7618 18.1335 31.8818 18.1415 32.0418L17.7695 31.7298C17.8575 31.2418 18.0375 30.8178 18.3095 30.4578C18.5815 30.0898 18.9215 29.8058 19.3295 29.6058C19.7455 29.3978 20.2055 29.2938 20.7095 29.2938C21.2935 29.2938 21.8135 29.4218 22.2695 29.6778C22.7255 29.9258 23.0815 30.2738 23.3375 30.7218C23.6015 31.1698 23.7335 31.6898 23.7335 32.2818C23.7335 32.8658 23.5975 33.3898 23.3255 33.8538C23.0615 34.3178 22.6855 34.6818 22.1975 34.9458C21.7095 35.2018 21.1375 35.3298 20.4815 35.3298ZM20.5775 34.6218C21.0255 34.6218 21.4215 34.5218 21.7655 34.3218C22.1095 34.1138 22.3775 33.8338 22.5695 33.4818C22.7695 33.1298 22.8695 32.7338 22.8695 32.2938C22.8695 31.8618 22.7695 31.4778 22.5695 31.1418C22.3775 30.8058 22.1095 30.5418 21.7655 30.3498C21.4215 30.1498 21.0215 30.0498 20.5655 30.0498C20.1175 30.0498 19.7215 30.1458 19.3775 30.3378C19.0335 30.5218 18.7615 30.7818 18.5615 31.1178C18.3695 31.4538 18.2735 31.8418 18.2735 32.2818C18.2735 32.7218 18.3695 33.1178 18.5615 33.4698C18.7615 33.8218 19.0335 34.1018 19.3775 34.3098C19.7295 34.5178 20.1295 34.6218 20.5775 34.6218ZM31.7037 35.2578V28.9578H32.5557V35.2578H31.7037ZM28.2117 31.1778C29.0037 31.1858 29.6077 31.3618 30.0237 31.7058C30.4397 32.0498 30.6477 32.5458 30.6477 33.1938C30.6477 33.8658 30.4237 34.3818 29.9757 34.7418C29.5277 35.1018 28.8877 35.2778 28.0557 35.2698L25.5597 35.2578V28.9578H26.4117V31.1538L28.2117 31.1778ZM27.9957 34.6218C28.5877 34.6298 29.0317 34.5138 29.3277 34.2738C29.6317 34.0258 29.7837 33.6658 29.7837 33.1938C29.7837 32.7218 29.6357 32.3778 29.3397 32.1618C29.0437 31.9378 28.5957 31.8218 27.9957 31.8138L26.4117 31.7898V34.5978L27.9957 34.6218ZM36.1815 35.2578V29.4738L36.3975 29.7018H33.7935V28.9578H39.4215V29.7018H36.8175L37.0335 29.4738V35.2578H36.1815ZM40.6534 35.2578V28.9578H41.5054V33.9618L45.7174 28.9578H46.4734V35.2578H45.6214V30.2418L41.4214 35.2578H40.6534ZM52.9831 35.2578V32.9898L53.1391 33.1698H51.0031C50.1951 33.1698 49.5631 32.9938 49.1071 32.6418C48.6511 32.2898 48.4231 31.7778 48.4231 31.1058C48.4231 30.3858 48.6671 29.8498 49.1551 29.4978C49.6431 29.1378 50.2951 28.9578 51.1111 28.9578H53.7631V35.2578H52.9831ZM48.3751 35.2578L50.1031 32.8338H50.9911L49.2991 35.2578H48.3751ZM52.9831 32.7378V29.4498L53.1391 29.7018H51.1351C50.5511 29.7018 50.0951 29.8138 49.7671 30.0378C49.4471 30.2618 49.2871 30.6258 49.2871 31.1298C49.2871 32.0658 49.8831 32.5338 51.0751 32.5338H53.1391L52.9831 32.7378ZM59.3331 35.2578V28.9578H62.1171C62.8291 28.9578 63.3891 29.0938 63.7971 29.3658C64.2131 29.6378 64.4211 30.0378 64.4211 30.5658C64.4211 31.0778 64.2251 31.4738 63.8331 31.7538C63.4411 32.0258 62.9251 32.1618 62.2851 32.1618L62.4531 31.9098C63.2051 31.9098 63.7571 32.0498 64.1091 32.3298C64.4611 32.6098 64.6371 33.0138 64.6371 33.5418C64.6371 34.0858 64.4371 34.5098 64.0371 34.8138C63.6451 35.1098 63.0331 35.2578 62.2011 35.2578H59.3331ZM60.1611 34.5858H62.1651C62.7011 34.5858 63.1051 34.5018 63.3771 34.3338C63.6571 34.1578 63.7971 33.8778 63.7971 33.4938C63.7971 33.1098 63.6731 32.8298 63.4251 32.6538C63.1771 32.4778 62.7851 32.3898 62.2491 32.3898H60.1611V34.5858ZM60.1611 31.7538H62.0571C62.5451 31.7538 62.9171 31.6618 63.1731 31.4778C63.4371 31.2938 63.5691 31.0258 63.5691 30.6738C63.5691 30.3218 63.4371 30.0578 63.1731 29.8818C62.9171 29.7058 62.5451 29.6178 62.0571 29.6178H60.1611V31.7538ZM69.2259 35.3178C68.6179 35.3178 68.0699 35.1818 67.5819 34.9098C67.1019 34.6298 66.7219 34.2498 66.4419 33.7698C66.1619 33.2818 66.0219 32.7258 66.0219 32.1018C66.0219 31.4698 66.1619 30.9138 66.4419 30.4338C66.7219 29.9538 67.1019 29.5778 67.5819 29.3058C68.0619 29.0338 68.6099 28.8978 69.2259 28.8978C69.8499 28.8978 70.4019 29.0338 70.8819 29.3058C71.3699 29.5778 71.7499 29.9538 72.0219 30.4338C72.3019 30.9138 72.4419 31.4698 72.4419 32.1018C72.4419 32.7258 72.3019 33.2818 72.0219 33.7698C71.7499 34.2498 71.3699 34.6298 70.8819 34.9098C70.3939 35.1818 69.8419 35.3178 69.2259 35.3178ZM69.2259 34.5618C69.6819 34.5618 70.0859 34.4618 70.4379 34.2618C70.7899 34.0538 71.0659 33.7658 71.2659 33.3978C71.4739 33.0218 71.5779 32.5898 71.5779 32.1018C71.5779 31.6058 71.4739 31.1738 71.2659 30.8058C71.0659 30.4378 70.7899 30.1538 70.4379 29.9538C70.0859 29.7458 69.6859 29.6418 69.2379 29.6418C68.7899 29.6418 68.3899 29.7458 68.0379 29.9538C67.6859 30.1538 67.4059 30.4378 67.1979 30.8058C66.9899 31.1738 66.8859 31.6058 66.8859 32.1018C66.8859 32.5898 66.9899 33.0218 67.1979 33.3978C67.4059 33.7658 67.6859 34.0538 68.0379 34.2618C68.3899 34.4618 68.7859 34.5618 69.2259 34.5618ZM78.8828 35.2578L76.2908 32.1378L76.9988 31.7178L79.8908 35.2578H78.8828ZM74.2628 35.2578V28.9578H75.1148V35.2578H74.2628ZM74.8508 32.4498V31.7178H76.8788V32.4498H74.8508ZM77.0708 32.1978L76.2788 32.0778L78.7868 28.9578H79.7108L77.0708 32.1978ZM84.4874 35.3178C83.9434 35.3178 83.4514 35.1938 83.0114 34.9458C82.5714 34.6898 82.2194 34.3258 81.9554 33.8538C81.6994 33.3738 81.5714 32.7898 81.5714 32.1018C81.5714 31.4138 81.6994 30.8338 81.9554 30.3618C82.2114 29.8818 82.5594 29.5178 82.9994 29.2698C83.4394 29.0218 83.9354 28.8978 84.4874 28.8978C85.0874 28.8978 85.6234 29.0338 86.0954 29.3058C86.5754 29.5698 86.9514 29.9458 87.2234 30.4338C87.4954 30.9138 87.6314 31.4698 87.6314 32.1018C87.6314 32.7418 87.4954 33.3018 87.2234 33.7818C86.9514 34.2618 86.5754 34.6378 86.0954 34.9098C85.6234 35.1818 85.0874 35.3178 84.4874 35.3178ZM81.2354 37.5858V28.9578H82.0514V30.8538L81.9674 32.1138L82.0874 33.3858V37.5858H81.2354ZM84.4274 34.5618C84.8754 34.5618 85.2754 34.4618 85.6274 34.2618C85.9794 34.0538 86.2594 33.7658 86.4674 33.3978C86.6754 33.0218 86.7794 32.5898 86.7794 32.1018C86.7794 31.6138 86.6754 31.1858 86.4674 30.8178C86.2594 30.4498 85.9794 30.1618 85.6274 29.9538C85.2754 29.7458 84.8754 29.6418 84.4274 29.6418C83.9794 29.6418 83.5754 29.7458 83.2154 29.9538C82.8634 30.1618 82.5834 30.4498 82.3754 30.8178C82.1754 31.1858 82.0754 31.6138 82.0754 32.1018C82.0754 32.5898 82.1754 33.0218 82.3754 33.3978C82.5834 33.7658 82.8634 34.0538 83.2154 34.2618C83.5754 34.4618 83.9794 34.5618 84.4274 34.5618ZM89.3942 37.6458C89.0982 37.6458 88.8142 37.5978 88.5422 37.5018C88.2782 37.4058 88.0502 37.2618 87.8582 37.0698L88.2542 36.4338C88.4142 36.5858 88.5862 36.7018 88.7702 36.7818C88.9622 36.8698 89.1742 36.9138 89.4062 36.9138C89.6862 36.9138 89.9262 36.8338 90.1262 36.6738C90.3342 36.5218 90.5302 36.2498 90.7142 35.8578L91.1222 34.9338L91.2182 34.8018L93.8102 28.9578H94.6502L91.4942 36.0138C91.3182 36.4218 91.1222 36.7458 90.9062 36.9858C90.6982 37.2258 90.4702 37.3938 90.2222 37.4898C89.9742 37.5938 89.6982 37.6458 89.3942 37.6458ZM91.0742 35.4378L88.1702 28.9578H89.0582L91.6262 34.7418L91.0742 35.4378ZM95.9776 35.2578V28.9578H100.442V29.7018H96.6136L96.8296 29.4858V35.2578H95.9776ZM104.814 35.2578V28.9578H107.598C108.31 28.9578 108.87 29.0938 109.278 29.3658C109.694 29.6378 109.902 30.0378 109.902 30.5658C109.902 31.0778 109.706 31.4738 109.314 31.7538C108.922 32.0258 108.406 32.1618 107.766 32.1618L107.934 31.9098C108.686 31.9098 109.238 32.0498 109.59 32.3298C109.942 32.6098 110.118 33.0138 110.118 33.5418C110.118 34.0858 109.918 34.5098 109.518 34.8138C109.126 35.1098 108.514 35.2578 107.682 35.2578H104.814ZM105.642 34.5858H107.646C108.182 34.5858 108.586 34.5018 108.858 34.3338C109.138 34.1578 109.278 33.8778 109.278 33.4938C109.278 33.1098 109.154 32.8298 108.906 32.6538C108.658 32.4778 108.266 32.3898 107.73 32.3898H105.642V34.5858ZM105.642 31.7538H107.538C108.026 31.7538 108.398 31.6618 108.654 31.4778C108.918 31.2938 109.05 31.0258 109.05 30.6738C109.05 30.3218 108.918 30.0578 108.654 29.8818C108.398 29.7058 108.026 29.6178 107.538 29.6178H105.642V31.7538ZM116.026 35.2578V33.8658L115.99 33.6378V31.3098C115.99 30.7738 115.838 30.3618 115.534 30.0738C115.238 29.7858 114.794 29.6418 114.202 29.6418C113.794 29.6418 113.406 29.7098 113.038 29.8458C112.67 29.9818 112.358 30.1618 112.102 30.3858L111.718 29.7498C112.038 29.4778 112.422 29.2698 112.87 29.1258C113.318 28.9738 113.79 28.8978 114.286 28.8978C115.102 28.8978 115.73 29.1018 116.17 29.5098C116.618 29.9098 116.842 30.5218 116.842 31.3458V35.2578H116.026ZM113.854 35.3178C113.382 35.3178 112.97 35.2418 112.618 35.0898C112.274 34.9298 112.01 34.7138 111.826 34.4418C111.642 34.1618 111.55 33.8418 111.55 33.4818C111.55 33.1538 111.626 32.8578 111.778 32.5938C111.938 32.3218 112.194 32.1058 112.546 31.9458C112.906 31.7778 113.386 31.6938 113.986 31.6938H116.158V32.3298H114.01C113.402 32.3298 112.978 32.4378 112.738 32.6538C112.506 32.8698 112.39 33.1378 112.39 33.4578C112.39 33.8178 112.53 34.1058 112.81 34.3218C113.09 34.5378 113.482 34.6458 113.986 34.6458C114.466 34.6458 114.878 34.5378 115.222 34.3218C115.574 34.0978 115.83 33.7778 115.99 33.3618L116.182 33.9498C116.022 34.3658 115.742 34.6978 115.342 34.9458C114.95 35.1938 114.454 35.3178 113.854 35.3178ZM121.75 35.3178C121.126 35.3178 120.566 35.1818 120.07 34.9098C119.582 34.6298 119.198 34.2498 118.918 33.7698C118.638 33.2818 118.498 32.7258 118.498 32.1018C118.498 31.4698 118.638 30.9138 118.918 30.4338C119.198 29.9538 119.582 29.5778 120.07 29.3058C120.566 29.0338 121.126 28.8978 121.75 28.8978C122.286 28.8978 122.77 29.0018 123.202 29.2098C123.634 29.4178 123.974 29.7298 124.222 30.1458L123.586 30.5778C123.37 30.2578 123.102 30.0218 122.782 29.8698C122.462 29.7178 122.114 29.6418 121.738 29.6418C121.29 29.6418 120.886 29.7458 120.526 29.9538C120.166 30.1538 119.882 30.4378 119.674 30.8058C119.466 31.1738 119.362 31.6058 119.362 32.1018C119.362 32.5978 119.466 33.0298 119.674 33.3978C119.882 33.7658 120.166 34.0538 120.526 34.2618C120.886 34.4618 121.29 34.5618 121.738 34.5618C122.114 34.5618 122.462 34.4858 122.782 34.3338C123.102 34.1818 123.37 33.9498 123.586 33.6378L124.222 34.0698C123.974 34.4778 123.634 34.7898 123.202 35.0058C122.77 35.2138 122.286 35.3178 121.75 35.3178Z" fill="#848BA8"/>
</svg>
