<svg width="147" height="44" viewBox="0 0 147 44" fill="none" xmlns="http://www.w3.org/2000/svg">
<path d="M143.348 12.4095H135.192C135.325 13.1434 135.65 13.7438 136.167 14.2108C136.701 14.6611 137.452 14.8863 138.419 14.8863C139.12 14.8863 139.778 14.7529 140.395 14.486C141.013 14.2025 141.505 13.8105 141.872 13.3102C142.989 13.8606 144.473 14.4527 146.325 15.0865C145.808 16.254 144.865 17.188 143.498 17.8885C142.147 18.5723 140.379 18.9143 138.194 18.9143C135.358 18.9143 133.257 18.2638 131.889 16.9628C130.538 15.6452 129.863 13.9189 129.863 11.784C129.863 9.69919 130.538 8.00628 131.889 6.70533C133.24 5.40438 135.342 4.75391 138.194 4.75391C139.895 4.75391 141.371 5.03745 142.622 5.60453C143.873 6.17161 144.832 6.96385 145.499 7.98126C146.166 8.982 146.5 10.1328 146.5 11.4338C146.5 11.8674 146.483 12.1927 146.45 12.4095H143.348ZM138.544 8.53167C137.71 8.53167 137.026 8.69012 136.493 9.00701C135.959 9.32391 135.584 9.75756 135.367 10.308H141.271C141.071 9.77424 140.746 9.34893 140.295 9.03203C139.845 8.69846 139.261 8.53167 138.544 8.53167Z" fill="#021231"/>
<path d="M121.485 8.70745C122.185 6.18894 123.928 4.92969 126.713 4.92969C127.197 4.92969 127.664 4.96304 128.114 5.02976L127.314 10.6339C126.113 10.1835 125.129 9.95836 124.362 9.95836C123.411 9.95836 122.71 10.2419 122.26 10.809C121.81 11.3761 121.585 12.135 121.585 13.0856V13.0606L121.56 14.7118C121.56 15.896 121.593 17.2137 121.66 18.6647H115.68C115.814 16.263 115.88 13.9946 115.88 11.8598C115.88 9.72486 115.814 7.43985 115.68 5.00474C116.781 5.05478 117.623 5.0798 118.207 5.0798C118.824 5.0798 119.667 5.05478 120.734 5.00474L121.485 8.70745Z" fill="#021231"/>
<path d="M104.563 18.9143C101.711 18.9143 99.6095 18.2638 98.2585 16.9628C96.9242 15.6452 96.2571 13.9189 96.2571 11.784C96.2571 9.69919 96.9242 8.00628 98.2585 6.70533C99.6095 5.40438 101.711 4.75391 104.563 4.75391C106.481 4.75391 108.082 5.0708 109.367 5.7046C110.668 6.32172 111.627 7.164 112.244 8.23145C112.861 9.28222 113.169 10.4664 113.169 11.784C113.169 13.9356 112.452 15.6619 111.018 16.9628C109.6 18.2638 107.449 18.9143 104.563 18.9143ZM104.663 14.6611C105.747 14.6611 106.556 14.4026 107.09 13.8856C107.624 13.3685 107.891 12.6764 107.891 11.8091C107.891 10.9918 107.624 10.3246 107.09 9.8076C106.556 9.27388 105.747 9.00701 104.663 9.00701C103.579 9.00701 102.787 9.26554 102.286 9.78258C101.786 10.2996 101.536 10.9751 101.536 11.8091C101.536 12.6764 101.786 13.3685 102.286 13.8856C102.787 14.4026 103.579 14.6611 104.663 14.6611Z" fill="#021231"/>
<path d="M94.2629 9.48028C92.7285 9.38021 91.3274 9.30516 90.0598 9.25512L90.0348 11.9071C90.0348 12.8077 90.2266 13.5166 90.6102 14.0336C91.0105 14.534 91.711 14.7842 92.7118 14.7842C93.0954 14.7842 93.4623 14.7508 93.8126 14.6841C93.7459 15.3012 93.7125 15.9267 93.7125 16.5605C93.7125 16.8607 93.7292 17.5445 93.7626 18.612C93.0287 18.7454 92.4116 18.8288 91.9112 18.8621C91.4108 18.8955 90.7604 18.9122 89.9598 18.9122C88.0083 18.9122 86.624 18.4452 85.8067 17.5112C85.0061 16.5605 84.6059 15.2428 84.6059 13.5583L84.6309 9.33017C83.847 9.36353 83.0297 9.41357 82.1791 9.48028V5.05205C83.0464 5.05205 83.7803 4.77685 84.3807 4.22644C84.9811 3.67604 85.3397 3.01723 85.4565 2.25H92.2615C91.4108 3.41752 90.4685 4.35154 89.4344 5.05205H94.2629V9.48028Z" fill="#021231"/>
<path d="M59.067 16.5121C59.6341 15.6614 60.1011 14.8692 60.468 14.1353C60.8517 13.4015 61.2186 12.5508 61.5688 11.5835C62.753 12.2673 64.129 12.801 65.6969 13.1846C67.2647 13.5682 68.7241 13.7601 70.0751 13.7601C71.4594 13.7601 72.4351 13.6433 73.0022 13.4098C73.5693 13.1596 73.8528 12.8928 73.8528 12.6092C73.8528 11.5918 72.3017 11.0831 69.1994 11.0831C65.7969 11.0831 63.3285 10.7328 61.794 10.0323C60.2596 9.31514 59.4923 8.1643 59.4923 6.57981C59.4923 4.32816 60.4263 2.66862 62.2944 1.60117C64.1624 0.533723 66.5892 0 69.5747 0C71.3093 0 73.0856 0.225164 74.9036 0.675494C76.7383 1.10914 78.3895 1.70958 79.8572 2.47681C79.3735 3.57761 78.8648 4.92026 78.3311 6.50475C78.231 6.83833 78.1476 7.08851 78.0809 7.2553C77.2303 6.57147 75.946 6.00439 74.2281 5.55406C72.5102 5.08705 70.9924 4.85355 69.6748 4.85355C68.0903 4.85355 67.0228 4.96196 66.4724 5.17878C65.922 5.37893 65.6468 5.67915 65.6468 6.07944C65.6468 6.47973 66.0221 6.80497 66.7727 7.05516C67.5399 7.28866 68.6407 7.40541 70.0751 7.40541C73.611 7.40541 76.1795 7.81405 77.7807 8.63131C79.3819 9.43189 80.1825 10.6661 80.1825 12.334C80.1825 14.6691 79.3318 16.3536 77.6306 17.3877C75.9293 18.4051 73.3525 18.9138 69.8999 18.9138C68.0486 18.9138 66.1639 18.7137 64.2458 18.3134C62.3277 17.8964 60.6015 17.296 59.067 16.5121Z" fill="#021231"/>
<path d="M50.6783 18.6641C50.7783 16.2123 50.8284 13.9523 50.8284 11.8841C50.8284 11.1502 50.6449 10.5665 50.278 10.1328C49.9277 9.69919 49.4774 9.48236 48.927 9.48236C48.3766 9.48236 47.9096 9.73254 47.526 10.2329C47.1424 10.7166 46.9172 11.3838 46.8505 12.2344C46.8171 13.502 46.8004 14.4026 46.8004 14.9363C46.8004 16.0705 46.8338 17.3131 46.9005 18.6641H40.9211C41.0546 16.2623 41.1213 13.994 41.1213 11.8591C41.1213 9.72421 41.0546 7.4392 40.9211 5.00409C42.0219 5.05413 42.8642 5.07914 43.448 5.07914C44.0651 5.07914 44.9074 5.05413 45.9748 5.00409L46.7004 8.68178C47.084 7.34747 47.6844 6.36342 48.5017 5.72962C49.3189 5.07914 50.2696 4.75391 51.3538 4.75391C52.3545 4.75391 53.2218 4.97907 53.9557 5.4294C54.6895 5.86305 55.2399 6.45515 55.6069 7.2057C55.9905 7.95625 56.1823 8.79853 56.1823 9.73255V13.3352C56.1823 15.5535 56.224 17.3298 56.3074 18.6641H50.6783Z" fill="#021231"/>
<path d="M38.1619 5.00391C38.0451 7.10544 37.9868 9.37377 37.9868 11.8089C37.9868 14.2607 38.0451 16.5457 38.1619 18.6639C37.0944 18.6139 36.2522 18.5888 35.635 18.5888C35.0513 18.5888 34.209 18.6139 33.1082 18.6639L32.3827 14.9862C31.999 16.3205 31.3986 17.3129 30.5813 17.9634C29.7641 18.5972 28.8134 18.9141 27.7293 18.9141C26.7285 18.9141 25.8612 18.6972 25.1274 18.2636C24.3935 17.8133 23.8347 17.2128 23.4511 16.4623C23.0842 15.7117 22.9007 14.8694 22.9007 13.9354V10.3328C22.9007 8.11451 22.859 6.33821 22.7756 5.00391H28.4048C28.3047 7.4557 28.2546 9.88247 28.2546 12.2842C28.2546 13.0181 28.4298 13.6019 28.78 14.0355C29.147 14.4692 29.6056 14.686 30.156 14.686C30.6731 14.686 31.1234 14.4608 31.507 14.0105C31.9073 13.5435 32.1492 12.9097 32.2325 12.1091V11.5337C32.2659 10.2327 32.2826 9.33207 32.2826 8.8317C32.2826 7.68086 32.2492 6.40493 32.1825 5.00391H38.1619Z" fill="#021231"/>
<path d="M20.0143 5.17842H6.40432V7.80534C7.25494 7.82202 8.53087 7.83036 10.2321 7.83036C13.1676 7.83036 16.1531 7.78032 19.1887 7.68025V12.5838C16.1531 12.4671 12.9508 12.4087 9.58164 12.4087C8.18061 12.4087 7.12151 12.417 6.40432 12.4337V18.6633H0.5C0.633431 15.4276 0.700146 12.4004 0.700146 9.58164C0.700146 6.76291 0.633431 3.7357 0.5 0.5H20.0143V5.17842Z" fill="#021231"/>
<path d="M6.436 39.9981C5.69867 39.9981 5.01733 39.8767 4.392 39.6341C3.76667 39.3821 3.22533 39.0321 2.768 38.5841C2.31067 38.1361 1.95133 37.6087 1.69 37.0021C1.438 36.3954 1.312 35.7327 1.312 35.0141C1.312 34.2954 1.438 33.6327 1.69 33.0261C1.95133 32.4194 2.31067 31.8921 2.768 31.4441C3.23467 30.9961 3.78067 30.6507 4.406 30.4081C5.03133 30.1561 5.71267 30.0301 6.45 30.0301C7.15933 30.0301 7.82667 30.1514 8.452 30.3941C9.07733 30.6274 9.60467 30.9821 10.034 31.4581L9.376 32.1161C8.97467 31.7054 8.53133 31.4114 8.046 31.2341C7.56067 31.0474 7.038 30.9541 6.478 30.9541C5.89 30.9541 5.344 31.0567 4.84 31.2621C4.336 31.4581 3.89733 31.7427 3.524 32.1161C3.15067 32.4801 2.85667 32.9094 2.642 33.4041C2.43667 33.8894 2.334 34.4261 2.334 35.0141C2.334 35.6021 2.43667 36.1434 2.642 36.6381C2.85667 37.1234 3.15067 37.5527 3.524 37.9261C3.89733 38.2901 4.336 38.5747 4.84 38.7801C5.344 38.9761 5.89 39.0741 6.478 39.0741C7.038 39.0741 7.56067 38.9807 8.046 38.7941C8.53133 38.6074 8.97467 38.3087 9.376 37.8981L10.034 38.5561C9.60467 39.0321 9.07733 39.3914 8.452 39.6341C7.82667 39.8767 7.15467 39.9981 6.436 39.9981ZM14.6314 39.9841C13.922 39.9841 13.2827 39.8254 12.7134 39.5081C12.1534 39.1814 11.71 38.7381 11.3834 38.1781C11.0567 37.6087 10.8934 36.9601 10.8934 36.2321C10.8934 35.4947 11.0567 34.8461 11.3834 34.2861C11.71 33.7261 12.1534 33.2874 12.7134 32.9701C13.2734 32.6527 13.9127 32.4941 14.6314 32.4941C15.3594 32.4941 16.0034 32.6527 16.5634 32.9701C17.1327 33.2874 17.576 33.7261 17.8934 34.2861C18.22 34.8461 18.3834 35.4947 18.3834 36.2321C18.3834 36.9601 18.22 37.6087 17.8934 38.1781C17.576 38.7381 17.1327 39.1814 16.5634 39.5081C15.994 39.8254 15.35 39.9841 14.6314 39.9841ZM14.6314 39.1021C15.1634 39.1021 15.6347 38.9854 16.0454 38.7521C16.456 38.5094 16.778 38.1734 17.0114 37.7441C17.254 37.3054 17.3754 36.8014 17.3754 36.2321C17.3754 35.6534 17.254 35.1494 17.0114 34.7201C16.778 34.2907 16.456 33.9594 16.0454 33.7261C15.6347 33.4834 15.168 33.3621 14.6454 33.3621C14.1227 33.3621 13.656 33.4834 13.2454 33.7261C12.8347 33.9594 12.508 34.2907 12.2654 34.7201C12.0227 35.1494 11.9014 35.6534 11.9014 36.2321C11.9014 36.8014 12.0227 37.3054 12.2654 37.7441C12.508 38.1734 12.8347 38.5094 13.2454 38.7521C13.656 38.9854 14.118 39.1021 14.6314 39.1021ZM23.8118 39.9981C23.2144 39.9981 22.6824 39.9001 22.2158 39.7041C21.7584 39.5081 21.3664 39.2094 21.0398 38.8081C20.7131 38.4067 20.4658 37.9121 20.2978 37.3241C20.1298 36.7267 20.0458 36.0361 20.0458 35.2521C20.0458 34.5521 20.1111 33.9407 20.2418 33.4181C20.3724 32.8861 20.5544 32.4287 20.7878 32.0461C21.0211 31.6634 21.2918 31.3414 21.5998 31.0801C21.9171 30.8094 22.2578 30.5947 22.6218 30.4361C22.9951 30.2681 23.3778 30.1421 23.7698 30.0581L27.0738 29.2881L27.2418 30.2121L24.1338 30.9121C23.9378 30.9587 23.6998 31.0241 23.4198 31.1081C23.1491 31.1921 22.8691 31.3181 22.5798 31.4861C22.2998 31.6541 22.0384 31.8874 21.7958 32.1861C21.5531 32.4847 21.3571 32.8721 21.2078 33.3481C21.0678 33.8147 20.9978 34.3981 20.9978 35.0981C20.9978 35.2474 21.0024 35.3687 21.0118 35.4621C21.0211 35.5461 21.0304 35.6394 21.0398 35.7421C21.0584 35.8354 21.0724 35.9754 21.0818 36.1621L20.6478 35.7981C20.7504 35.2287 20.9604 34.7341 21.2778 34.3141C21.5951 33.8847 21.9918 33.5534 22.4678 33.3201C22.9531 33.0774 23.4898 32.9561 24.0778 32.9561C24.7591 32.9561 25.3658 33.1054 25.8978 33.4041C26.4298 33.6934 26.8451 34.0994 27.1438 34.6221C27.4518 35.1447 27.6058 35.7514 27.6058 36.4421C27.6058 37.1234 27.4471 37.7347 27.1298 38.2761C26.8218 38.8174 26.3831 39.2421 25.8138 39.5501C25.2444 39.8487 24.5771 39.9981 23.8118 39.9981ZM23.9238 39.1721C24.4464 39.1721 24.9084 39.0554 25.3098 38.8221C25.7111 38.5794 26.0238 38.2527 26.2478 37.8421C26.4811 37.4314 26.5978 36.9694 26.5978 36.4561C26.5978 35.9521 26.4811 35.5041 26.2478 35.1121C26.0238 34.7201 25.7111 34.4121 25.3098 34.1881C24.9084 33.9547 24.4418 33.8381 23.9098 33.8381C23.3871 33.8381 22.9251 33.9501 22.5238 34.1741C22.1224 34.3887 21.8051 34.6921 21.5718 35.0841C21.3478 35.4761 21.2358 35.9287 21.2358 36.4421C21.2358 36.9554 21.3478 37.4174 21.5718 37.8281C21.8051 38.2387 22.1224 38.5654 22.5238 38.8081C22.9344 39.0507 23.4011 39.1721 23.9238 39.1721ZM36.9043 39.9141V32.5641H37.8983V39.9141H36.9043ZM32.8303 35.1541C33.7543 35.1634 34.4589 35.3687 34.9443 35.7701C35.4296 36.1714 35.6723 36.7501 35.6723 37.5061C35.6723 38.2901 35.4109 38.8921 34.8883 39.3121C34.3656 39.7321 33.6189 39.9374 32.6483 39.9281L29.7363 39.9141V32.5641H30.7303V35.1261L32.8303 35.1541ZM32.5783 39.1721C33.2689 39.1814 33.7869 39.0461 34.1323 38.7661C34.4869 38.4767 34.6643 38.0567 34.6643 37.5061C34.6643 36.9554 34.4916 36.5541 34.1463 36.3021C33.8009 36.0407 33.2783 35.9054 32.5783 35.8961L30.7303 35.8681V39.1441L32.5783 39.1721ZM42.1285 39.9141V33.1661L42.3805 33.4321H39.3425V32.5641H45.9085V33.4321H42.8705L43.1225 33.1661V39.9141H42.1285ZM47.3456 39.9141V32.5641H48.3396V38.4021L53.2536 32.5641H54.1356V39.9141H53.1416V34.0621L48.2416 39.9141H47.3456ZM61.7303 39.9141V37.2681L61.9123 37.4781H59.4203C58.4776 37.4781 57.7403 37.2727 57.2083 36.8621C56.6763 36.4514 56.4103 35.8541 56.4103 35.0701C56.4103 34.2301 56.695 33.6047 57.2643 33.1941C57.8336 32.7741 58.5943 32.5641 59.5463 32.5641H62.6403V39.9141H61.7303ZM56.3543 39.9141L58.3703 37.0861H59.4063L57.4323 39.9141H56.3543ZM61.7303 36.9741V33.1381L61.9123 33.4321H59.5743C58.893 33.4321 58.361 33.5627 57.9783 33.8241C57.605 34.0854 57.4183 34.5101 57.4183 35.0981C57.4183 36.1901 58.1136 36.7361 59.5043 36.7361H61.9123L61.7303 36.9741ZM69.1386 39.9141V32.5641H72.3866C73.2173 32.5641 73.8706 32.7227 74.3466 33.0401C74.8319 33.3574 75.0746 33.8241 75.0746 34.4401C75.0746 35.0374 74.8459 35.4994 74.3886 35.8261C73.9313 36.1434 73.3293 36.3021 72.5826 36.3021L72.7786 36.0081C73.6559 36.0081 74.2999 36.1714 74.7106 36.4981C75.1213 36.8247 75.3266 37.2961 75.3266 37.9121C75.3266 38.5467 75.0933 39.0414 74.6266 39.3961C74.1693 39.7414 73.4553 39.9141 72.4846 39.9141H69.1386ZM70.1046 39.1301H72.4426C73.0679 39.1301 73.5393 39.0321 73.8566 38.8361C74.1833 38.6307 74.3466 38.3041 74.3466 37.8561C74.3466 37.4081 74.2019 37.0814 73.9126 36.8761C73.6233 36.6707 73.1659 36.5681 72.5406 36.5681H70.1046V39.1301ZM70.1046 35.8261H72.3166C72.8859 35.8261 73.3199 35.7187 73.6186 35.5041C73.9266 35.2894 74.0806 34.9767 74.0806 34.5661C74.0806 34.1554 73.9266 33.8474 73.6186 33.6421C73.3199 33.4367 72.8859 33.3341 72.3166 33.3341H70.1046V35.8261ZM80.6802 39.9841C79.9709 39.9841 79.3315 39.8254 78.7622 39.5081C78.2022 39.1814 77.7589 38.7381 77.4322 38.1781C77.1055 37.6087 76.9422 36.9601 76.9422 36.2321C76.9422 35.4947 77.1055 34.8461 77.4322 34.2861C77.7589 33.7261 78.2022 33.2874 78.7622 32.9701C79.3222 32.6527 79.9615 32.4941 80.6802 32.4941C81.4082 32.4941 82.0522 32.6527 82.6122 32.9701C83.1815 33.2874 83.6249 33.7261 83.9422 34.2861C84.2689 34.8461 84.4322 35.4947 84.4322 36.2321C84.4322 36.9601 84.2689 37.6087 83.9422 38.1781C83.6249 38.7381 83.1815 39.1814 82.6122 39.5081C82.0429 39.8254 81.3989 39.9841 80.6802 39.9841ZM80.6802 39.1021C81.2122 39.1021 81.6835 38.9854 82.0942 38.7521C82.5049 38.5094 82.8269 38.1734 83.0602 37.7441C83.3029 37.3054 83.4242 36.8014 83.4242 36.2321C83.4242 35.6534 83.3029 35.1494 83.0602 34.7201C82.8269 34.2907 82.5049 33.9594 82.0942 33.7261C81.6835 33.4834 81.2169 33.3621 80.6942 33.3621C80.1715 33.3621 79.7049 33.4834 79.2942 33.7261C78.8835 33.9594 78.5569 34.2907 78.3142 34.7201C78.0715 35.1494 77.9502 35.6534 77.9502 36.2321C77.9502 36.8014 78.0715 37.3054 78.3142 37.7441C78.5569 38.1734 78.8835 38.5094 79.2942 38.7521C79.7049 38.9854 80.1669 39.1021 80.6802 39.1021ZM91.9466 39.9141L88.9226 36.2741L89.7486 35.7841L93.1226 39.9141H91.9466ZM86.5566 39.9141V32.5641H87.5506V39.9141H86.5566ZM87.2426 36.6381V35.7841H89.6086V36.6381H87.2426ZM89.8326 36.3441L88.9086 36.2041L91.8346 32.5641H92.9126L89.8326 36.3441ZM98.4853 39.9841C97.8507 39.9841 97.2767 39.8394 96.7633 39.5501C96.25 39.2514 95.8393 38.8267 95.5313 38.2761C95.2327 37.7161 95.0833 37.0347 95.0833 36.2321C95.0833 35.4294 95.2327 34.7527 95.5313 34.2021C95.83 33.6421 96.236 33.2174 96.7493 32.9281C97.2627 32.6387 97.8413 32.4941 98.4853 32.4941C99.1853 32.4941 99.8107 32.6527 100.361 32.9701C100.921 33.2781 101.36 33.7167 101.677 34.2861C101.995 34.8461 102.153 35.4947 102.153 36.2321C102.153 36.9787 101.995 37.6321 101.677 38.1921C101.36 38.7521 100.921 39.1907 100.361 39.5081C99.8107 39.8254 99.1853 39.9841 98.4853 39.9841ZM94.6913 42.6301V32.5641H95.6433V34.7761L95.5453 36.2461L95.6853 37.7301V42.6301H94.6913ZM98.4153 39.1021C98.938 39.1021 99.4047 38.9854 99.8153 38.7521C100.226 38.5094 100.553 38.1734 100.795 37.7441C101.038 37.3054 101.159 36.8014 101.159 36.2321C101.159 35.6627 101.038 35.1634 100.795 34.7341C100.553 34.3047 100.226 33.9687 99.8153 33.7261C99.4047 33.4834 98.938 33.3621 98.4153 33.3621C97.8927 33.3621 97.4213 33.4834 97.0013 33.7261C96.5907 33.9687 96.264 34.3047 96.0213 34.7341C95.788 35.1634 95.6713 35.6627 95.6713 36.2321C95.6713 36.8014 95.788 37.3054 96.0213 37.7441C96.264 38.1734 96.5907 38.5094 97.0013 38.7521C97.4213 38.9854 97.8927 39.1021 98.4153 39.1021ZM104.21 42.7001C103.865 42.7001 103.533 42.6441 103.216 42.5321C102.908 42.4201 102.642 42.2521 102.418 42.0281L102.88 41.2861C103.067 41.4634 103.267 41.5987 103.482 41.6921C103.706 41.7947 103.953 41.8461 104.224 41.8461C104.551 41.8461 104.831 41.7527 105.064 41.5661C105.307 41.3887 105.535 41.0714 105.75 40.6141L106.226 39.5361L106.338 39.3821L109.362 32.5641H110.342L106.66 40.7961C106.455 41.2721 106.226 41.6501 105.974 41.9301C105.731 42.2101 105.465 42.4061 105.176 42.5181C104.887 42.6394 104.565 42.7001 104.21 42.7001ZM106.17 40.1241L102.782 32.5641H103.818L106.814 39.3121L106.17 40.1241ZM111.891 39.9141V32.5641H117.099V33.4321H112.633L112.885 33.1801V39.9141H111.891ZM122.199 39.9141V32.5641H125.447C126.278 32.5641 126.931 32.7227 127.407 33.0401C127.892 33.3574 128.135 33.8241 128.135 34.4401C128.135 35.0374 127.906 35.4994 127.449 35.8261C126.992 36.1434 126.39 36.3021 125.643 36.3021L125.839 36.0081C126.716 36.0081 127.36 36.1714 127.771 36.4981C128.182 36.8247 128.387 37.2961 128.387 37.9121C128.387 38.5467 128.154 39.0414 127.687 39.3961C127.23 39.7414 126.516 39.9141 125.545 39.9141H122.199ZM123.165 39.1301H125.503C126.128 39.1301 126.6 39.0321 126.917 38.8361C127.244 38.6307 127.407 38.3041 127.407 37.8561C127.407 37.4081 127.262 37.0814 126.973 36.8761C126.684 36.6707 126.226 36.5681 125.601 36.5681H123.165V39.1301ZM123.165 35.8261H125.377C125.946 35.8261 126.38 35.7187 126.679 35.5041C126.987 35.2894 127.141 34.9767 127.141 34.5661C127.141 34.1554 126.987 33.8474 126.679 33.6421C126.38 33.4367 125.946 33.3341 125.377 33.3341H123.165V35.8261ZM135.281 39.9141V38.2901L135.239 38.0241V35.3081C135.239 34.6827 135.061 34.2021 134.707 33.8661C134.361 33.5301 133.843 33.3621 133.153 33.3621C132.677 33.3621 132.224 33.4414 131.795 33.6001C131.365 33.7587 131.001 33.9687 130.703 34.2301L130.255 33.4881C130.628 33.1707 131.076 32.9281 131.599 32.7601C132.121 32.5827 132.672 32.4941 133.251 32.4941C134.203 32.4941 134.935 32.7321 135.449 33.2081C135.971 33.6747 136.233 34.3887 136.233 35.3501V39.9141H135.281ZM132.747 39.9841C132.196 39.9841 131.715 39.8954 131.305 39.7181C130.903 39.5314 130.595 39.2794 130.381 38.9621C130.166 38.6354 130.059 38.2621 130.059 37.8421C130.059 37.4594 130.147 37.1141 130.325 36.8061C130.511 36.4887 130.81 36.2367 131.221 36.0501C131.641 35.8541 132.201 35.7561 132.901 35.7561H135.435V36.4981H132.929C132.219 36.4981 131.725 36.6241 131.445 36.8761C131.174 37.1281 131.039 37.4407 131.039 37.8141C131.039 38.2341 131.202 38.5701 131.529 38.8221C131.855 39.0741 132.313 39.2001 132.901 39.2001C133.461 39.2001 133.941 39.0741 134.343 38.8221C134.753 38.5607 135.052 38.1874 135.239 37.7021L135.463 38.3881C135.276 38.8734 134.949 39.2607 134.483 39.5501C134.025 39.8394 133.447 39.9841 132.747 39.9841ZM141.959 39.9841C141.231 39.9841 140.578 39.8254 139.999 39.5081C139.43 39.1814 138.982 38.7381 138.655 38.1781C138.328 37.6087 138.165 36.9601 138.165 36.2321C138.165 35.4947 138.328 34.8461 138.655 34.2861C138.982 33.7261 139.43 33.2874 139.999 32.9701C140.578 32.6527 141.231 32.4941 141.959 32.4941C142.584 32.4941 143.149 32.6154 143.653 32.8581C144.157 33.1007 144.554 33.4647 144.843 33.9501L144.101 34.4541C143.849 34.0807 143.536 33.8054 143.163 33.6281C142.79 33.4507 142.384 33.3621 141.945 33.3621C141.422 33.3621 140.951 33.4834 140.531 33.7261C140.111 33.9594 139.78 34.2907 139.537 34.7201C139.294 35.1494 139.173 35.6534 139.173 36.2321C139.173 36.8107 139.294 37.3147 139.537 37.7441C139.78 38.1734 140.111 38.5094 140.531 38.7521C140.951 38.9854 141.422 39.1021 141.945 39.1021C142.384 39.1021 142.79 39.0134 143.163 38.8361C143.536 38.6587 143.849 38.3881 144.101 38.0241L144.843 38.5281C144.554 39.0041 144.157 39.3681 143.653 39.6201C143.149 39.8627 142.584 39.9841 141.959 39.9841Z" fill="#848BA8"/>
</svg>
